<?xml version="1.0" encoding="UTF-8"?>
<svg version="1.1" xmlns="http://www.w3.org/2000/svg" width="512" height="512">
<path d="M0 0 C5.3791106 0.13792591 10.47462207 1.4368473 15.6953125 2.6484375 C42.17098601 8.43153366 66.13594176 6.99258695 92.68017578 3.08959961 C106.69197747 1.03224073 120.46681727 0.03460703 134.6328125 0.0234375 C135.79242493 0.02242538 135.79242493 0.02242538 136.97546387 0.02139282 C163.3317627 0.05786812 189.41690034 4.16739642 208.98046875 23.5234375 C215.00738804 29.9230622 218.40082235 36.8353456 221.93359375 44.828125 C223.34002513 47.78867983 224.88646984 50.56360786 226.58789062 53.36206055 C243.12251304 80.64032431 239.9985325 113.43598656 233.078125 143.28710938 C232.38445353 146.00043203 231.51080034 148.63671266 230.5703125 151.2734375 C231.6840625 151.1703125 232.7978125 151.0671875 233.9453125 150.9609375 C240.31508839 150.99481929 245.83404142 153.68631327 250.43359375 158.03515625 C256.17039859 165.05313338 258.20972453 173.38811602 257.91796875 182.34375 C256.51037279 194.20551374 251.76825399 203.51508431 242.4609375 210.9609375 C237.93359699 214.10388463 233.75828688 216.23830947 228.1640625 216.328125 C224.10899162 216.40610713 221.30191051 216.63948334 217.5703125 218.2734375 C214.00356891 222.78323844 212.36951629 228.59653533 210.45166016 233.94628906 C204.17998635 250.5062876 189.60195876 268.83151661 174.9453125 278.7734375 C171.77365588 282.11202342 172.31785245 283.85166107 172.42431641 288.27832031 C172.69483061 293.8279327 173.11352182 299.36139375 173.5703125 304.8984375 C173.71339844 306.69087891 173.71339844 306.69087891 173.859375 308.51953125 C174.09283682 311.43780399 174.33057598 314.35567567 174.5703125 317.2734375 C175.21722046 317.36682907 175.86412842 317.46022064 176.53063965 317.55644226 C186.3069957 319.0695268 195.86474889 321.36092766 205.4765625 323.66796875 C207.29152736 324.10160923 209.10650979 324.53517617 210.92150879 324.96867371 C214.70769344 325.87423889 218.49300079 326.7833759 222.27783203 327.69458008 C227.09655595 328.85398988 231.91829709 330.00028195 236.74091339 331.14337635 C240.48492268 332.03311963 244.22670036 332.93198249 247.96794128 333.83328819 C249.74352729 334.25950224 251.51989135 334.68248985 253.29707336 335.10199928 C273.54038847 339.88865057 290.47746477 346.1821534 302.5703125 364.2734375 C310.28507075 377.84193775 312.05150462 392.49182979 313.61328125 407.73828125 C313.78774615 409.38691051 313.96283232 411.03547412 314.13850403 412.68397522 C314.50210866 416.11149523 314.8604893 419.53950389 315.21459961 422.96801758 C315.66751839 427.35213227 316.13029925 431.73513416 316.59653759 436.1178503 C316.95695226 439.510526 317.31391875 442.90355692 317.66967201 446.29672432 C317.83926058 447.91345684 318.00950778 449.53012043 318.1804409 451.14671135 C318.41804594 453.40209119 318.65142325 455.6578684 318.88354492 457.91381836 C319.01661545 459.19365097 319.14968597 460.47348358 319.28678894 461.792099 C319.99527679 470.4915032 319.99527679 470.4915032 318.0078125 474.1484375 C315.5703125 476.2734375 315.5703125 476.2734375 312.0703125 476.8359375 C308.5703125 476.2734375 308.5703125 476.2734375 306.44921875 474.89160156 C303.54843336 470.84949884 303.48478865 466.69019582 303.0078125 461.8203125 C302.83185547 460.23799835 302.83185547 460.23799835 302.65234375 458.62371826 C302.27373701 455.17528799 301.92091238 451.72481904 301.5703125 448.2734375 C301.32259384 445.93283886 301.07389077 443.5923442 300.82421875 441.25195312 C299.9263225 432.76558244 299.04730758 424.27724001 298.1953125 415.78613281 C297.82816003 412.14042348 297.45005564 408.49597903 297.0703125 404.8515625 C296.96396484 403.76385559 296.85761719 402.67614868 296.74804688 401.55548096 C295.27514315 387.61969061 292.3288063 373.61333254 281.51171875 363.82421875 C265.89942377 351.35323061 243.60437873 349.39382038 224.5703125 345.2734375 C224.76045425 345.8798558 224.95059601 346.48627411 225.14649963 347.11106873 C227.12976502 353.44818696 229.08869665 359.79246611 231.03393555 366.14135742 C231.76214664 368.50687052 232.49645228 370.87051667 233.23706055 373.23217773 C234.30320941 376.63568053 235.34694614 380.04539139 236.38671875 383.45703125 C236.71998672 384.50426865 237.0532547 385.55150604 237.3966217 386.63047791 C241.05054057 398.79887606 237.68172482 407.89593343 233.80078125 419.6328125 C233.31808681 421.10997729 232.83586121 422.58729535 232.3540802 424.0647583 C231.34694346 427.14619545 230.33333701 430.22540813 229.31518555 433.30322266 C228.01410537 437.23848287 226.73077005 441.17927104 225.45235729 445.12194443 C224.4621805 448.16826211 223.46200862 451.21122659 222.4588871 454.25330353 C221.98163858 455.7050445 221.50762271 457.15785251 221.03697777 458.61174774 C220.37755943 460.64411703 219.70460867 462.67151601 219.02807617 464.69824219 C218.64914719 465.85024109 218.2702182 467.00223999 217.87980652 468.18914795 C216.49206437 471.4577376 215.043525 473.7294866 212.5703125 476.2734375 C208.60461262 476.91078212 206.53750738 476.89343422 203.1328125 474.7109375 C201.00034962 471.3842954 201.34291676 469.19044691 201.5703125 465.2734375 C202.36755371 462.04907227 202.36755371 462.04907227 203.49804688 458.71484375 C203.80528435 457.79383377 203.80528435 457.79383377 204.11872864 456.85421753 C204.56099102 455.53283226 205.00803385 454.21303899 205.45942688 452.89474487 C206.17513444 450.80358745 206.87743233 448.70833394 207.57653809 446.61157227 C209.31473387 441.40737943 211.0754805 436.21087796 212.83551025 431.01403809 C214.32469733 426.6140534 215.80520996 422.21133051 217.27449036 417.80465698 C217.96400857 415.74837583 218.66596194 413.69662741 219.36853027 411.64477539 C219.79383116 410.37406744 220.2185445 409.10316264 220.64257812 407.83203125 C221.01564087 406.73173584 221.38870361 405.63144043 221.77307129 404.49780273 C223.13214931 399.00114268 222.76269246 394.13324341 221.37133789 388.69287109 C221.10587662 387.64843842 220.84041534 386.60400574 220.56690979 385.52792358 C219.30075377 380.80093825 218.0024222 376.08421693 216.66821289 371.37597656 C215.97915505 368.89530336 215.31913389 366.40637729 214.6887207 363.91015625 C211.96377046 350.48913569 211.96377046 350.48913569 204.50311279 339.6505127 C199.68690437 337.26029473 194.89841602 336.53435274 189.5703125 336.2734375 C189.58733247 337.14700551 189.58733247 337.14700551 189.60469627 338.03822136 C189.67798214 344.84456626 189.22147086 351.52339423 188.59228516 358.29736328 C188.43617012 360.03592087 188.43617012 360.03592087 188.27690125 361.80960083 C187.93403281 365.61308751 187.58450987 369.41592586 187.234375 373.21875 C187.05356929 375.20346136 186.87276617 377.18817297 186.69229066 379.17291439 C186.12583086 385.40163059 185.55465451 391.62990177 184.98046875 397.85791016 C184.3899753 404.26369487 183.80742106 410.67016667 183.22876132 417.0770303 C182.72969023 422.59960093 182.22571725 428.12170944 181.717852 433.64347827 C181.4154369 436.93198947 181.11536966 440.22068303 180.81892776 443.50973892 C180.48768461 447.17650936 180.14842285 450.84245403 179.80712891 454.50830078 C179.71146133 455.58591675 179.61579376 456.66353271 179.51722717 457.77380371 C178.9801048 463.44481928 178.34788834 468.8461118 176.5703125 474.2734375 C172.83775802 476.76180715 170.98590315 476.81570302 166.5703125 476.2734375 C163.56503039 473.4918655 162.62043435 471.97449252 162.32592773 467.85522461 C162.42520796 466.52270497 162.54870334 465.1918523 162.69140625 463.86328125 C162.75251083 463.12955795 162.81361542 462.39583466 162.87657166 461.63987732 C163.08674701 459.18203627 163.32848514 456.72835162 163.5703125 454.2734375 C163.72985885 452.49121119 163.8875259 450.70881579 164.04345703 448.92626953 C164.63611348 442.24543508 165.27328852 435.56897934 165.91625977 428.89282227 C166.19165798 426.02135922 166.46133747 423.14939997 166.73046875 420.27734375 C166.85700584 418.99108849 166.85700584 418.99108849 166.98609924 417.67884827 C167.52780024 411.86195986 167.66424909 406.11406017 167.5703125 400.2734375 C167.01601563 401.33304687 166.46171875 402.39265625 165.890625 403.484375 C165.15904695 404.87249745 164.42726552 406.26051273 163.6953125 407.6484375 C163.33050781 408.34710938 162.96570313 409.04578125 162.58984375 409.765625 C159.796875 415.046875 159.796875 415.046875 157.5703125 417.2734375 C154.55924073 417.61897033 152.47718473 417.84591903 149.5703125 417.2734375 C146.5703125 414.7734375 146.5703125 414.7734375 144.5703125 412.2734375 C141.86486726 416.87806947 141.26172881 419.8164626 141.75390625 425.11328125 C141.81049911 425.75925766 141.86709198 426.40523407 141.92539978 427.07078552 C142.1161699 429.14163787 142.33753594 431.20690493 142.5703125 433.2734375 C142.64679016 433.95351868 142.72326782 434.63359985 142.80206299 435.33428955 C143.36099191 440.17503629 143.98972966 445.00575868 144.6328125 449.8359375 C144.91397165 451.95564986 145.1936335 454.07550624 145.46861267 456.19602966 C145.71498265 458.09545165 145.96680595 459.99416402 146.21899414 461.89282227 C147.09375146 470.31030982 147.09375146 470.31030982 145.0078125 474.1484375 C142.5703125 476.2734375 142.5703125 476.2734375 139.0703125 476.8359375 C134.86713364 476.16042661 134.04593753 475.68910845 131.5703125 472.2734375 C130.64625952 468.9055822 130.2647874 465.50348927 129.8671875 462.0390625 C129.73967102 461.04590027 129.61215454 460.05273804 129.48077393 459.02947998 C129.07789676 455.86257523 128.69883652 452.69333601 128.3203125 449.5234375 C128.05104456 447.37350128 127.78022939 445.22375824 127.5078125 443.07421875 C126.84401673 437.80936346 126.20156277 432.54228992 125.5703125 427.2734375 C121.6103125 427.2734375 117.6503125 427.2734375 113.5703125 427.2734375 C113.40950195 428.61567383 113.24869141 429.95791016 113.08300781 431.34082031 C112.48152943 436.32270651 111.8574679 441.30154725 111.2265625 446.27978516 C110.95672174 448.43429494 110.69300219 450.58958061 110.43554688 452.74560547 C110.06428132 455.84567286 109.67104735 458.94227778 109.2734375 462.0390625 C109.16283997 463.00273743 109.05224243 463.96641235 108.93829346 464.95928955 C108.05398363 471.60610645 108.05398363 471.60610645 105.68261719 474.87792969 C102.47605112 476.99636839 100.31273063 476.87489756 96.5703125 476.2734375 C93.81929781 473.62891565 92.63979315 472.12428043 92.32592773 468.28076172 C92.44653564 467.1826416 92.56714355 466.08452148 92.69140625 464.953125 C92.8188623 463.71788086 92.94631836 462.48263672 93.07763672 461.20996094 C93.24021973 459.9109082 93.40280273 458.61185547 93.5703125 457.2734375 C93.7264502 455.98211914 93.88258789 454.69080078 94.04345703 453.36035156 C94.63393821 448.68614177 95.26971335 444.0192565 95.91625977 439.35253906 C98.44450287 425.38704507 98.44450287 425.38704507 94.5703125 412.2734375 C93.549375 413.5109375 93.549375 413.5109375 92.5078125 414.7734375 C89.5703125 417.2734375 89.5703125 417.2734375 86.0703125 417.8984375 C82.69991089 417.29658007 81.08853535 416.75906395 78.8359375 414.18359375 C75.94013498 409.81307698 73.77316835 405.019797 71.5703125 400.2734375 C71.40067781 407.93904047 71.92759553 415.4434714 72.6640625 423.0703125 C72.77504272 424.26271545 72.88602295 425.45511841 73.00036621 426.68365479 C73.3526746 430.46400427 73.711008 434.24374705 74.0703125 438.0234375 C74.42896622 441.81746433 74.78625238 445.61160351 75.14025879 449.40606689 C75.35997276 451.75915967 75.58242866 454.11199848 75.8079834 456.46453857 C75.90808716 457.53294983 76.00819092 458.60136108 76.11132812 459.70214844 C76.20015259 460.63573181 76.28897705 461.56931519 76.38049316 462.53118896 C76.93871298 470.59558062 76.93871298 470.59558062 75.0078125 474.1484375 C72.5703125 476.2734375 72.5703125 476.2734375 69.0703125 476.8359375 C65.5703125 476.2734375 65.5703125 476.2734375 63.44262695 474.9309082 C60.4615108 470.69965911 60.53246785 466.26280089 60.11328125 461.19140625 C59.94242256 459.38919868 59.94242256 459.38919868 59.76811218 457.55058289 C59.50274975 454.74972525 59.24950499 451.9480573 59.00335693 449.14544678 C58.52415257 443.70880357 58.00894056 438.27570102 57.49462891 432.84228516 C56.47372858 422.01624138 55.48205726 411.18767244 54.4987793 400.3581543 C53.98196186 394.66698786 53.45929679 388.97637422 52.93523884 383.28587055 C52.52837977 378.85852695 52.12523237 374.43085111 51.72313499 370.00307274 C51.53186395 367.90312075 51.33930324 365.80328578 51.14538002 363.70357704 C50.87600016 360.78229583 50.61180866 357.86058839 50.34887695 354.9387207 C50.26943344 354.08934433 50.18998993 353.23996796 50.10813904 352.36485291 C49.63046946 346.97936252 49.50277911 341.68040727 49.5703125 336.2734375 C41.1553125 338.2534375 41.1553125 338.2534375 32.5703125 340.2734375 C32.21324219 341.63984375 31.85617188 343.00625 31.48828125 344.4140625 C29.92537217 350.15116086 28.19038619 355.82798844 26.43359375 361.5078125 C25.85088787 363.39973232 25.26820602 365.29165954 24.68554688 367.18359375 C23.78170093 370.11659725 22.87496363 373.0485597 21.9597168 375.97802734 C21.0669899 378.83942314 20.18677806 381.70442523 19.30859375 384.5703125 C19.03364578 385.44024841 18.75869781 386.31018433 18.47541809 387.20648193 C15.86528824 395.7982752 16.46101873 401.99919274 19.38671875 410.37109375 C19.67895828 411.23485626 19.97119781 412.09861877 20.27229309 412.98855591 C20.8955003 414.8268105 21.52342579 416.66347123 22.15570068 418.49862671 C23.13753961 421.34966396 24.10610529 424.20488776 25.07080078 427.06176758 C26.33151982 430.79350312 27.59594082 434.52393568 28.86474609 438.25292969 C30.92476631 444.31161226 32.96325909 450.37620265 34.9453125 456.4609375 C35.2244751 457.28795166 35.5036377 458.11496582 35.79125977 458.96704102 C37.26646098 463.52600169 37.97995721 467.41884204 37.5703125 472.2734375 C36.0078125 474.7109375 36.0078125 474.7109375 33.5703125 476.2734375 C30.0703125 476.8359375 30.0703125 476.8359375 26.5703125 476.2734375 C23.15755212 472.76306593 21.629233 469.30918136 20.11254883 464.69824219 C19.89899246 464.05847946 19.6854361 463.41871674 19.46540833 462.75956726 C18.76711372 460.65815072 18.08432971 458.55207293 17.40234375 456.4453125 C16.91788567 454.97164079 16.43274152 453.49819447 15.94694519 452.02496338 C14.9324943 448.94053938 13.92556894 445.85379041 12.92407227 442.76513672 C11.64622966 438.8258578 10.35117879 434.89250306 9.05052662 430.9607048 C8.04619807 427.91890359 7.0505323 424.87432061 6.0574398 421.82883453 C5.58351249 420.37849932 5.10710969 418.9289704 4.62809181 417.48030853 C0.38120027 404.60638547 -1.40735344 396.53307544 2.75390625 383.45703125 C3.25543968 381.81142967 3.25543968 381.81142967 3.7671051 380.13258362 C4.83140752 376.6535634 5.91917162 373.18240939 7.0078125 369.7109375 C7.73659131 367.34358025 8.46382161 364.97574571 9.18945312 362.60742188 C10.96518747 356.82378235 12.76020506 351.04640561 14.5703125 345.2734375 C9.19677535 346.47130606 3.82587932 347.68021259 -1.54296875 348.89892578 C-3.36554367 349.31106746 -5.18877708 349.72030923 -7.01269531 350.12646484 C-31.45161944 355.55665098 -31.45161944 355.55665098 -49.4296875 372.2734375 C-55.45952102 383.29463322 -56.82407814 394.6119942 -58.06158447 406.90074539 C-58.3091839 409.35710753 -58.56363912 411.81267728 -58.81982422 414.26815796 C-59.45425971 420.36140964 -60.07818179 426.45572594 -60.70043945 432.55023193 C-61.2280744 437.71612121 -61.7606976 442.88144514 -62.300354 448.04609299 C-62.55009349 450.45567519 -62.79248578 452.86592398 -63.03466797 455.27627563 C-63.1893958 456.76316245 -63.34448742 458.25001146 -63.5 459.73681641 C-63.63164551 461.02649323 -63.76329102 462.31617004 -63.89892578 463.64492798 C-64.44239681 467.36032369 -65.16323185 470.73671775 -66.4296875 474.2734375 C-70.16224198 476.76180715 -72.01409685 476.81570302 -76.4296875 476.2734375 C-79.33016365 473.54638685 -80.37561799 472.05247197 -80.65388489 468.04319763 C-80.46520088 466.24955528 -80.46520088 466.24955528 -80.27270508 464.41967773 C-80.21020223 463.76447112 -80.14769938 463.10926451 -80.0833025 462.43420315 C-79.94993746 461.05993243 -79.80694875 459.68656445 -79.65475845 458.31425095 C-79.30421557 455.13573053 -79.0298538 451.9501617 -78.73706055 448.76586914 C-78.47532578 446.15468833 -78.21076734 443.54398059 -77.94140625 440.93359375 C-77.87008799 440.23917112 -77.79876972 439.5447485 -77.7252903 438.82928276 C-77.34795385 435.16000476 -76.96703791 431.49111852 -76.58325195 427.82250977 C-76.1937354 424.09142073 -75.81763069 420.35910548 -75.44446087 416.62635136 C-75.14931659 413.70053633 -74.84371994 410.77587509 -74.535532 407.851408 C-74.39257058 406.47786469 -74.2533549 405.10392483 -74.11841393 403.72957039 C-72.16337859 383.91611648 -67.87671374 365.08841186 -52.4296875 351.2734375 C-37.85862716 339.88979661 -20.25207441 336.57180589 -2.59765625 332.41015625 C-0.744316 331.96929329 1.10892828 331.52802676 2.96208191 331.08638 C6.80763394 330.17116238 10.65405718 329.2597376 14.5012207 328.35131836 C19.434384 327.18629124 24.36557163 326.01313771 29.29619312 324.8374052 C33.10530363 323.92974499 36.91521785 323.02549903 40.72540855 322.12238503 C42.54571866 321.69065083 44.36582062 321.2580381 46.185709 320.82452965 C48.71392641 320.22299977 51.24314442 319.6258815 53.77270508 319.0300293 C54.52224457 318.85086975 55.27178406 318.67171021 56.04403687 318.48712158 C58.96031962 317.80422663 61.56331012 317.2734375 64.5703125 317.2734375 C64.91017831 313.148949 65.24099708 309.02378072 65.5703125 304.8984375 C65.71339844 303.16400391 65.71339844 303.16400391 65.859375 301.39453125 C66.04083025 299.10041843 66.20635129 296.80498643 66.35546875 294.50854492 C66.49003687 292.48222435 66.65912892 290.4575772 66.87890625 288.4387207 C67.14317635 284.88287212 67.2965408 282.37274345 65.2890625 279.33398438 C63.48285047 277.4600394 61.59978638 275.83968114 59.5703125 274.2109375 C58.18242587 273.00935744 56.7969889 271.80494185 55.4140625 270.59765625 C54.41246094 269.74179932 54.41246094 269.74179932 53.390625 268.86865234 C38.43930717 255.76619651 28.77124491 236.47038833 21.5703125 218.2734375 C20.69890625 218.19867188 19.8275 218.12390625 18.9296875 218.046875 C7.83320036 216.82193811 -2.2597733 213.75648925 -9.96875 205.2578125 C-16.86803124 195.88659627 -19.35495428 185.77318182 -18.4296875 174.2734375 C-17.2308626 167.27189711 -14.64474001 161.20423139 -9.4296875 156.2734375 C-3.3333793 152.0764816 1.29403633 151.02626039 8.5703125 151.2734375 C8.39902832 150.61037598 8.22774414 149.94731445 8.05126953 149.26416016 C1.03676209 121.84553518 -5.94458038 89.26159878 8.4140625 62.88671875 C9.97083796 59.27271884 9.97083796 59.27271884 8.32421875 55.72265625 C7.61435273 54.45697236 6.88241665 53.203499 6.1328125 51.9609375 C-0.19616654 40.40414312 -4.12161939 28.42907206 -6.4296875 15.4609375 C-6.56673096 14.71408691 -6.70377441 13.96723633 -6.8449707 13.19775391 C-7.51187187 8.95118414 -7.55632678 6.05801595 -5.4296875 2.2734375 C-3.4296875 0.2734375 -3.4296875 0.2734375 0 0 Z M86.5703125 19.140625 C64.78082327 22.88364496 40.6621603 23.4303046 18.94921875 18.9296875 C16.03651543 18.36398327 13.52106483 18.13698653 10.5703125 18.2734375 C11.09865338 24.65755649 12.66165689 29.97799527 15.0703125 35.8984375 C15.42488525 36.77290527 15.77945801 37.64737305 16.14477539 38.54833984 C21.24573287 50.7081305 28.22955275 60.9167921 37.5703125 70.2734375 C38.70726562 71.42779297 38.70726562 71.42779297 39.8671875 72.60546875 C57.76765229 89.7747054 83.35141609 96.29117554 107.5703125 97.2734375 C108.47394531 97.3146875 109.37757813 97.3559375 110.30859375 97.3984375 C132.40009 97.8983865 155.14474185 93.82174594 176.04394531 86.79760742 C180.75895321 85.26923084 184.6755324 85.08392721 189.5703125 85.2734375 C193.58282597 92.94609074 193.94349002 101.2955229 194.94335938 109.78320312 C196.92655861 125.22560384 202.73520076 135.16640211 213.5703125 146.2734375 C214.2303125 146.6034375 214.8903125 146.9334375 215.5703125 147.2734375 C220.08185778 133.89911037 222.91948273 120.40864649 223.5703125 106.2734375 C223.6115625 105.47035156 223.6528125 104.66726562 223.6953125 103.83984375 C224.14857609 86.5874983 219.95098681 70.81559898 210.48046875 56.40625 C208.59698569 53.31718371 207.28980133 50.33726453 206.0078125 46.9609375 C203.78502806 41.31848469 200.91112977 37.46294088 196.5703125 33.2734375 C195.82201172 32.49419922 195.82201172 32.49419922 195.05859375 31.69921875 C179.68658679 16.94673852 156.3431502 15.04384889 136.2578125 15.0234375 C135.48153503 15.02209808 134.70525757 15.02075867 133.90545654 15.01937866 C117.94218468 15.02532302 102.30412052 16.36518127 86.5703125 19.140625 Z M19.5703125 74.2734375 C12.34954086 98.9784675 16.09269106 123.06722421 23.5703125 147.2734375 C36.20489827 136.82861185 41.85439291 126.36665154 44.24462891 110.29541016 C44.55079332 108.39462027 44.95395789 106.51018061 45.36328125 104.62890625 C45.95536122 101.21550564 46.26050798 98.67276762 45.5703125 95.2734375 C43.1847654 92.6278977 40.74684967 91.016829 37.69921875 89.1796875 C33.6149424 86.6913893 30.34900424 83.59610072 26.859375 80.3515625 C24.50693062 78.21589627 22.06962219 76.23402672 19.5703125 74.2734375 Z M59.5703125 102.2734375 C59.47532471 102.97315674 59.38033691 103.67287598 59.2824707 104.39379883 C58.83334974 107.6272032 58.35824127 110.85630067 57.8828125 114.0859375 C57.73392578 115.18615234 57.58503906 116.28636719 57.43164062 117.41992188 C55.28909258 131.66156475 49.29739589 143.48597642 38.35058594 152.88720703 C30.39209378 159.73406619 30.39209378 159.73406619 27.25366211 169.34106445 C27.37392804 173.0534491 27.9268977 176.62038021 28.5703125 180.2734375 C28.80901711 182.02693427 29.04456317 183.78086322 29.27734375 185.53515625 C34.22849438 219.41508684 50.77808463 249.7273523 78.11303711 270.68237305 C93.03431115 281.73538225 107.3459929 290.10027892 126.5703125 288.2734375 C150.46209422 283.97119589 173.90579582 262.83738074 187.3828125 243.4609375 C199.76963597 224.98041733 207.19046247 204.90468224 210.1953125 182.88476562 C210.43344302 181.22653382 210.70570084 179.57256941 211.0234375 177.92773438 C211.99573965 172.85465787 212.61434092 168.14481445 210.5703125 163.2734375 C206.74885829 158.03331264 201.96241989 153.82956562 197.09375 149.58984375 C183.39768211 137.35689109 181.66816559 119.47196587 179.5703125 102.2734375 C173.21411633 102.93585139 167.15513692 104.22416171 160.9453125 105.7109375 C126.34027544 113.76543438 93.41237801 112.6247716 59.5703125 102.2734375 Z M-1.4296875 170.2734375 C-3.95050128 175.55514255 -4.43137132 181.03556225 -2.70703125 186.609375 C0.32291646 193.99410585 4.53252987 198.0307464 11.60546875 201.57421875 C13.85080266 202.49694971 13.85080266 202.49694971 17.5703125 202.2734375 C17.48467041 201.71060059 17.39902832 201.14776367 17.31079102 200.56787109 C15.75867595 190.28261976 14.29378965 180.0925453 13.78125 169.6953125 C13.83636226 167.32512543 13.83636226 167.32512543 12.5703125 166.2734375 C6.80163037 165.54639285 2.58395425 165.65166821 -1.4296875 170.2734375 Z M225.5703125 167.2734375 C225.36667462 168.7519197 225.22293503 170.23875214 225.10546875 171.7265625 C225.0286084 172.65065918 224.95174805 173.57475586 224.87255859 174.52685547 C224.79344238 175.51572754 224.71432617 176.50459961 224.6328125 177.5234375 C223.92812905 185.84624753 223.02972856 194.04481502 221.5703125 202.2734375 C228.09005936 201.99600146 232.71852141 199.64661863 237.5703125 195.2734375 C241.54862439 189.49671064 243.29037389 183.28117777 242.5703125 176.2734375 C241.64990281 172.85573977 240.23696999 170.06829836 237.9453125 167.3359375 C234.8137518 165.93497613 228.26794537 164.57580463 225.5703125 167.2734375 Z M81.5703125 292.2734375 C78.30403903 307.60057892 78.30403903 307.60057892 80.64013672 322.50195312 C83.65652141 326.00641614 87.53570096 328.06503381 91.60107422 330.16357422 C94.83095999 331.9839388 97.44981798 334.43009998 100.1953125 336.8984375 C104.4356861 340.53035896 108.72832921 344.09199032 113.1328125 347.5234375 C114.08285156 348.27109375 115.03289062 349.01875 116.01171875 349.7890625 C118.36719569 351.50256797 118.36719569 351.50256797 120.53637695 351.01879883 C123.98897373 349.7535512 126.49234631 347.13003554 129.1953125 344.7109375 C130.45332594 343.60811763 131.71244526 342.50655801 132.97265625 341.40625 C133.58737793 340.86774414 134.20209961 340.32923828 134.83544922 339.77441406 C137.85368481 337.16308386 140.98382486 334.69819638 144.11328125 332.22265625 C146.95150842 329.97102611 149.76311021 327.68861939 152.5703125 325.3984375 C153.4778125 324.65851563 154.3853125 323.91859375 155.3203125 323.15625 C157.58607969 321.31666916 157.58607969 321.31666916 159.5703125 319.2734375 C159.6606915 316.44934533 159.6606915 316.44934533 159.328125 313.171875 C159.23144531 311.96015625 159.13476562 310.7484375 159.03515625 309.5 C158.86693359 307.59347656 158.86693359 307.59347656 158.6953125 305.6484375 C158.53869141 303.7303125 158.53869141 303.7303125 158.37890625 301.7734375 C158.11888081 298.6058549 157.84893999 295.43942925 157.5703125 292.2734375 C153.5460966 292.99561382 150.60470206 294.18115913 147.0078125 296.1484375 C133.02977767 303.21388403 116.68047467 304.77204716 101.52734375 300.40625 C96.65766515 298.54071923 92.09201275 296.16973763 87.50390625 293.69921875 C84.66423241 292.05487478 84.66423241 292.05487478 81.5703125 292.2734375 Z M163.84228516 334.68920898 C163.31940918 335.19137939 162.7965332 335.6935498 162.2578125 336.2109375 C161.11425887 337.24327148 159.96971995 338.27451501 158.82421875 339.3046875 C158.26879395 339.81515625 157.71336914 340.325625 157.14111328 340.8515625 C155.0637568 342.73196725 152.89577029 344.47702085 150.6953125 346.2109375 C149.91671875 346.82839844 149.138125 347.44585937 148.3359375 348.08203125 C146.96695313 349.16677734 146.96695313 349.16677734 145.5703125 350.2734375 C142.86013263 352.43779779 140.15281228 354.60572607 137.4453125 356.7734375 C136.13025417 357.82557812 134.81515376 358.87766616 133.5 359.9296875 C132.53320312 360.703125 131.56640625 361.4765625 130.5703125 362.2734375 C131.18006519 365.37533469 132.17172264 367.4364311 134.01171875 369.99609375 C134.50945801 370.69484619 135.00719727 371.39359863 135.52001953 372.11352539 C136.05224121 372.84692139 136.58446289 373.58031738 137.1328125 374.3359375 C137.67276855 375.0880249 138.21272461 375.8401123 138.76904297 376.61499023 C139.85639495 378.12793327 140.94621072 379.63910886 142.03857422 381.1484375 C143.39820761 383.0346742 144.74061553 384.93126026 146.07421875 386.8359375 C146.77417969 387.8259375 147.47414063 388.8159375 148.1953125 389.8359375 C148.80632812 390.70347656 149.41734375 391.57101562 150.046875 392.46484375 C150.54960937 393.06167969 151.05234375 393.65851563 151.5703125 394.2734375 C152.2303125 394.2734375 152.8903125 394.2734375 153.5703125 394.2734375 C154.43641388 392.61469608 155.30223752 390.95580964 156.16796875 389.296875 C156.71928467 388.24097168 157.27060059 387.18506836 157.83862305 386.09716797 C159.04209912 383.78388684 160.2401194 381.46775974 161.43286133 379.14892578 C166.53520744 369.23719124 166.53520744 369.23719124 168.921875 365.3046875 C174.92848609 354.97842844 175.12153547 343.96581678 175.5703125 332.2734375 C170.36117547 330.91709616 167.922916 331.03923295 163.84228516 334.68920898 Z M63.5703125 333.2734375 C64.00096792 346.69800655 65.39895227 357.35696824 72.24902344 368.96826172 C75.02481736 373.81102709 77.51090621 378.81406706 80.0703125 383.7734375 C81.12079273 385.78469228 82.17274448 387.79517958 83.2265625 389.8046875 C83.67837891 390.66642578 84.13019531 391.52816406 84.59570312 392.41601562 C84.91732422 393.02896484 85.23894531 393.64191406 85.5703125 394.2734375 C88.64214884 392.95118044 90.24828688 391.75138894 92.0859375 388.96484375 C92.52905273 388.30516602 92.97216797 387.64548828 93.42871094 386.96582031 C93.88793945 386.26295898 94.34716797 385.56009766 94.8203125 384.8359375 C95.78740652 383.38301097 96.75616768 381.93119279 97.7265625 380.48046875 C98.44199219 379.40853271 98.44199219 379.40853271 99.171875 378.31494141 C101.72220917 374.59184532 104.51029278 371.05031289 107.3046875 367.5078125 C108.77995507 365.41311013 108.77995507 365.41311013 108.35009766 363.31616211 C107.41309104 360.86158028 106.41692093 359.96813235 104.359375 358.35546875 C103.69695801 357.82783936 103.03454102 357.30020996 102.35205078 356.7565918 C101.64032715 356.20527588 100.92860352 355.65395996 100.1953125 355.0859375 C98.72641139 353.92206569 97.25766186 352.75800254 95.7890625 351.59375 C95.0671875 351.02688477 94.3453125 350.46001953 93.6015625 349.87597656 C90.93588979 347.77291458 88.31479511 345.62125793 85.6953125 343.4609375 C84.84195313 342.76484375 83.98859375 342.06875 83.109375 341.3515625 C81.3258955 339.89185313 79.55053504 338.42219469 77.78125 336.9453125 C76.88664063 336.20796875 75.99203125 335.470625 75.0703125 334.7109375 C74.27625 334.04964844 73.4821875 333.38835937 72.6640625 332.70703125 C69.15587647 330.30497104 67.01364326 331.37366881 63.5703125 333.2734375 Z M118.5703125 376.2734375 C117.81105469 377.30984375 117.05179688 378.34625 116.26953125 379.4140625 C115.2656366 380.78386267 114.26172971 382.15365387 113.2578125 383.5234375 C112.50854492 384.54630859 112.50854492 384.54630859 111.74414062 385.58984375 C111.25751953 386.25371094 110.77089844 386.91757812 110.26953125 387.6015625 C109.56836182 388.56932617 109.56836182 388.56932617 108.85302734 389.55664062 C107.5703125 391.2734375 107.5703125 391.2734375 105.65234375 393.4453125 C104.34949933 395.2625947 104.34949933 395.2625947 104.69140625 397.66015625 C105.71079145 400.69112826 107.05733724 403.30371524 108.6328125 406.0859375 C109.6021875 407.7978125 110.5715625 409.5096875 111.5703125 411.2734375 C116.8503125 411.2734375 122.1303125 411.2734375 127.5703125 411.2734375 C129.33375 408.1796875 129.33375 408.1796875 131.1328125 405.0234375 C131.50736572 404.38116211 131.88191895 403.73888672 132.26782227 403.07714844 C134.10838133 399.89021075 134.10838133 399.89021075 134.32348633 396.32592773 C132.8554746 392.32541732 130.15147949 389.03434994 127.6953125 385.5859375 C127.15261719 384.80154297 126.60992187 384.01714844 126.05078125 383.20898438 C125.52355469 382.46326172 124.99632812 381.71753906 124.453125 380.94921875 C123.97246582 380.26770752 123.49180664 379.58619629 122.99658203 378.8840332 C121.56105438 376.99225107 121.56105438 376.99225107 118.5703125 376.2734375 Z M69.5703125 397.2734375 C70.5703125 399.2734375 70.5703125 399.2734375 70.5703125 399.2734375 Z M168.5703125 397.2734375 C169.5703125 399.2734375 169.5703125 399.2734375 169.5703125 399.2734375 Z " fill="#000000" transform="translate(136.4296875,17.7265625)"/>
<path d="M0 0 C12.57016618 3.79788272 25.19580807 1.77978273 37.37890625 -2.28125 C40.09311374 -2.61505374 42.66956219 -2.68200714 45.37890625 -2.28125 C48.08306426 -0.08412161 48.3238337 1.27816961 48.75390625 4.71875 C48.31799413 8.20604698 47.8153164 9.22327536 45.37890625 11.71875 C42.91051549 12.78236553 40.62011896 13.63442818 38.06640625 14.40625 C37.41478516 14.61830078 36.76316406 14.83035156 36.09179688 15.04882812 C20.25843132 20.07302921 2.19867847 19.0875902 -12.94921875 12.20703125 C-15.62109375 10.71875 -15.62109375 10.71875 -17.62109375 8.71875 C-18.18942934 1.55772158 -18.18942934 1.55772158 -16.30859375 -1.21875 C-10.73097724 -4.73058262 -5.67127157 -2.02907748 0 0 Z " fill="#000000" transform="translate(240.62109375,247.28125)"/>
<path d="M0 0 C2 2 2 2 2.3125 5.9375 C2.22787031 8.39176089 2.10592691 9.78814617 1 12 C-2.25355596 13.62677798 -5.48509114 13.51749136 -9 13 C-11.01652194 12.0337499 -13.01679982 11.03291676 -15 10 C-21.45265252 8.51906336 -25.95587811 9.32841877 -32 12 C-32.33 12.33 -32.66 12.66 -33 13 C-36.49225533 13.26356644 -39.17239929 13.3395285 -42.4375 12 C-44.44676147 9.42814532 -44.68341735 7.22284331 -44.51171875 3.99609375 C-43.78696566 1.16900345 -42.12774861 -0.33013803 -39.77734375 -1.97265625 C-26.87225798 -9.43207945 -11.90421894 -8.90675374 0 0 Z " fill="#000000" transform="translate(238,163)"/>
<path d="M0 0 C2.18213631 3.5707685 1.83599435 6.10105089 1.375 10.25 C0.375 12.25 0.375 12.25 -1.625 13.25 C-7.514005 13.82924639 -10.36580659 12.98916323 -15.625 10.25 C-22.07765252 8.76906336 -26.58087811 9.57841877 -32.625 12.25 C-32.955 12.58 -33.285 12.91 -33.625 13.25 C-37.44511276 13.610388 -39.78184085 13.79048663 -43.0625 11.6875 C-45.27274651 8.23951544 -45.33001923 6.26860959 -44.625 2.25 C-33.33607429 -10.16781829 -13.07268308 -8.71512206 0 0 Z " fill="#000000" transform="translate(316.625,162.75)"/>
<path d="M0 0 C2.8100346 1.79363911 4.50940468 3.01880935 6 6 C6.36206054 10.41713859 6.51432609 12.94898583 4.5625 16.9375 C0.92253118 19.867231 -2.37396842 20.4321898 -7 20 C-12.39759036 17.20481928 -12.39759036 17.20481928 -14 14 C-14.5811138 6.91041162 -14.5811138 6.91041162 -12.125 3.0625 C-8.49059499 -0.46501074 -4.90782663 -0.7051475 0 0 Z " fill="#000000" transform="translate(299,183)"/>
<path d="M0 0 C2.8100346 1.79363911 4.50940468 3.01880935 6 6 C6.3751455 10.97067782 6.15878799 14.05151502 3 18 C-0.77368427 20.35452096 -3.57836256 20.21608994 -7.87109375 19.59375 C-10 19 -10 19 -12.5625 16.9375 C-14.41894415 13.14389674 -14.85457596 10.14720686 -14 6 C-10.32759145 0.24655994 -6.71744997 -0.96515086 0 0 Z " fill="#000000" transform="translate(221,183)"/>
</svg>
