<?xml version="1.0" encoding="UTF-8"?>
<svg version="1.1" xmlns="http://www.w3.org/2000/svg" width="512" height="512">
<path d="M0 0 C35.98431889 28.52415522 55.40352994 75.88701373 60.89482117 120.614151 C61.00429581 121.57421555 61.11377045 122.53428009 61.2265625 123.5234375 C61.34993484 124.60318344 61.47330719 125.68292938 61.60041809 126.7953949 C63.53788643 144.6291647 64.72924839 162.5395584 66.02954102 180.4284668 C66.42161581 185.82092762 66.8242753 191.21253902 67.22987652 196.60399723 C67.54579071 200.82056873 67.85575621 205.03756229 68.16404152 209.2546978 C68.31006769 211.24199689 68.45793121 213.22916201 68.60782433 215.21617317 C71.9567172 259.78580768 71.9567172 259.78580768 58.66796875 276.51171875 C56.45715332 279.0313704 54.17608536 281.43629764 51.8125 283.8125 C51.29429687 284.36550781 50.77609375 284.91851562 50.2421875 285.48828125 C44.33098431 291.22926655 36.17122515 294.33190251 28.8125 297.8125 C29.68237549 298.01818604 30.55225098 298.22387207 31.44848633 298.43579102 C91.67162814 312.78448462 91.67162814 312.78448462 105.125 333.5 C125.810801 374.39053686 111.8125 424.98741552 111.8125 470.8125 C-12.9275 470.8125 -137.6675 470.8125 -266.1875 470.8125 C-266.1875 339.65178571 -266.1875 339.65178571 -254 326.44140625 C-234.87509638 308.26661803 -207.97852547 303.67445129 -183.1875 297.8125 C-184.20328125 297.36261719 -185.2190625 296.91273438 -186.265625 296.44921875 C-203.69923763 288.42648322 -215.4361765 277.19023073 -222.2421875 258.890625 C-226.89495074 243.74030503 -223.77572281 225.96995888 -222.578125 210.44140625 C-222.40803473 208.18922735 -222.23826204 205.93702445 -222.06878662 203.68479919 C-221.71295636 198.97534157 -221.35266373 194.26625194 -220.98925781 189.55737305 C-220.62246092 184.8000012 -220.26172563 180.04223953 -219.90722656 175.28393555 C-216.51820333 129.7970209 -216.51820333 129.7970209 -214.09375 109.875 C-213.94246643 108.6287233 -213.79118286 107.38244659 -213.63531494 106.09840393 C-209.14211496 71.15611212 -199.84589712 29.03044385 -171.8125 4.875 C-156.45748248 -6.97556907 -138.51348365 -12.07216239 -119.1875 -10.1875 C-111.09667126 -9.01356806 -103.12478653 -7.27889332 -95.4375 -4.48828125 C-90.43217238 -2.7945538 -87.90755812 -3.34080472 -83.1640625 -5.67578125 C-82.05804688 -6.27777344 -80.95203125 -6.87976563 -79.8125 -7.5 C-53.17674609 -21.14167867 -23.89742422 -17.14174551 0 0 Z " fill="#010100" transform="translate(333.1875,28.1875)"/>
<path d="M0 0 C32.10975038 24.54056753 50.08135183 67.04131908 55.55664062 106.24707031 C56.45558419 113.01029799 57.0616094 119.80102487 57.67236328 126.59521484 C57.76882959 127.65975073 57.76882959 127.65975073 57.86724472 128.74579239 C59.37275104 145.42706346 60.56360797 162.12878782 61.71990967 178.83728027 C62.14770039 185.0090578 62.58153557 191.18041332 63.01542282 197.35176468 C63.16341816 199.46468151 63.30972509 201.57770944 63.45571899 203.69076538 C63.91489122 210.2679686 64.41199423 216.83534074 65.04940796 223.39785767 C66.11385561 235.68044574 63.77328687 245.77516348 56.25439453 255.76318359 C46.55074917 266.64462649 33.99842307 271.9994178 19.57707214 272.93730164 C16.9007701 272.99156823 14.23182881 272.98900376 11.55517578 272.95849609 C10.11358345 272.95425125 10.11358345 272.95425125 8.64286804 272.94992065 C5.61740886 272.93885673 2.592262 272.91377933 -0.43310547 272.88818359 C-2.50276261 272.87813593 -4.57242445 272.86901323 -6.64208984 272.86083984 C-11.6767127 272.83896282 -16.71110641 272.8045308 -21.74560547 272.76318359 C-22.80516929 262.53965413 -22.80516929 262.53965413 -20.46826172 258.62158203 C-18.65696058 256.79077141 -16.78316459 255.212792 -14.74560547 253.63818359 C-13.35349442 252.45155918 -11.96544094 251.26015759 -10.58154297 250.06396484 C-9.91348633 249.49887207 -9.24542969 248.9337793 -8.55712891 248.3515625 C2.00088579 239.09409031 9.22744427 225.30782992 14.12939453 212.32568359 C14.40340088 211.61226807 14.67740723 210.89885254 14.9597168 210.16381836 C19.98932615 196.04252296 20.79001342 181.872509 20.75537109 167.03198242 C20.75438309 164.04105799 20.79649994 161.05257805 20.84033203 158.06201172 C20.84552954 156.14600137 20.84822738 154.22998224 20.84814453 152.31396484 C20.87273743 150.98429436 20.87273743 150.98429436 20.89782715 149.62776184 C20.84919462 145.29575633 20.72296318 143.36972504 18.00415039 139.8503418 C15.60154452 138.02668224 13.26445674 136.34290814 10.66455078 134.81787109 C9.80466553 134.30401855 8.94478027 133.79016602 8.05883789 133.26074219 C7.15399658 132.72529785 6.24915527 132.18985352 5.31689453 131.63818359 C-3.58040174 126.24453741 -11.85273818 120.53764834 -19.74560547 113.76318359 C-20.27476562 113.31233398 -20.80392578 112.86148438 -21.34912109 112.39697266 C-40.62618258 95.81493381 -51.19494807 75.75929604 -58.66748047 51.74755859 C-59.53181375 48.69378153 -59.53181375 48.69378153 -61.74560547 46.76318359 C-79.83595902 44.750544 -96.58733662 52.00491928 -110.55810547 63.13818359 C-112.30730183 64.65708635 -114.03702548 66.19873229 -115.74560547 67.76318359 C-116.58607422 68.52244141 -117.42654297 69.28169922 -118.29248047 70.06396484 C-136.51517672 87.3528894 -151.32084465 113.99283254 -152.02026367 139.50976562 C-152.03998539 141.59676743 -152.04818548 143.68390188 -152.04638672 145.77099609 C-152.05281441 147.45743729 -152.05281441 147.45743729 -152.05937195 149.177948 C-152.06508572 151.54619681 -152.06563745 153.91446315 -152.0612793 156.28271484 C-152.0581327 159.85724778 -152.0815708 163.43094093 -152.10693359 167.00537109 C-152.15035742 182.36134763 -151.44645519 196.83587127 -146.05810547 211.38818359 C-145.80319336 212.08782227 -145.54828125 212.78746094 -145.28564453 213.50830078 C-139.01189758 230.03591373 -127.22211224 248.39014059 -112.18310547 258.07568359 C-109.16757783 261.40049612 -109.47909454 262.56059863 -109.59326172 266.93115234 C-109.61525635 268.02065186 -109.63725098 269.11015137 -109.65991211 270.23266602 C-109.68819092 271.06773682 -109.71646973 271.90280762 -109.74560547 272.76318359 C-116.20095078 272.86558397 -122.65608257 272.93506329 -129.11206055 272.98291016 C-131.30289537 273.00288101 -133.4936779 273.03006738 -135.68432617 273.06494141 C-152.37035711 273.32369856 -165.65087196 272.66691669 -179.74560547 262.76318359 C-180.38111328 262.32361328 -181.01662109 261.88404297 -181.67138672 261.43115234 C-188.82223529 255.92927994 -193.98878647 247.60031171 -195.74560547 238.76318359 C-196.09199662 235.18890911 -196.11402025 231.63774515 -196.10498047 228.04833984 C-196.10254333 226.90736343 -196.1001062 225.76638702 -196.09759521 224.59083557 C-195.85146772 205.40806426 -194.07370464 186.26162291 -192.54736328 167.14819336 C-192.08532391 161.36170997 -191.6416707 155.57398573 -191.20288372 149.78569889 C-187.64717494 103.06087328 -187.64717494 103.06087328 -183.74560547 82.76318359 C-183.55211517 81.75011139 -183.35862488 80.73703918 -183.15927124 79.69326782 C-177.65279767 51.21174653 -169.10260534 20.02157981 -144.74560547 1.76318359 C-131.39126376 -6.50475482 -114.72571978 -7.60499958 -99.55419922 -4.22119141 C-93.8793715 -2.75097275 -88.44646245 -1.01858813 -83.11669922 1.43115234 C-79.52374931 2.85084634 -77.55304405 3.33602779 -73.74560547 2.76318359 C-71.20668779 1.42961067 -68.93101916 0.08979689 -66.55810547 -1.48681641 C-45.28010811 -14.95430227 -20.80450451 -14.74064613 0 0 Z " fill="#7B6258" transform="translate(321.74560546875,40.23681640625)"/>
<path d="M0 0 C1.16405012 2.35320105 1.93567383 4.38929861 2.6875 6.875 C14.56677131 41.71610606 39.75886039 63.90166561 70.25512695 82.85595703 C70.83093506 83.23349121 71.40674316 83.61102539 72 84 C72.72147217 84.37535889 73.44294434 84.75071777 74.1862793 85.13745117 C76.99853271 88.02541473 76.57159658 91.22838551 76.53125 95.04296875 C76.5350769 95.84422684 76.53890381 96.64548492 76.54284668 97.47102356 C76.54557133 99.17494963 76.53817145 100.87891713 76.52148438 102.58276367 C76.50044407 105.1336614 76.52107176 107.68162284 76.546875 110.23242188 C76.5910177 136.38752815 66.82525285 159.47736312 48.6953125 178.40625 C36.38112695 190.19556862 21.58955325 196.93181604 4.4375 197.5 C-15.04571307 196.88924097 -30.5905124 187.08832652 -43.6875 173.25 C-62.19103482 151.87180888 -66.21722848 129.43619325 -66.35009766 102.33447266 C-66.36657968 99.87929759 -66.39376549 97.42416894 -66.43212891 94.96923828 C-66.65669374 80.48578293 -66.42522617 67.55513959 -61 54 C-60.65936523 53.13616699 -60.31873047 52.27233398 -59.96777344 51.38232422 C-59.11988912 49.40586739 -58.20115784 47.52068554 -57.1875 45.625 C-56.8469458 44.96983398 -56.5063916 44.31466797 -56.15551758 43.63964844 C-45.42032946 23.50715953 -28.69404969 6.86307792 -6.9375 -0.71875 C-4.18750558 -1.11794274 -2.5980138 -1.06606705 0 0 Z " fill="#FEDCAA" transform="translate(251,103)"/>
<path d="M0 0 C46.66695301 8.58671935 46.66695301 8.58671935 60 26 C63.09447956 31.46721462 65.12818923 36.961371 65.12025452 43.27740479 C65.12231651 44.54777588 65.12231651 44.54777588 65.12442017 45.84381104 C65.11902725 47.22485016 65.11902725 47.22485016 65.11352539 48.63378906 C65.11367142 49.60973022 65.11381744 50.58567139 65.1139679 51.59118652 C65.1132714 54.81602198 65.10549126 58.04079963 65.09765625 61.265625 C65.09579114 63.50193246 65.09436767 65.73824033 65.09336853 67.97454834 C65.08955071 73.85999683 65.07972666 79.74542064 65.06866455 85.63085938 C65.056636 92.69269297 65.05204469 99.75453482 65.04621124 106.81637573 C65.03651454 117.54426766 65.01735281 128.27210542 65 139 C34.97 139 4.94 139 -26 139 C-23.75170893 132.25512679 -23.75170893 132.25512679 -22.109375 129.20703125 C-21.73611084 128.50739258 -21.36284668 127.80775391 -20.97827148 127.08691406 C-20.57294189 126.33635742 -20.1676123 125.58580078 -19.75 124.8125 C-18.86016075 123.13699287 -17.97087212 121.46119323 -17.08203125 119.78515625 C-15.44952087 116.71858906 -13.81470434 113.65328418 -12.17724609 110.58935547 C-10.57086022 107.5805304 -8.97632427 104.56562496 -7.38757324 101.54745483 C-6.45261573 99.77859764 -5.50618029 98.01582265 -4.55957031 96.25317383 C-3.98174805 95.15384521 -3.40392578 94.0545166 -2.80859375 92.921875 C-2.29095459 91.94831055 -1.77331543 90.97474609 -1.23999023 89.97167969 C0.58760323 85.59178845 1.55149028 81.86544141 0.18310547 77.23681641 C-0.25114746 76.36718262 -0.68540039 75.49754883 -1.1328125 74.6015625 C-1.60976563 73.62703125 -2.08671875 72.6525 -2.578125 71.6484375 C-3.08859375 70.65070313 -3.5990625 69.65296875 -4.125 68.625 C-4.61226563 67.635 -5.09953125 66.645 -5.6015625 65.625 C-7.90141514 60.98859493 -10.29744844 56.50399238 -12.9921875 52.0859375 C-15.06311825 48.36929715 -15.06311825 48.36929715 -14.5546875 45.39453125 C-14.04164063 44.60433594 -13.52859375 43.81414062 -13 43 C-12.40445312 41.86949219 -11.80890625 40.73898437 -11.1953125 39.57421875 C-10.69366577 38.63872192 -10.69366577 38.63872192 -10.18188477 37.68432617 C-3.84031604 25.70287766 -0.57661243 13.60805328 0 0 Z " fill="#474767" transform="translate(364,344)"/>
<path d="M0 0 C0.09796875 1.00417969 0.1959375 2.00835937 0.296875 3.04296875 C1.70382687 16.37129603 4.98730576 27.78395487 11.35791016 39.62109375 C13.2065899 43.10342949 14 44.96733539 14 49 C13.07302767 51.11604302 12.04946932 53.19050872 10.97265625 55.234375 C10.33899151 56.46083357 9.70553463 57.68739955 9.07226562 58.9140625 C8.07129934 60.82938005 7.06645116 62.74252167 6.05688477 64.65332031 C5.08063012 66.50832422 4.11984875 68.37076156 3.16015625 70.234375 C2.57886963 71.34006836 1.99758301 72.44576172 1.39868164 73.58496094 C-0.52851334 78.29042496 -1.85961723 82.28073004 -0.30305481 87.2046814 C0.79054652 89.65781886 2.00379812 92.0028207 3.28515625 94.36328125 C3.96510902 95.67222603 3.96510902 95.67222603 4.65879822 97.00761414 C6.10796522 99.78621472 7.58463606 102.5490754 9.0625 105.3125 C10.02982776 107.15724313 10.99534071 109.0029391 11.95898438 110.84960938 C16.22529869 118.99956421 20.54714302 127.11589393 25.07202148 135.12573242 C26 137 26 137 26 139 C-4.03 139 -34.06 139 -65 139 C-65.16043524 114.48460443 -65.16043524 114.48460443 -65.1953125 103.99023438 C-65.21917266 96.844849 -65.24732173 89.69966975 -65.30175781 82.55444336 C-65.34539509 76.79022279 -65.36917497 71.02622343 -65.37950897 65.26185036 C-65.38686828 63.06873915 -65.40123895 60.87563929 -65.42292023 58.68262291 C-65.67783856 31.81622552 -65.67783856 31.81622552 -56.0234375 21.8359375 C-42.67177394 9.72149373 -18.1070264 0 0 0 Z " fill="#474767" transform="translate(148,344)"/>
<path d="M0 0 C8.415 1.485 8.415 1.485 17 3 C20.83068713 3.2313337 24.44208287 3.38998564 28.25 3.3125 C29.17675537 3.30412109 30.10351074 3.29574219 31.05834961 3.28710938 C37.31062093 3.17796612 43.29731777 2.63797319 49.44140625 1.4375 C52 1 52 1 57 1 C57 39.94 57 78.88 57 119 C38.19 119 19.38 119 0 119 C0 79.73 0 40.46 0 0 Z " fill="#E7E5E5" transform="translate(227,364)"/>
<path d="M0 0 C0 51.15 0 102.3 0 155 C-6.6 155 -13.2 155 -20 155 C-33.2416179 129.87987193 -33.2416179 129.87987193 -39.20703125 118.359375 C-40.89684729 115.09810474 -42.61523668 111.85819945 -44.38671875 108.640625 C-44.89972534 107.68506714 -44.89972534 107.68506714 -45.4230957 106.71020508 C-46.2984286 105.08009681 -47.1913632 103.45947256 -48.0859375 101.83984375 C-49.52277005 97.37583834 -47.55561886 94.16339036 -45.59545898 90.05908203 C-45.06766846 89.05216309 -44.53987793 88.04524414 -43.99609375 87.0078125 C-43.42052734 85.89019531 -42.84496094 84.77257812 -42.25195312 83.62109375 C-41.04467868 81.2949137 -39.83115265 78.97196729 -38.61132812 76.65234375 C-34.14794698 68.23965385 -34.14794698 68.23965385 -33 59 C-34.28466408 56.43363189 -35.42517862 54.54974562 -37.125 52.3125 C-44.76053267 41.42979107 -49.33780053 29.43453206 -48 16 C-46.26350019 10.11574637 -43.06397659 6.47527806 -38 3 C-31 0 -31 0 0 0 Z " fill="#5F5F7A" transform="translate(212,328)"/>
<path d="M0 0 C33.45714286 0 33.45714286 0 41.3125 5.1875 C45.94850796 10.03913624 48.204162 14.41280984 48.5 21.1875 C48.01845874 32.80869577 43.14448593 46.72506181 35.125 55.3125 C32.32039837 58.85949618 32.58202183 60.5389861 33 65 C34.09174693 67.64623399 35.1976191 69.98735362 36.5703125 72.47265625 C37.30884619 73.880727 38.04711972 75.28893423 38.78515625 76.69726562 C39.95540622 78.88834576 41.13213746 81.07568102 42.31494141 83.26000977 C43.45885708 85.38479861 44.5779079 87.5213379 45.6953125 89.66015625 C46.05561554 90.30719009 46.41591858 90.95422394 46.78713989 91.62086487 C48.42753999 94.78215188 49.09059963 96.54374808 48.38818359 100.08105469 C47.93008301 101.04430664 47.47198242 102.00755859 47 103 C46.55333984 103.97348389 46.10667969 104.94696777 45.64648438 105.94995117 C45.13408203 106.97064697 44.62167969 107.99134277 44.09375 109.04296875 C43.51923096 110.19079834 42.94471191 111.33862793 42.3527832 112.52124023 C41.73543995 113.74345371 41.11784059 114.96553786 40.5 116.1875 C39.86861673 117.44273087 39.23735132 118.69802104 38.60620117 119.95336914 C25.92936798 145.11772004 25.92936798 145.11772004 20 155 C13.4 155 6.8 155 0 155 C0 103.85 0 52.7 0 0 Z " fill="#5F5F7A" transform="translate(300,328)"/>
<path d="M0 0 C3.56439723 0.71287945 6.97469463 1.53934171 10.46679688 2.51147461 C26.7107086 6.91379314 40.99662693 4.5723923 57 0 C57 12.54 57 25.08 57 38 C38.00729745 43.17982797 18.92488515 44.30829505 0 38 C0 25.46 0 12.92 0 0 Z " fill="#FBDAA8" transform="translate(227,310)"/>
</svg>
