<?xml version="1.0" encoding="UTF-8"?>
<svg version="1.1" xmlns="http://www.w3.org/2000/svg" width="512" height="512">
<path d="M0 0 C0.61359375 0.54785156 1.2271875 1.09570312 1.859375 1.66015625 C5.38079483 3.86425662 9.30441654 3.91003948 13.375 4.375 C31.2798672 6.75897537 45.07143522 13.27862375 58 26 C58.763125 26.75023437 59.52625 27.50046875 60.3125 28.2734375 C85.05445437 54.13221619 91.4494826 94.19022334 92.19140625 128.578125 C92.21557617 129.61074463 92.23974609 130.64336426 92.26464844 131.70727539 C92.29540611 133.62288234 92.29957609 135.53920066 92.27050781 137.45483398 C92.34157807 143.60413109 93.83151156 147.13055334 97.57739258 152.01538086 C101.80428683 157.91214136 101.75560865 166.04660138 101 173 C99.65338652 178.6722917 98.25123888 184.12314168 95 189 C95.34179765 194.4419547 96.98143672 199.17754355 98.8125 204.25 C107.88046736 230.35417566 112.11545524 261.22940688 100.44140625 287.15625 C94.79787228 298.29037664 88.17829946 306.37988931 77.73046875 313.23828125 C76.65563232 313.94637939 75.5807959 314.65447754 74.47338867 315.3840332 C73.65717041 315.91730225 72.84095215 316.45057129 72 317 C73.09989258 317.25168945 74.19978516 317.50337891 75.33300781 317.76269531 C79.42161584 318.70233861 83.50555825 319.66103649 87.58837891 320.62548828 C89.35442019 321.03986487 91.12167678 321.44909762 92.89013672 321.85302734 C95.43535717 322.43532342 97.97560012 323.03612003 100.515625 323.640625 C101.30430969 323.81684387 102.09299438 323.99306274 102.90557861 324.17462158 C107.29944454 325.24204308 110.20662672 326.19285812 113 330 C113.25 332.75 113.25 332.75 113 335 C113.87140625 335.2578125 114.7428125 335.515625 115.640625 335.78125 C119.04365758 337.01583856 121.72381333 338.52712692 124.75 340.5 C125.69359375 341.1084375 126.6371875 341.716875 127.609375 342.34375 C130 344 130 344 132 346 C133.093125 345.979375 134.18625 345.95875 135.3125 345.9375 C139.51514488 346.00873127 140.72810607 346.44399041 144 349 C145.69997608 351.45446191 146.97212375 354.05663005 148.25 356.75 C148.600625 357.4409375 148.95125 358.131875 149.3125 358.84375 C151.44091274 363.19880991 152.76365642 367.08526549 153 372 C151.1875 374.9375 151.1875 374.9375 149 377 C148.34 377 147.68 377 147 377 C147.33 377.66 147.66 378.32 148 379 C148.14755318 380.33868377 148.24930519 381.68263779 148.32421875 383.02734375 C148.38416016 383.81947266 148.44410156 384.61160156 148.50585938 385.42773438 C148.62657807 387.09572929 148.72827092 388.76521436 148.81054688 390.43554688 C149.00575662 392.76858765 149.22495864 394.78863291 150 397 C152.91466257 398.74121334 152.91466257 398.74121334 156 400 C158.41391971 405.25538735 158.7132963 410.96942454 159.2890625 416.65625 C159.39721283 417.67674438 159.50536316 418.69723877 159.61679077 419.74865723 C159.84341745 421.89997589 160.06679055 424.05163948 160.28710938 426.20361328 C160.6239184 429.48944814 160.97125794 432.77403948 161.3203125 436.05859375 C161.53968341 438.15358091 161.75845361 440.24863108 161.9765625 442.34375 C162.07965729 443.32202759 162.18275208 444.30030518 162.28897095 445.30822754 C163.57362721 457.94452594 163.57362721 457.94452594 161.4375 461.875 C159 464 159 464 155.5 464.5625 C152 464 152 464 149.5625 462.1875 C148 460 148 460 148 457 C118.96 457 89.92 457 60 457 C59.34 458.65 58.68 460.3 58 462 C56 464 56 464 52.625 464.375 C49 464 49 464 46.5625 462.1875 C45 460 45 460 45 457 C37.08 457 29.16 457 21 457 C20.67 458.65 20.34 460.3 20 462 C16.26744552 464.48836965 14.41559065 464.54226552 10 464 C7.5625 461.625 7.5625 461.625 6 459 C6 458.34 6 457.68 6 457 C-5.88 457 -17.76 457 -30 457 C-30.33 458.65 -30.66 460.3 -31 462 C-34.69486103 464.46324069 -36.63293092 464.38991688 -41 464 C-42.9375 462.75 -42.9375 462.75 -44 461 C-44 459.68 -44 458.36 -44 457 C-55.88 457 -67.76 457 -80 457 C-80.66 458.65 -81.32 460.3 -82 462 C-84 464 -84 464 -87.375 464.375 C-91 464 -91 464 -93.4375 462.1875 C-95 460 -95 460 -95 457 C-102.92 457 -110.84 457 -119 457 C-119.33 458.65 -119.66 460.3 -120 462 C-123.73255448 464.48836965 -125.58440935 464.54226552 -130 464 C-132.4375 461.625 -132.4375 461.625 -134 459 C-134 458.34 -134 457.68 -134 457 C-163.04 457 -192.08 457 -222 457 C-222.33 458.65 -222.66 460.3 -223 462 C-226.73255448 464.48836965 -228.58440935 464.54226552 -233 464 C-235.90047615 461.27294935 -236.94593049 459.77903447 -237.22419739 455.76976013 C-237.03551338 453.97611778 -237.03551338 453.97611778 -236.84301758 452.14624023 C-236.78051473 451.49103362 -236.71801188 450.83582701 -236.653615 450.16076565 C-236.52024996 448.78649493 -236.37726125 447.41312695 -236.22507095 446.04081345 C-235.87452807 442.86229303 -235.6001663 439.6767242 -235.30737305 436.49243164 C-235.04563828 433.88125083 -234.78107984 431.27054309 -234.51171875 428.66015625 C-234.44040049 427.96573362 -234.36908222 427.271311 -234.2956028 426.55584526 C-233.91826635 422.88656726 -233.53735041 419.21768102 -233.15356445 415.54907227 C-232.7640479 411.81798323 -232.38794319 408.08566798 -232.01477337 404.35291386 C-231.71962909 401.42709883 -231.41403244 398.50243759 -231.1058445 395.5779705 C-230.96288308 394.20442719 -230.8236674 392.83048733 -230.68872643 391.45613289 C-228.73369109 371.64267898 -224.44702624 352.81497436 -209 339 C-194.99482623 328.05845799 -178.47593089 324.69061569 -161.5 320.6875 C-159.98295166 320.32537741 -158.46602395 319.96274904 -156.94921875 319.59960938 C-153.30084201 318.72727653 -149.65091314 317.86166432 -146 317 C-146.89348145 316.38946777 -147.78696289 315.77893555 -148.70751953 315.14990234 C-149.89103725 314.33704032 -151.07446342 313.52404499 -152.2578125 312.7109375 C-152.8453833 312.3099585 -153.4329541 311.90897949 -154.03833008 311.49584961 C-168.05438361 301.84690329 -175.93236927 287.54787892 -179.8125 271.125 C-184.22640446 246.45757965 -179.72803736 219.72115609 -170.25 196.69921875 C-168.39686779 191.21510563 -169.81578357 188.13933277 -172 183 C-176.00021288 173.58773441 -176.02131668 164.24189285 -173.14453125 154.484375 C-172.08729395 152.18948448 -171.00343394 150.72082048 -169.4375 148.7734375 C-166.37530155 144.6105952 -166.22474332 140.92478606 -166.1875 135.875 C-166.16163818 135.03243652 -166.13577637 134.18987305 -166.10913086 133.32177734 C-165.98393206 128.75442044 -166.00270262 124.1935197 -166.0625 119.625 C-166.16550036 99.25667872 -162.6890331 78.91637426 -155.4375 59.875 C-155.01658081 58.76475464 -155.01658081 58.76475464 -154.5871582 57.63208008 C-152.98390267 53.67210873 -151.44593956 50.59945151 -148 48 C-144.25 47.75 -144.25 47.75 -141 48 C-140.75378906 47.29230469 -140.50757813 46.58460937 -140.25390625 45.85546875 C-138.83901388 42.63339299 -137.0502469 40.12310522 -134.9375 37.3125 C-132.24079956 33.79692983 -132.24079956 33.79692983 -130 30 C-130.33 29.34 -130.66 28.68 -131 28 C-131.5625 25.375 -131.5625 25.375 -131 22 C-118.50045738 4.40245662 -93.10736348 -5.18071248 -73 -10 C-71.99839844 -10.24492187 -70.99679688 -10.48984375 -69.96484375 -10.7421875 C-45.7047443 -15.50931337 -21.26940439 -12.419904 0 0 Z " fill="#020201" transform="translate(293,30)"/>
<path d="M0 0 C7.22157866 4.52626616 7.22157866 4.52626616 8.97265625 6.27734375 C10.41449297 6.18363948 11.85218591 6.02496432 13.28515625 5.83984375 C32.21214184 3.83899099 32.21214184 3.83899099 39.97265625 9.27734375 C46.22049685 14.66385653 48.28660989 21.58134535 50.63574219 29.18994141 C54.34150547 41.02062721 60.33407252 55.81619104 70 63.9921875 C72.77539151 66.41584623 74.7264698 68.40412347 75.22363281 72.18701172 C75.40633532 77.93184749 74.70570116 83.58958168 73.97265625 89.27734375 C73.88693359 90.03934082 73.80121094 90.80133789 73.71289062 91.58642578 C70.4599197 119.88851441 57.35798027 144.71924212 37.97265625 165.27734375 C37.37195313 165.9425 36.77125 166.60765625 36.15234375 167.29296875 C23.25608148 181.02665064 2.9037656 194.93831979 -16.40234375 195.65234375 C-41.45129519 194.74019706 -61.65443643 176.28375653 -78.15234375 159.08984375 C-97.46235057 137.30022128 -106.62848636 108.86537977 -109.02734375 80.27734375 C-109.11556396 79.46023926 -109.20378418 78.64313477 -109.29467773 77.80126953 C-109.44859134 75.49754565 -109.48180952 73.54139403 -109.02734375 71.27734375 C-106.640625 68.66796875 -106.640625 68.66796875 -103.33984375 66.52734375 C-102.13245017 65.68764132 -100.93078172 64.83965881 -99.734375 63.984375 C-98.8074585 63.32622803 -98.8074585 63.32622803 -97.86181641 62.65478516 C-84.70607183 52.77659632 -74.64332052 38.49871489 -65.77734375 24.83984375 C-51.79756167 3.56499867 -25.15991302 -14.31680212 0 0 Z " fill="#FACEA2" transform="translate(273.02734375,111.72265625)"/>
<path d="M0 0 C1.00947067 1.07451388 2.00956496 2.15791505 3 3.25 C6.67064608 6.67017847 10.67342377 6.42393784 15.4375 6.5 C28.35675883 6.71401386 39.78857813 10.94171719 50 19 C50.58652344 19.42539062 51.17304688 19.85078125 51.77734375 20.2890625 C72.49605429 36.35663394 80.47631141 66.91878979 83.75 91.5625 C85.22579947 103.37931542 85.32710852 115.11002454 85 127 C73.01877269 130.0576225 73.01877269 130.0576225 68.79296875 127.84375 C66.84401345 125.68940128 65.45355751 123.51854023 64 121 C63.33484375 119.93265625 62.6696875 118.8653125 61.984375 117.765625 C56.80156187 109.25649297 52.88727718 100.36982357 49.57421875 90.9765625 C45.385245 79.18133026 41.32196285 71.18277623 30 65 C24.20857821 62.34442123 18.99094629 61.92740565 12.7331543 62.26831055 C3.98268896 62.67498431 -1.33967271 61.45639308 -8.9296875 56.7578125 C-19.89032387 50.482639 -34.03727866 50.49261195 -46 53.5 C-68.60463989 60.71424677 -82.51481591 76.99413437 -95.0625 96.14453125 C-100.32943815 103.90689372 -106.54495454 110.72178485 -113.125 117.375 C-113.98569092 118.24970947 -113.98569092 118.24970947 -114.86376953 119.14208984 C-115.99422567 120.2641363 -117.14557887 121.3655427 -118.31738281 122.44433594 C-120.00724125 123.95714836 -120.00724125 123.95714836 -121.42480469 125.59472656 C-123.75777818 127.8338361 -125.55044219 128.99116037 -128.87164307 129.01141357 C-133.63671279 128.67437905 -138.30956777 127.88403104 -143 127 C-143.63814914 86.53152706 -143.63814914 86.53152706 -140 73 C-139.77473633 72.16033691 -139.54947266 71.32067383 -139.31738281 70.45556641 C-135.2864026 55.79386388 -135.2864026 55.79386388 -132.3359375 49.1171875 C-130.88283426 45.72661327 -130.51400864 43.64493517 -131 40 C-131.95593507 38.63472863 -132.95141609 37.29547272 -134 36 C-131.71565022 32.30027499 -129.3701541 28.645237 -127 25 C-126.39285156 23.97712891 -126.39285156 23.97712891 -125.7734375 22.93359375 C-124.6875 21.3125 -124.6875 21.3125 -122 19 C-119.890625 18.99609375 -119.890625 18.99609375 -117.4375 19.25 C-112.24782956 19.57913839 -110.16634977 17.95409555 -106.3125 14.5625 C-105.81806396 14.11269775 -105.32362793 13.66289551 -104.81420898 13.19946289 C-79.05758227 -10.05762711 -30.33413685 -20.68788133 0 0 Z " fill="#CB906D" transform="translate(285,42)"/>
<path d="M0 0 C6.40365631 0.66141051 12.50335528 1.96249954 18.75 3.5 C19.68199219 3.72558594 20.61398437 3.95117188 21.57421875 4.18359375 C28.03115843 5.74919318 28.03115843 5.74919318 31.15307617 6.55737305 C34.7294157 7.41446539 38.36429014 7.53020769 42 7 C44.12355567 5.17728073 44.12355567 5.17728073 45 3 C48.90729315 3.57911666 51.64683454 4.74296819 55 6.8125 C56.30904297 7.61494141 56.30904297 7.61494141 57.64453125 8.43359375 C60 10 60 10 62.6875 12.375 C65.84343045 14.59268086 68.21003152 14.06767801 72 14 C77.27721605 16.17643146 78.92649433 19.85276497 81.25 24.75 C81.600625 25.4409375 81.95125 26.131875 82.3125 26.84375 C84.44091274 31.19880991 85.76365642 35.08526549 86 40 C84.1875 42.9375 84.1875 42.9375 82 45 C81.34 45 80.68 45 80 45 C80.33 45.66 80.66 46.32 81 47 C81.14755318 48.33868377 81.24930519 49.68263779 81.32421875 51.02734375 C81.38416016 51.81947266 81.44410156 52.61160156 81.50585938 53.42773438 C81.62657807 55.09572929 81.72827092 56.76521436 81.81054688 58.43554688 C82.00575662 60.76858765 82.22495864 62.78863291 83 65 C85.91466257 66.74121334 85.91466257 66.74121334 89 68 C91.41391971 73.25538735 91.7132963 78.96942454 92.2890625 84.65625 C92.39721283 85.67674438 92.50536316 86.69723877 92.61679077 87.74865723 C92.84341745 89.89997589 93.06679055 92.05163948 93.28710938 94.20361328 C93.6239184 97.48944814 93.97125794 100.77403948 94.3203125 104.05859375 C94.53968341 106.15358091 94.75845361 108.24863108 94.9765625 110.34375 C95.07965729 111.32202759 95.18275208 112.30030518 95.28897095 113.30822754 C96.57362721 125.94452594 96.57362721 125.94452594 94.4375 129.875 C92 132 92 132 88.5 132.5625 C85 132 85 132 82.5625 130.1875 C81 128 81 128 81 125 C51.96 125 22.92 125 -7 125 C-5.64165779 118.20828897 -4.19903402 112.09835851 -1.91796875 105.65234375 C-1.62191238 104.79677383 -1.32585602 103.94120392 -1.02082825 103.05970764 C-0.08250818 100.35013026 0.86423373 97.64361091 1.8125 94.9375 C7.0780828 79.87986882 7.0780828 79.87986882 11.94921875 64.69140625 C12.16004593 64.02833969 12.37087311 63.36527313 12.58808899 62.68211365 C14.47964296 56.32598467 14.75840609 50.36642107 12.71484375 43.99609375 C12.43455322 43.10116211 12.1542627 42.20623047 11.86547852 41.28417969 C11.55924561 40.34477539 11.2530127 39.40537109 10.9375 38.4375 C10.29929845 36.41021313 9.66128342 34.38286754 9.0234375 32.35546875 C8.69182617 31.31567871 8.36021484 30.27588867 8.01855469 29.20458984 C6.33160482 23.8970865 4.69532394 18.57435228 3.0625 13.25 C2.60315063 11.77744751 2.60315063 11.77744751 2.13452148 10.27514648 C1.85423096 9.36450439 1.57394043 8.4538623 1.28515625 7.515625 C1.03644775 6.71415039 0.78773926 5.91267578 0.53149414 5.08691406 C0 3 0 3 0 0 Z " fill="#6D5963" transform="translate(360,362)"/>
<path d="M0 0 C-1.12538762 5.62693811 -2.56456311 11.1225327 -4.1875 16.625 C-4.50050049 17.68823486 -4.50050049 17.68823486 -4.81982422 18.77294922 C-6.12818999 23.1750252 -7.48953925 27.55764725 -8.8828125 31.93359375 C-9.3619812 33.45702393 -9.3619812 33.45702393 -9.85083008 35.01123047 C-10.4789646 37.00423002 -11.11642881 38.99431969 -11.7644043 40.98095703 C-12.05484619 41.90634277 -12.34528809 42.83172852 -12.64453125 43.78515625 C-12.90596924 44.59863525 -13.16740723 45.41211426 -13.43676758 46.25024414 C-15.27804236 55.239528 -12.55776191 62.40086 -9.66015625 70.87890625 C-9.21293295 72.21793317 -8.76694472 73.55737315 -8.3221283 74.89720154 C-7.15385577 78.40777168 -5.97243554 81.91375593 -4.78704834 85.4185791 C-2.8908618 91.0293489 -1.01091795 96.64551859 0.86148262 102.26426506 C1.51444929 104.21537666 2.1754565 106.16362392 2.83738708 108.11170959 C3.23772659 109.30662521 3.6380661 110.50154083 4.05053711 111.73266602 C4.40361435 112.77665054 4.75669159 113.82063507 5.12046814 114.89625549 C6 118 6 118 7 125 C-22.04 125 -51.08 125 -81 125 C-81 119.16708139 -80.90022881 114.0770291 -80.1953125 108.38671875 C-80.11190613 107.69879242 -80.02849976 107.01086609 -79.94256592 106.30209351 C-79.76554518 104.84549791 -79.58622761 103.38917979 -79.40472412 101.93313599 C-78.93050057 98.1260511 -78.47399753 94.31683266 -78.015625 90.5078125 C-77.9255014 89.76243729 -77.83537781 89.01706207 -77.74252319 88.24909973 C-77.05372442 82.52640095 -76.43197346 76.79962129 -75.875 71.0625 C-75.79822021 70.29502441 -75.72144043 69.52754883 -75.64233398 68.73681641 C-75.25658871 64.83738922 -74.91433674 60.93814645 -74.61328125 57.03125 C-73.3278873 41.37573252 -69.5411465 28.88479889 -57.8125 17.8125 C-48.98057031 10.85451801 -38.66561143 7.7401411 -27.875 5.25 C-26.67746094 4.95996094 -25.47992188 4.66992188 -24.24609375 4.37109375 C-6.02322346 0 -6.02322346 0 0 0 Z " fill="#6D5963" transform="translate(152,362)"/>
<path d="M0 0 C1.8253125 0.4640625 1.8253125 0.4640625 3.6875 0.9375 C9.73076221 2.29868206 15.82945928 2.63758803 22 3 C22.22026855 3.55236328 22.44053711 4.10472656 22.66748047 4.67382812 C30.91172956 25.13821611 44.03816213 53.76912262 65.125 64.0625 C66.81640625 65.22265625 66.81640625 65.22265625 68 67 C68.4070274 71.58049149 67.89016882 75.97847917 67.30566406 80.515625 C66.85099613 84.21107301 66.53320235 87.91703447 66.19897461 91.625 C65.82359476 95.75242584 65.41322043 99.87621651 65 104 C63.99453125 104.28488281 62.9890625 104.56976563 61.953125 104.86328125 C59.43133958 105.5811664 56.92777334 106.33126653 54.421875 107.10546875 C40.24408822 111.28339103 30.14765185 109.36638202 17 103 C3.59231075 95.19818881 -4.63408817 84.85266085 -9 70 C-13.23854505 47.93040056 -10.5540692 20.09463069 0 0 Z " fill="#CB8F6D" transform="translate(137,231)"/>
<path d="M0 0 C2.93642233 7.02815837 5.41559909 13.98884887 7.25 21.375 C7.41274414 22.02791016 7.57548828 22.68082031 7.74316406 23.35351562 C9.8583437 32.182482 10.21187062 40.64607166 10.25 49.6875 C10.270625 50.89083984 10.29125 52.09417969 10.3125 53.33398438 C10.38055628 69.08050676 6.40878937 82.18253458 -4.5703125 93.68359375 C-13.30371776 102.00981452 -26.70345678 109.3359612 -39.0078125 110.21484375 C-44.15136706 109.93803798 -48.88933103 108.80549302 -53.875 107.5625 C-54.83664062 107.33240234 -55.79828125 107.10230469 -56.7890625 106.86523438 C-63.85677083 105.14322917 -63.85677083 105.14322917 -65 104 C-65.30098414 101.78352485 -65.54026434 99.55862297 -65.75390625 97.33203125 C-65.85166603 96.32338264 -65.85166603 96.32338264 -65.95140076 95.2943573 C-66.08880083 93.86628308 -66.22399456 92.43799515 -66.35717773 91.00952148 C-66.56007364 88.83846291 -66.77066393 86.66825696 -66.98242188 84.49804688 C-68.24796904 71.24734432 -68.24796904 71.24734432 -68 67 C-66.12890625 64.98046875 -66.12890625 64.98046875 -63.5625 63.1875 C-43.34007163 48.11311598 -30.77838065 26.22492098 -22 3 C-21.13117188 2.95101562 -20.26234375 2.90203125 -19.3671875 2.8515625 C-18.21476562 2.77679688 -17.06234375 2.70203125 -15.875 2.625 C-14.73804688 2.55539063 -13.60109375 2.48578125 -12.4296875 2.4140625 C-8.09913525 1.89123956 -4.34314106 0 0 0 Z " fill="#CB906D" transform="translate(375,231)"/>
<path d="M0 0 C0.69029297 0.04793701 1.38058594 0.09587402 2.09179688 0.14526367 C2.88650391 0.20045166 3.68121094 0.25563965 4.5 0.3125 C7.03125 0.48828125 7.03125 0.48828125 10 1 C10.65395752 1.10022461 11.30791504 1.20044922 11.98168945 1.30371094 C14.40144412 1.89437522 15.98685233 2.51708919 18 4 C20.07872793 7.67831644 21.09836634 11.56009132 22.1875 15.625 C22.51717773 16.75131836 22.84685547 17.87763672 23.18652344 19.03808594 C24.15174606 22.35160727 25.07673421 25.67459539 26 29 C26.70102505 31.3942428 27.41497466 33.7842193 28.1315918 36.17382812 C28.73452406 38.19804288 29.31803705 40.22703989 29.8984375 42.2578125 C30.63060596 44.74510819 31.40664113 47.21992339 32.2265625 49.6796875 C32.60554688 50.81664062 32.98453125 51.95359375 33.375 53.125 C33.71273437 54.09695313 34.05046875 55.06890625 34.3984375 56.0703125 C35.54995051 61.67833042 33.84491827 66.96602961 32.08227539 72.29907227 C31.68839127 73.50044327 31.29450714 74.70181427 30.88868713 75.93959045 C30.45847035 77.23190462 30.02812356 78.52417551 29.59765625 79.81640625 C29.15496236 81.15949507 28.71278658 82.50275477 28.27110291 83.84617615 C27.11147931 87.36858155 25.94483198 90.88862091 24.77667236 94.40820312 C23.59225158 97.98100169 22.41459843 101.55602879 21.23632812 105.13085938 C18.17124901 114.42513124 15.09480721 123.71557838 12 133 C4.08 133 -3.84 133 -12 133 C-11.3009085 119.01180217 -10.22406792 105.08429673 -9.00390625 91.1328125 C-8.8082362 88.87801029 -8.61267664 86.62319849 -8.41722107 84.36837769 C-8.00983292 79.67705356 -7.60024284 74.98592792 -7.18920898 70.29492188 C-6.66518573 64.31091115 -6.14810034 58.32632316 -5.63281345 52.34155464 C-5.23201198 47.69820498 -4.82684302 43.05524389 -4.42045403 38.41238022 C-4.2280056 36.20630725 -4.03704304 34.0001041 -3.84765816 31.79376602 C-1.95365204 9.77179482 -1.95365204 9.77179482 0 0 Z " fill="#634F59" transform="translate(326,354)"/>
<path d="M0 0 C1.86596503 13.75632049 3.13193172 27.55535668 4.3828125 41.37890625 C4.60401232 43.80550936 4.82535893 46.2320991 5.04684448 48.65867615 C5.50745806 53.71215068 5.96609572 58.7657996 6.42333984 63.81958008 C7.00887875 70.28923304 7.59974616 76.75838676 8.19211006 83.22741795 C8.64903052 88.22435815 9.10298386 93.22156453 9.55605698 98.2188549 C9.77279464 100.60511873 9.99048959 102.99129582 10.2091713 105.37738228 C10.51374549 108.70517824 10.81427775 112.03331558 11.11376953 115.36157227 C11.20413483 116.33984985 11.29450012 117.31812744 11.38760376 118.3260498 C11.46885498 119.23810684 11.5501062 120.15016388 11.63381958 121.08985901 C11.70496538 121.87380319 11.77611118 122.65774736 11.84941292 123.46544743 C12.03793163 126.63843262 12 129.82141944 12 133 C4.08 133 -3.84 133 -12 133 C-15.7616069 121.76333643 -19.51371528 110.52367808 -23.24571228 99.27714539 C-24.91061718 94.2633827 -26.58648229 89.25371023 -28.2830658 84.25057983 C-28.94480527 82.29347324 -29.60001291 80.33433262 -30.25219727 78.37402344 C-31.02244817 76.05962175 -31.80359672 73.74880834 -32.59741211 71.44238281 C-35.80886844 61.68470248 -33.86476774 54.98794488 -30.875 45.4375 C-30.56731689 44.44041016 -30.25963379 43.44332031 -29.94262695 42.41601562 C-27.44601894 34.35287765 -24.89392621 26.30682408 -22.31005859 18.27124023 C-22.03629395 17.41860596 -21.7625293 16.56597168 -21.48046875 15.6875 C-21.22072266 14.88715332 -20.96097656 14.08680664 -20.69335938 13.26220703 C-20.05628543 11.18364113 -19.54548773 9.10613909 -19.04296875 6.9921875 C-18 4 -18 4 -16.1953125 2.6953125 C-15.51210937 2.50710938 -14.82890625 2.31890625 -14.125 2.125 C-13.44695312 1.92132813 -12.76890625 1.71765625 -12.0703125 1.5078125 C-11.38710937 1.34023438 -10.70390625 1.17265625 -10 1 C-9.37867188 0.81179688 -8.75734375 0.62359375 -8.1171875 0.4296875 C-5.39145374 -0.1235057 -2.77485365 -0.0259862 0 0 Z " fill="#634F59" transform="translate(186,354)"/>
<path d="M0 0 C1.05058594 0.54269531 2.10117188 1.08539063 3.18359375 1.64453125 C4.60139503 2.36751601 6.01937337 3.09015361 7.4375 3.8125 C8.12521484 4.16892578 8.81292969 4.52535156 9.52148438 4.89257812 C18.91236165 9.65353451 26.7268235 11.53875638 37.3125 11.4375 C38.42536377 11.42920166 39.53822754 11.42090332 40.68481445 11.41235352 C48.4478453 11.25208523 54.97939349 10.49519435 62 7 C63.27199176 6.39162664 64.54413817 5.78357656 65.81640625 5.17578125 C69.24487592 3.51207079 72.62826984 1.77564488 76 0 C76.6683571 4.59495505 77.261746 9.18951045 77.75976562 13.80615234 C77.98111154 15.82750841 78.23140468 17.84563897 78.484375 19.86328125 C79.12291561 28.45540861 79.12291561 28.45540861 76.1171875 32.58984375 C73.53372021 34.95869699 70.86442333 36.98224323 68 39 C66.45169178 40.24176397 64.90994871 41.49175973 63.375 42.75 C62.56417969 43.38679688 61.75335938 44.02359375 60.91796875 44.6796875 C58.58443139 46.53527143 56.28171337 48.41598777 53.98828125 50.3203125 C53.27945801 50.90586914 52.57063477 51.49142578 51.84033203 52.09472656 C50.42978833 53.26116847 49.02305445 54.43223641 47.62060547 55.60839844 C40.42241795 61.53631757 40.42241795 61.53631757 37 62 C34.53683149 60.55921944 32.69153386 59.21854158 30.5625 57.375 C29.95631836 56.87444092 29.35013672 56.37388184 28.72558594 55.8581543 C26.79964165 54.25824983 24.89822432 52.63265707 23 51 C21.77488447 49.95686107 20.54962662 48.91388925 19.32421875 47.87109375 C16.96989478 45.86062751 14.62549439 43.8392155 12.28515625 41.8125 C8.53598329 38.58041649 4.68083723 35.48914255 0.79296875 32.42578125 C-1 31 -1 31 -2 30 C-2.65539478 19.86424355 -1.45506579 10.00357732 0 0 Z " fill="#FAB681" transform="translate(218,308)"/>
<path d="M0 0 C2.42580369 3.03225461 4.76902808 6.00085347 7.0234375 9.14453125 C7.57 9.90443359 8.1165625 10.66433594 8.6796875 11.44726562 C9.23914063 12.22779297 9.79859375 13.00832031 10.375 13.8125 C12.03350656 16.12394664 13.69405434 18.43372021 15.36279297 20.73779297 C16.46276376 22.25767507 17.55545053 23.78285307 18.64111328 25.31298828 C19.1617334 26.03341309 19.68235352 26.75383789 20.21875 27.49609375 C20.67958984 28.14118896 21.14042969 28.78628418 21.61523438 29.45092773 C23.05232523 31.28960195 23.05232523 31.28960195 26.125 32.25 C29.00929316 32.26111255 29.00929316 32.26111255 30.8515625 30.5625 C33.89749626 26.92953174 36.01140931 22.9148199 38.25 18.75 C38.70890625 17.90953125 39.1678125 17.0690625 39.640625 16.203125 C40.76666925 14.13871055 41.88619714 12.07103686 43 10 C44.37397117 12.74794233 43.88849851 14.581066 43.57861328 17.63623047 C43.46164093 18.81861298 43.34466858 20.00099548 43.22415161 21.21920776 C43.0908847 22.50554108 42.9576178 23.79187439 42.8203125 25.1171875 C42.68621244 26.45316196 42.55266572 27.78919207 42.41964722 29.12527466 C42.06678347 32.65576819 41.70698595 36.18552079 41.34558105 39.71514893 C40.912112 43.9595234 40.4859927 48.20464016 40.05953789 52.4497242 C39.7265669 55.7638351 39.39192908 59.07774186 39.05374146 62.3913269 C38.86882645 64.21218307 38.86882645 64.21218307 38.68017578 66.06982422 C38.51909836 67.64629227 38.51909836 67.64629227 38.35476685 69.25460815 C37.85801431 74.49899023 37.43747163 79.75034049 37 85 C24.79 85 12.58 85 0 85 C0 56.95 0 28.9 0 0 Z " fill="#EBE9EB" transform="translate(263,402)"/>
<path d="M0 0 C0.33 0 0.66 0 1 0 C1 28.05 1 56.1 1 85 C-11.21 85 -23.42 85 -36 85 C-36.63228516 77.884375 -36.63228516 77.884375 -37.27734375 70.625 C-37.5460675 67.6080588 -37.81487539 64.59112556 -38.08398438 61.57421875 C-38.51050239 56.79255283 -38.93671973 52.01086152 -39.36108398 47.22900391 C-39.70348432 43.37096142 -40.04728521 39.51304601 -40.39203072 35.6552124 C-40.52288586 34.18817526 -40.6532483 32.72109408 -40.78309441 31.25396729 C-41.41175008 24.1542028 -42.04138913 17.06428595 -43 10 C-40.68177436 12.12877122 -39.24955619 14.13277228 -37.84375 16.94140625 C-37.46089844 17.68970703 -37.07804688 18.43800781 -36.68359375 19.20898438 C-35.89296293 20.78111331 -35.10390586 22.35403465 -34.31640625 23.92773438 C-33.93355469 24.67474609 -33.55070313 25.42175781 -33.15625 26.19140625 C-32.81400391 26.87404541 -32.47175781 27.55668457 -32.11914062 28.26000977 C-30.96182143 30.31414626 -30.96182143 30.31414626 -28 32 C-24.29634347 31.9112306 -22.57537599 31.56358989 -19.90234375 28.9453125 C-19.25394531 28.01460938 -18.60554688 27.08390625 -17.9375 26.125 C-17.18339844 25.06023437 -16.42929688 23.99546875 -15.65234375 22.8984375 C-14.76599395 21.6004819 -13.88211627 20.3008365 -13 19 C-11.8556529 17.32539498 -10.71110983 15.65092386 -9.56640625 13.9765625 C-7.78659785 11.37311548 -6.01156401 8.76722395 -4.25366211 6.14892578 C-3.71620361 5.35212402 -3.17874512 4.55532227 -2.625 3.734375 C-2.14289063 3.01475586 -1.66078125 2.29513672 -1.1640625 1.55371094 C-0.58785156 0.78462402 -0.58785156 0.78462402 0 0 Z " fill="#EBE9EB" transform="translate(248,402)"/>
<path d="M0 0 C0.495 0.495 0.495 0.495 1 1 C0.96110122 3.84858769 0.852669 6.65818824 0.6875 9.5 C0.65205078 10.27859375 0.61660156 11.0571875 0.58007812 11.859375 C0.51530273 13.02726562 0.51530273 13.02726562 0.44921875 14.21875 C0.41143311 14.91935547 0.37364746 15.61996094 0.3347168 16.34179688 C-0.62455935 23.96003078 -2.75510608 30.20285856 -6.3515625 36.97265625 C-6.77045746 37.78117538 -7.18935242 38.58969452 -7.62094116 39.42271423 C-8.94587315 41.97453294 -10.28511646 44.51850586 -11.625 47.0625 C-12.53221138 48.80353584 -13.43847071 50.54506813 -14.34375 52.28710938 C-16.5515411 56.53055513 -18.77218934 60.76703269 -21 65 C-21.66 65 -22.32 65 -23 65 C-24.73381096 62.70048352 -26.34721528 60.39659908 -27.9375 58 C-28.92167042 56.54152859 -29.90605194 55.08319963 -30.890625 53.625 C-31.39916016 52.86703125 -31.90769531 52.1090625 -32.43164062 51.328125 C-34.9885501 47.53256323 -37.58960427 43.76756848 -40.1875 40 C-41.11870123 38.64597886 -42.04971048 37.29182567 -42.98046875 35.9375 C-43.64691406 34.968125 -44.31335938 33.99875 -45 33 C-43.55774684 29.53100162 -41.84722592 27.8244143 -38.875 25.5625 C-37.98554688 24.87285156 -37.09609375 24.18320312 -36.1796875 23.47265625 C-35.42896973 22.89281982 -35.42896973 22.89281982 -34.66308594 22.30126953 C-32.10832944 20.30231883 -29.59760172 18.25030326 -27.08422852 16.19970703 C-25.6940597 15.06601191 -24.3013091 13.93547535 -22.90600586 12.80810547 C-19.89527834 10.37481199 -16.91720987 7.92797582 -13.99609375 5.38671875 C-6.32094511 -1.21039374 -6.32094511 -1.21039374 0 0 Z " fill="#D8D6D9" transform="translate(311,349)"/>
<path d="M0 0 C2.9339154 2.01261112 5.74641814 4.1548757 8.52734375 6.37109375 C9.14061523 6.85618408 9.75388672 7.34127441 10.38574219 7.84106445 C15.15170904 11.63317482 19.81550663 15.53721193 24.44580078 19.49316406 C29.23911814 23.58476705 34.13935969 27.533551 39.08984375 31.43359375 C37.78882251 34.99453127 36.24140415 37.89686344 34.04296875 40.98046875 C33.44484375 41.82609375 32.84671875 42.67171875 32.23046875 43.54296875 C31.6065625 44.414375 30.98265625 45.28578125 30.33984375 46.18359375 C29.11488473 47.90684119 27.89091908 49.63079521 26.66796875 51.35546875 C26.07048828 52.19400391 25.47300781 53.03253906 24.85742188 53.89648438 C22.59266886 57.14721826 20.45532094 60.47390694 18.34277344 63.82519531 C17.92930664 64.3559668 17.51583984 64.88673828 17.08984375 65.43359375 C16.42984375 65.43359375 15.76984375 65.43359375 15.08984375 65.43359375 C14.83928223 64.92723389 14.5887207 64.42087402 14.33056641 63.89916992 C13.56887169 62.36213562 12.80552515 60.82591938 12.04101562 59.2902832 C11.1441957 57.4852515 10.25239908 55.67771666 9.36523438 53.86791992 C7.15102621 49.38865134 4.88944866 45.01058549 2.26953125 40.75390625 C-5.42066535 27.99303802 -6.72548407 16.21642076 -6.91015625 1.43359375 C-2.14892578 -0.63720703 -2.14892578 -0.63720703 0 0 Z " fill="#D8D6D9" transform="translate(206.91015625,348.56640625)"/>
<path d="M0 0 C2.3662597 1.74363626 2.9510328 2.79931834 3.65576172 5.6875 C3.78740723 6.780625 3.91905273 7.87375 4.0546875 9 C4.2103418 10.25296875 4.36599609 11.5059375 4.52636719 12.796875 C4.68526851 14.19780093 4.8431035 15.59884812 5 17 C5.17584795 18.50523859 5.35196223 20.01044609 5.52832031 21.515625 C5.99080826 25.52003537 6.4300023 29.52663461 6.85986328 33.53466797 C7.12767626 36.0248848 7.40154955 38.51438899 7.67578125 41.00390625 C7.84932069 42.60673164 8.02251068 44.20959492 8.1953125 45.8125 C8.27653351 46.54694336 8.35775452 47.28138672 8.44143677 48.03808594 C9.59288936 58.90908358 9.59288936 58.90908358 7.4375 62.875 C5 65 5 65 1.5 65.5625 C-2.64539523 64.89627577 -3.52159226 64.32277921 -6 61 C-6.61071681 58.10691656 -6.99332644 55.5016494 -7.23046875 52.578125 C-7.35159782 51.34990021 -7.35159782 51.34990021 -7.47517395 50.09686279 C-7.72934728 47.48251739 -7.95892452 44.86669549 -8.1875 42.25 C-8.35185809 40.50505141 -8.51785677 38.76025653 -8.68554688 37.015625 C-8.92262324 34.54335999 -9.15737488 32.07113366 -9.37944031 29.59747314 C-9.70803374 25.93784243 -10.0740251 22.29174675 -10.53930664 18.64672852 C-10.96210717 15.29994974 -11.19753316 12.05849452 -11.25 8.6875 C-11.27578125 7.68074219 -11.3015625 6.67398437 -11.328125 5.63671875 C-11 3 -11 3 -9.671875 1.20703125 C-6.27701976 -1.24392732 -3.8643004 -1.15929012 0 0 Z " fill="#000000" transform="translate(447,429)"/>
<path d="M0 0 C1.48073112 0.6631846 2.95964838 1.33042322 4.4375 2 C16.07917256 6.47756637 32.20443756 5.93085051 43.59765625 0.875 C46.54931221 -0.20007469 48.88063703 -0.24423584 52 0 C54.4375 1.5625 54.4375 1.5625 56 4 C56.125 7.5 56.125 7.5 55 11 C42.66582876 20.60729004 25.8456465 20.07502957 11 19 C3.94081505 18.07115988 -3.82052903 16.235617 -9 11 C-10.25 7.4375 -10.25 7.4375 -10 4 C-7.27869178 -0.24524082 -4.83955301 -0.70393498 0 0 Z " fill="#050403" transform="translate(233,245)"/>
<path d="M0 0 C1.12208862 0.01027222 1.12208862 0.01027222 2.2668457 0.02075195 C8.10272081 0.1902113 12.69161929 1.17699353 17.625 4.4375 C18.25277344 4.81132812 18.88054687 5.18515625 19.52734375 5.5703125 C21.25 6.75 21.25 6.75 23.625 9.4375 C23.76031358 13.3615937 23.53555041 15.42939062 20.875 18.375 C18.06274873 19.70300755 16.713099 19.94021379 13.625 19.4375 C12.614375 18.7775 11.60375 18.1175 10.5625 17.4375 C5.60198621 14.40487148 0.24503454 14.65174284 -5.375 15.4375 C-7.59988515 16.33265413 -9.56169336 17.38999134 -11.62890625 18.59765625 C-13.375 19.4375 -13.375 19.4375 -16.6875 19.4375 C-19.85066871 18.26050699 -20.87105807 17.44538387 -22.375 14.4375 C-23 12.0625 -23 12.0625 -22.375 9.4375 C-16.37783697 2.43196443 -8.95559286 -0.12587981 0 0 Z " fill="#060504" transform="translate(216.375,156.5625)"/>
<path d="M0 0 C1.703125 1.1796875 1.703125 1.1796875 3.953125 3.8671875 C4.08843858 7.7912812 3.86367541 9.85907812 1.203125 12.8046875 C-1.60912627 14.13269505 -2.958776 14.36990129 -6.046875 13.8671875 C-7.0575 13.2071875 -8.068125 12.5471875 -9.109375 11.8671875 C-14.05369414 8.83784536 -19.44260579 9.06439314 -25.046875 9.8671875 C-27.12241632 10.74311103 -27.12241632 10.74311103 -28.859375 11.9296875 C-32.046875 13.8671875 -32.046875 13.8671875 -35.796875 13.8671875 C-39.046875 12.8671875 -39.046875 12.8671875 -40.984375 11.1171875 C-42.34813662 8.22922171 -42.79680117 7.01687741 -42.046875 3.8671875 C-31.43078345 -8.87212237 -13.35734353 -7.39242294 0 0 Z " fill="#060503" transform="translate(314.046875,162.1328125)"/>
<path d="M0 0 C4.43680469 0.0637243 6.9420553 1.34329872 10.3125 4.3125 C13.20024395 10.06807242 13.14358501 16.02833092 12.3125 22.3125 C9.93068202 28.47237409 6.4504959 33.5443842 0.3125 36.3125 C-2.69037887 36.87954609 -5.64051267 37.14276771 -8.6875 37.3125 C-7.99946252 29.25234329 -7.14197777 21.22023371 -6.1875 13.1875 C-5.99220703 11.4859375 -5.99220703 11.4859375 -5.79296875 9.75 C-5.66535156 8.67492187 -5.53773438 7.59984375 -5.40625 6.4921875 C-5.23512695 5.03401611 -5.23512695 5.03401611 -5.06054688 3.54638672 C-4.43920156 -0.17436568 -4.01637666 0.3403709 0 0 Z " fill="#F8B580" transform="translate(366.6875,182.6875)"/>
<path d="M0 0 C0.66 0.33 1.32 0.66 2 1 C2.4368727 4.03687205 2.75509544 7.00872425 3 10.0625 C3.16236666 11.88166257 3.32645488 13.70067224 3.4921875 15.51953125 C3.57436523 16.43557129 3.65654297 17.35161133 3.74121094 18.29541016 C4.12349768 22.29066729 4.61241009 26.26964779 5.125 30.25 C5.29257813 31.55453125 5.46015625 32.8590625 5.6328125 34.203125 C5.75398438 35.12609375 5.87515625 36.0490625 6 37 C-0.58711764 36.83569548 -5.31837866 35.83264138 -10 31 C-14.86104004 25.09291337 -15.68058665 19.49527731 -15.35546875 11.96484375 C-14.76789877 7.06412272 -13.53265335 4.27721112 -9.75 1.125 C-6.32298013 -0.27696267 -3.67072569 -0.2770359 0 0 Z " fill="#F8B580" transform="translate(148,183)"/>
<path d="M0 0 C5.22305221 5.57916941 9.01575757 13.684957 11 21 C10.71715075 24.09273328 10.47673684 26.24725761 8.8125 28.875 C6.08827656 30.56589731 4.14066901 30.38457172 1 30 C-2.88822504 27.78348783 -3.96628266 25.30677462 -5.5 21.1875 C-6.8560736 17.68781936 -8.07530945 14.59873779 -10.375 11.625 C-12 9 -12 9 -11.875 5.8125 C-11 3 -11 3 -9 0 C-5.23527391 -1.2549087 -3.76573622 -1.32908337 0 0 Z " fill="#010101" transform="translate(435,377)"/>
<path d="M0 0 C3.94875513 2.45865885 5.66872408 3.98776803 7.125 8.4375 C6.97177911 12.80429526 5.76736304 14.67916436 3 18 C-0.23415916 19.61707958 -3.50375265 19.56822376 -7 19 C-10.14249107 16.97047452 -11.63745366 15.53044369 -12.51171875 11.83984375 C-12.75802839 8.56118881 -12.73398271 6.08469117 -10.85546875 3.30859375 C-7.42328249 0.12997271 -4.53121574 -0.94400328 0 0 Z " fill="#060504" transform="translate(298,183)"/>
<path d="M0 0 C4.27876075 2.45632562 4.27876075 2.45632562 6 5 C6.80921878 8.17374456 6.75359702 10.81878511 6 14 C4.00772296 17.05067422 2.66317126 18.59426669 -0.9375 19.47265625 C-4.88438331 19.7641874 -6.63943293 19.25316411 -9.9375 16.9375 C-12.44488346 13.3663781 -13.15331912 11.36959504 -13 7 C-9.83292036 1.4482957 -6.34307041 -0.73189274 0 0 Z " fill="#060504" transform="translate(220,183)"/>
</svg>
