<?xml version="1.0" encoding="UTF-8"?>
<svg version="1.1" xmlns="http://www.w3.org/2000/svg" width="512" height="512">
<path d="M0 0 C0.61359375 0.54785156 1.2271875 1.09570312 1.859375 1.66015625 C5.38079483 3.86425662 9.30441654 3.91003948 13.375 4.375 C31.2798672 6.75897537 45.07143522 13.27862375 58 26 C58.763125 26.75023437 59.52625 27.50046875 60.3125 28.2734375 C85.05445437 54.13221619 91.4494826 94.19022334 92.19140625 128.578125 C92.21557617 129.61074463 92.23974609 130.64336426 92.26464844 131.70727539 C92.29540611 133.62288234 92.29957609 135.53920066 92.27050781 137.45483398 C92.34157807 143.60413109 93.83151156 147.13055334 97.57739258 152.01538086 C101.80428683 157.91214136 101.75560865 166.04660138 101 173 C99.65338652 178.6722917 98.25123888 184.12314168 95 189 C95.34179765 194.4419547 96.98143672 199.17754355 98.8125 204.25 C107.88046736 230.35417566 112.11545524 261.22940688 100.44140625 287.15625 C94.79787228 298.29037664 88.17829946 306.37988931 77.73046875 313.23828125 C76.65563232 313.94637939 75.5807959 314.65447754 74.47338867 315.3840332 C73.65717041 315.91730225 72.84095215 316.45057129 72 317 C73.27004883 317.30180176 74.54009766 317.60360352 75.84863281 317.91455078 C80.61595202 319.05156776 85.37837693 320.20805947 90.13964844 321.37011719 C92.19047142 321.86785225 94.24254024 322.36048566 96.29589844 322.84765625 C116.53469319 327.65609434 133.98075541 333.75142649 146 352 C153.65063161 365.6358196 155.47762802 380.18359871 157.04296875 395.46484375 C157.21743365 397.11347301 157.39251982 398.76203662 157.56819153 400.41053772 C157.93179616 403.83805773 158.2901768 407.26606639 158.64428711 410.69458008 C159.09720589 415.07869477 159.55998675 419.46169666 160.02622509 423.8444128 C160.38663976 427.2370885 160.74360625 430.63011942 161.09935951 434.02328682 C161.26894808 435.64001934 161.43919528 437.25668293 161.6101284 438.87327385 C161.84773344 441.12865369 162.08111075 443.3844309 162.31323242 445.64038086 C162.44630295 446.92021347 162.57937347 448.20004608 162.71647644 449.5186615 C163.42496429 458.2180657 163.42496429 458.2180657 161.4375 461.875 C159 464 159 464 155.5 464.5625 C152 464 152 464 149.87890625 462.61816406 C146.97812086 458.57606134 146.91447615 454.41675832 146.4375 449.546875 C146.26154297 447.96456085 146.26154297 447.96456085 146.08203125 446.35028076 C145.70342451 442.90185049 145.35059988 439.45138154 145 436 C144.75228134 433.65940136 144.50357827 431.3189067 144.25390625 428.97851562 C143.35601 420.49214494 142.47699508 412.00380251 141.625 403.51269531 C141.25784753 399.86698598 140.87974314 396.22254153 140.5 392.578125 C140.39365234 391.49041809 140.28730469 390.40271118 140.17773438 389.28204346 C138.70483065 375.34625311 135.7584938 361.33989504 124.94140625 351.55078125 C109.32911127 339.07979311 87.03406623 337.12038288 68 333 C68.19014175 333.6064183 68.38028351 334.21283661 68.57618713 334.83763123 C70.55945252 341.17474946 72.51838415 347.51902861 74.46362305 353.86791992 C75.19183414 356.23343302 75.92613978 358.59707917 76.66674805 360.95874023 C77.73289691 364.36224303 78.77663364 367.77195389 79.81640625 371.18359375 C80.14967422 372.23083115 80.4829422 373.27806854 80.8263092 374.35704041 C84.48022807 386.52543856 81.11141232 395.62249593 77.23046875 407.359375 C76.74777431 408.83653979 76.26554871 410.31385785 75.7837677 411.7913208 C74.77663096 414.87275795 73.76302451 417.95197063 72.74487305 421.02978516 C71.44379287 424.96504537 70.16045755 428.90583354 68.88204479 432.84850693 C67.891868 435.89482461 66.89169612 438.93778909 65.8885746 441.97986603 C65.41132608 443.431607 64.93731021 444.88441501 64.46666527 446.33831024 C63.80724693 448.37067953 63.13429617 450.39807851 62.45776367 452.42480469 C62.07883469 453.57680359 61.6999057 454.72880249 61.30949402 455.91571045 C59.92175187 459.1843001 58.4732125 461.4560491 56 464 C52.03430012 464.63734462 49.96719488 464.61999672 46.5625 462.4375 C44.43003712 459.1108579 44.77260426 456.91700941 45 453 C45.79724121 449.77563477 45.79724121 449.77563477 46.92773438 446.44140625 C47.23497185 445.52039627 47.23497185 445.52039627 47.54841614 444.58078003 C47.99067852 443.25939476 48.43772135 441.93960149 48.88911438 440.62130737 C49.60482194 438.53014995 50.30711983 436.43489644 51.00622559 434.33813477 C52.74442137 429.13394193 54.505168 423.93744046 56.26519775 418.74060059 C57.75438483 414.3406159 59.23489746 409.93789301 60.70417786 405.53121948 C61.39369607 403.47493833 62.09564944 401.42318991 62.79821777 399.37133789 C63.22351866 398.10062994 63.648232 396.82972514 64.07226562 395.55859375 C64.44532837 394.45829834 64.81839111 393.35800293 65.20275879 392.22436523 C66.56183681 386.72770518 66.19237996 381.85980591 64.80102539 376.41943359 C64.53556412 375.37500092 64.27010284 374.33056824 63.99659729 373.25448608 C62.73044127 368.52750075 61.4321097 363.81077943 60.09790039 359.10253906 C59.40884255 356.62186586 58.74882139 354.13293979 58.1184082 351.63671875 C55.39345796 338.21569819 55.39345796 338.21569819 47.93280029 327.3770752 C43.11659187 324.98685723 38.32810352 324.26091524 33 324 C33.01701997 324.87356801 33.01701997 324.87356801 33.03438377 325.76478386 C33.10766964 332.57112876 32.65115836 339.24995673 32.02197266 346.02392578 C31.86585762 347.76248337 31.86585762 347.76248337 31.70658875 349.53616333 C31.36372031 353.33965001 31.01419737 357.14248836 30.6640625 360.9453125 C30.48325679 362.93002386 30.30245367 364.91473547 30.12197816 366.89947689 C29.55551836 373.12819309 28.98434201 379.35646427 28.41015625 385.58447266 C27.8196628 391.99025737 27.23710856 398.39672917 26.65844882 404.8035928 C26.15937773 410.32616343 25.65540475 415.84827194 25.1475395 421.37004077 C24.8451244 424.65855197 24.54505716 427.94724553 24.24861526 431.23630142 C23.91737211 434.90307186 23.57811035 438.56901653 23.23681641 442.23486328 C23.14114883 443.31247925 23.04548126 444.39009521 22.94691467 445.50036621 C22.4097923 451.17138178 21.77757584 456.5726743 20 462 C16.26744552 464.48836965 14.41559065 464.54226552 10 464 C6.99471789 461.218428 6.05012185 459.70105502 5.75561523 455.58178711 C5.85489546 454.24926747 5.97839084 452.9184148 6.12109375 451.58984375 C6.18219833 450.85612045 6.24330292 450.12239716 6.30625916 449.36643982 C6.51643451 446.90859877 6.75817264 444.45491412 7 442 C7.15954635 440.21777369 7.3172134 438.43537829 7.47314453 436.65283203 C8.06580098 429.97199758 8.70297602 423.29554184 9.34594727 416.61938477 C9.62134548 413.74792172 9.89102497 410.87596247 10.16015625 408.00390625 C10.28669334 406.71765099 10.28669334 406.71765099 10.41578674 405.40541077 C10.95748774 399.58852236 11.09393659 393.84062267 11 388 C10.44570313 389.05960937 9.89140625 390.11921875 9.3203125 391.2109375 C8.58873445 392.59905995 7.85695302 393.98707523 7.125 395.375 C6.76019531 396.07367188 6.39539063 396.77234375 6.01953125 397.4921875 C3.2265625 402.7734375 3.2265625 402.7734375 1 405 C-2.14743667 405.4721155 -3.99268135 405.73420935 -7 405 C-8.53198242 403.69506836 -8.53198242 403.69506836 -9.91796875 401.96484375 C-10.42859863 401.32925537 -10.93922852 400.69366699 -11.46533203 400.03881836 C-13.93414057 396.75898697 -16.2743213 393.40778683 -18.5625 390 C-19.4798361 388.64540468 -20.39780057 387.29123468 -21.31640625 385.9375 C-21.71287354 385.34839844 -22.10934082 384.75929688 -22.51782227 384.15234375 C-23.85656369 382.20829098 -25.21941101 380.28523796 -26.59263611 378.36547852 C-27.04332427 377.73521255 -27.49401243 377.10494659 -27.95835781 376.45558167 C-28.30209973 375.97523972 -28.64584166 375.49489777 -29 375 C-29.00364563 376.07075272 -29.00729126 377.14150543 -29.01104736 378.2447052 C-29.04795267 388.32451232 -29.10567613 398.40401266 -29.18390274 408.48358631 C-29.22344989 413.66590982 -29.25560276 418.84806157 -29.27099609 424.03051758 C-29.28611513 429.02981084 -29.32047558 434.02863211 -29.36830902 439.02771568 C-29.38317204 440.93708893 -29.39104382 442.84652955 -29.39188385 444.75596046 C-29.39424053 447.42611934 -29.42121379 450.09495993 -29.45410156 452.76489258 C-29.44655602 453.95495911 -29.44655602 453.95495911 -29.43885803 455.16906738 C-29.54067988 460.49509067 -29.54067988 460.49509067 -31.8114624 462.99125671 C-35.02043046 464.47033799 -37.51896277 464.37974952 -41 464 C-42.68782043 462.99125671 -42.68782043 462.99125671 -44 461 C-44.30972105 458.18368498 -44.43747197 455.58379037 -44.43237305 452.76489258 C-44.44766052 451.50602486 -44.44766052 451.50602486 -44.46325684 450.22172546 C-44.49346679 447.44592686 -44.50266491 444.67047288 -44.51171875 441.89453125 C-44.52855952 439.97066595 -44.54670894 438.0468117 -44.56611633 436.12297058 C-44.61368789 431.0579066 -44.64345094 425.99288739 -44.66955566 420.92767334 C-44.69932512 415.75963497 -44.74586782 410.59175098 -44.79101562 405.42382812 C-44.87713013 395.28263271 -44.94443915 385.1414056 -45 375 C-45.33929535 375.48126846 -45.6785907 375.96253693 -46.02816772 376.45838928 C-47.58879711 378.67168565 -49.14986449 380.88467276 -50.7109375 383.09765625 C-51.24452881 383.85453735 -51.77812012 384.61141846 -52.32788086 385.39123535 C-64.1559206 402.1559206 -64.1559206 402.1559206 -67 405 C-71.01407839 405.5301613 -73.17711446 405.56197061 -76.5625 403.25 C-80.37451427 398.89159702 -82.58467213 393.20416005 -85 388 C-85.16963469 395.66560297 -84.64271697 403.1700339 -83.90625 410.796875 C-83.79526978 411.98927795 -83.68428955 413.18168091 -83.56994629 414.41021729 C-83.2176379 418.19056677 -82.8593045 421.97030955 -82.5 425.75 C-82.14134628 429.54402683 -81.78406012 433.33816601 -81.43005371 437.13262939 C-81.21033974 439.48572217 -80.98788384 441.83856098 -80.7623291 444.19110107 C-80.66222534 445.25951233 -80.56212158 446.32792358 -80.45898438 447.42871094 C-80.37015991 448.36229431 -80.28133545 449.29587769 -80.18981934 450.25775146 C-79.63159952 458.32214312 -79.63159952 458.32214312 -81.5625 461.875 C-84 464 -84 464 -87.5 464.5625 C-91 464 -91 464 -93.12768555 462.6574707 C-96.1088017 458.42622161 -96.03784465 453.98936339 -96.45703125 448.91796875 C-96.62788994 447.11576118 -96.62788994 447.11576118 -96.80220032 445.27714539 C-97.06756275 442.47628775 -97.32080751 439.6746198 -97.56695557 436.87200928 C-98.04615993 431.43536607 -98.56137194 426.00226352 -99.07568359 420.56884766 C-100.09658392 409.74280388 -101.08825524 398.91423494 -102.0715332 388.0847168 C-102.58835064 382.39355036 -103.11101571 376.70293672 -103.63507366 371.01243305 C-104.04193273 366.58508945 -104.44508013 362.15741361 -104.84717751 357.72963524 C-105.03844855 355.62968325 -105.23100926 353.52984828 -105.42493248 351.43013954 C-105.69431234 348.50885833 -105.95850384 345.58715089 -106.22143555 342.6652832 C-106.30087906 341.81590683 -106.38032257 340.96653046 -106.46217346 340.09141541 C-106.93984304 334.70592502 -107.06753339 329.40696977 -107 324 C-115.415 325.98 -115.415 325.98 -124 328 C-124.35707031 329.36640625 -124.71414062 330.7328125 -125.08203125 332.140625 C-126.64494033 337.87772336 -128.37992631 343.55455094 -130.13671875 349.234375 C-130.71942463 351.12629482 -131.30210648 353.01822204 -131.88476562 354.91015625 C-132.78861157 357.84315975 -133.69534887 360.7751222 -134.6105957 363.70458984 C-135.5033226 366.56598564 -136.38353444 369.43098773 -137.26171875 372.296875 C-137.53666672 373.16681091 -137.81161469 374.03674683 -138.09489441 374.93304443 C-140.70502426 383.5248377 -140.10929377 389.72575524 -137.18359375 398.09765625 C-136.89135422 398.96141876 -136.59911469 399.82518127 -136.29801941 400.71511841 C-135.6748122 402.553373 -135.04688671 404.39003373 -134.41461182 406.22518921 C-133.43277289 409.07622646 -132.46420721 411.93145026 -131.49951172 414.78833008 C-130.23879268 418.52006562 -128.97437168 422.25049818 -127.70556641 425.97949219 C-125.64554619 432.03817476 -123.60705341 438.10276515 -121.625 444.1875 C-121.3458374 445.01451416 -121.0666748 445.84152832 -120.77905273 446.69360352 C-119.30385152 451.25256419 -118.59035529 455.14540454 -119 460 C-120.5625 462.4375 -120.5625 462.4375 -123 464 C-126.5 464.5625 -126.5 464.5625 -130 464 C-133.41276038 460.48962843 -134.9410795 457.03574386 -136.45776367 452.42480469 C-136.67132004 451.78504196 -136.8848764 451.14527924 -137.10490417 450.48612976 C-137.80319878 448.38471322 -138.48598279 446.27863543 -139.16796875 444.171875 C-139.65242683 442.69820329 -140.13757098 441.22475697 -140.62336731 439.75152588 C-141.6378182 436.66710188 -142.64474356 433.58035291 -143.64624023 430.49169922 C-144.92408284 426.5524203 -146.21913371 422.61906556 -147.51978588 418.6872673 C-148.52411443 415.64546609 -149.5197802 412.60088311 -150.5128727 409.55539703 C-150.98680001 408.10506182 -151.46320281 406.6555329 -151.94222069 405.20687103 C-156.18911223 392.33294797 -157.97766594 384.25963794 -153.81640625 371.18359375 C-153.31487282 369.53799217 -153.31487282 369.53799217 -152.8032074 367.85914612 C-151.73890498 364.3801259 -150.65114088 360.90897189 -149.5625 357.4375 C-148.83372119 355.07014275 -148.10649089 352.70230821 -147.38085938 350.33398438 C-145.60512503 344.55034485 -143.81010744 338.77296811 -142 333 C-147.37353715 334.19786856 -152.74443318 335.40677509 -158.11328125 336.62548828 C-159.93585617 337.03762996 -161.75908958 337.44687173 -163.58300781 337.85302734 C-188.02193194 343.28321348 -188.02193194 343.28321348 -206 360 C-212.02983352 371.02119572 -213.39439064 382.3385567 -214.63189697 394.62730789 C-214.8794964 397.08367003 -215.13395162 399.53923978 -215.39013672 401.99472046 C-216.02457221 408.08797214 -216.64849429 414.18228844 -217.27075195 420.27679443 C-217.7983869 425.44268371 -218.3310101 430.60800764 -218.8706665 435.77265549 C-219.12040599 438.18223769 -219.36279828 440.59248648 -219.60498047 443.00283813 C-219.7597083 444.48972495 -219.91479992 445.97657396 -220.0703125 447.46337891 C-220.20195801 448.75305573 -220.33360352 450.04273254 -220.46923828 451.37149048 C-221.01270931 455.08688619 -221.73354435 458.46328025 -223 462 C-226.73255448 464.48836965 -228.58440935 464.54226552 -233 464 C-235.90047615 461.27294935 -236.94593049 459.77903447 -237.22419739 455.76976013 C-237.03551338 453.97611778 -237.03551338 453.97611778 -236.84301758 452.14624023 C-236.78051473 451.49103362 -236.71801188 450.83582701 -236.653615 450.16076565 C-236.52024996 448.78649493 -236.37726125 447.41312695 -236.22507095 446.04081345 C-235.87452807 442.86229303 -235.6001663 439.6767242 -235.30737305 436.49243164 C-235.04563828 433.88125083 -234.78107984 431.27054309 -234.51171875 428.66015625 C-234.44040049 427.96573362 -234.36908222 427.271311 -234.2956028 426.55584526 C-233.91826635 422.88656726 -233.53735041 419.21768102 -233.15356445 415.54907227 C-232.7640479 411.81798323 -232.38794319 408.08566798 -232.01477337 404.35291386 C-231.71962909 401.42709883 -231.41403244 398.50243759 -231.1058445 395.5779705 C-230.96288308 394.20442719 -230.8236674 392.83048733 -230.68872643 391.45613289 C-228.73369109 371.64267898 -224.44702624 352.81497436 -209 339 C-194.99482623 328.05845799 -178.47593089 324.69061569 -161.5 320.6875 C-159.98295166 320.32537741 -158.46602395 319.96274904 -156.94921875 319.59960938 C-153.30084201 318.72727653 -149.65091314 317.86166432 -146 317 C-146.89348145 316.38946777 -147.78696289 315.77893555 -148.70751953 315.14990234 C-149.89103725 314.33704032 -151.07446342 313.52404499 -152.2578125 312.7109375 C-152.8453833 312.3099585 -153.4329541 311.90897949 -154.03833008 311.49584961 C-168.05438361 301.84690329 -175.93236927 287.54787892 -179.8125 271.125 C-184.22640446 246.45757965 -179.72803736 219.72115609 -170.25 196.69921875 C-168.39686779 191.21510563 -169.81578357 188.13933277 -172 183 C-176.00021288 173.58773441 -176.02131668 164.24189285 -173.14453125 154.484375 C-172 152 -172 152 -169.47753906 148.94995117 C-166.30966979 144.54595608 -166.24649171 140.61210415 -166.21484375 135.31640625 C-166.17554497 133.92962677 -166.17554497 133.92962677 -166.13545227 132.51483154 C-166.080242 130.54663736 -166.03463859 128.57815366 -165.9979248 126.60952759 C-165.89666172 121.5031574 -165.70647969 116.40041661 -165.51171875 111.296875 C-165.47434601 110.30218704 -165.43697327 109.30749908 -165.39846802 108.28266907 C-163.9945164 74.00687845 -152.21125273 41.02790166 -127 17 C-112.80908555 4.26991497 -95.34613625 -4.1407306 -77 -9 C-76.33387695 -9.17644043 -75.66775391 -9.35288086 -74.98144531 -9.53466797 C-49.43353612 -15.91216435 -22.70504213 -13.25822004 0 0 Z M-124.04296875 36.35546875 C-141.43869656 57.07815163 -149.73261953 84.04649116 -150.31640625 110.875 C-150.33718735 111.68493408 -150.35796844 112.49486816 -150.37937927 113.3293457 C-150.44413656 115.88615424 -150.50341194 118.44305481 -150.5625 121 C-150.60575566 122.74610281 -150.64937204 124.49219672 -150.69335938 126.23828125 C-150.79974083 130.49209609 -150.90121018 134.74600236 -151 139 C-148.61938495 139.43616336 -146.24026298 139.83974083 -143.8515625 140.2265625 C-142.84911499 140.41520874 -142.84911499 140.41520874 -141.82641602 140.60766602 C-138.10303106 141.18382283 -136.21824745 141.11235702 -132.8359375 139.37109375 C-130.37862537 137.37794058 -128.20380191 135.26791251 -126 133 C-124.72576172 131.98292969 -124.72576172 131.98292969 -123.42578125 130.9453125 C-119.7900979 128.02974034 -116.99923324 124.54987372 -114 121 C-112.88625 119.73542969 -112.88625 119.73542969 -111.75 118.4453125 C-106.0114541 111.80552061 -101.08950669 104.88885381 -96.37426758 97.49462891 C-86.36343865 81.97051486 -70.61847278 68.61481889 -52.19921875 64.40234375 C-38.09715603 62.62882426 -23.31977681 62.5596693 -11.4375 71.25 C-5.7128397 75.02264498 0.01011961 74.2575378 6.5925293 74.03540039 C16.61309538 73.76335308 23.63067002 76.19754155 31 83 C31.66 83 32.32 83 33 83 C33.42539062 83.87785156 33.42539062 83.87785156 33.859375 84.7734375 C34.93383742 86.9482751 34.93383742 86.9482751 36.078125 88.7265625 C39.21444964 93.80740842 41.04372783 98.96659434 42.8125 104.625 C46.99670194 117.78819946 53.10641753 130.10641753 63 140 C65.35694954 139.90968426 67.71153582 139.75311872 70.0625 139.5625 C71.99802734 139.40974609 71.99802734 139.40974609 73.97265625 139.25390625 C74.97167969 139.17011719 75.97070312 139.08632812 77 139 C78.10112819 112.36901084 74.26548505 84.3111949 63 60 C62.48824219 58.89398438 61.97648438 57.78796875 61.44921875 56.6484375 C53.49066168 40.73132336 41.86835834 28.64448944 25.125 22 C18.79982054 19.92698257 13.01070693 19.37414163 6.375 19.23828125 C0.69180803 18.83703737 -3.16376499 17.14457387 -7.625 13.6875 C-42.7321221 -11.61493034 -97.62242413 6.40410782 -124.04296875 36.35546875 Z M-58 82 C-58.82757813 82.4125 -59.65515625 82.825 -60.5078125 83.25 C-73.0568886 90.17362819 -81.17341135 100.38021413 -89 112 C-98.5653218 126.06121551 -110.27252074 142.28462199 -125.28125 150.87890625 C-128.25291445 152.74887429 -128.25291445 152.74887429 -128.7265625 155.8984375 C-127.66301343 192.3045403 -113.99077434 225.82082464 -87.421875 250.96484375 C-72.49289935 264.51969476 -54.35770077 277.13293274 -33.46484375 276.37109375 C-10.20624715 273.88003774 11.9606402 254.75495018 26.40673828 237.30029297 C44.09325972 214.84437249 55.33013916 184.65159999 54.53515625 155.86328125 C53.81996922 150.70036173 52.00053841 148.71247323 48.28515625 145.24609375 C38.47325119 135.60191356 32.46332596 120.03839667 28.4375 107.0625 C26.04118438 99.62458528 23.30477594 93.72215309 16.5 89.5 C9.65253096 86.5108164 0.97286948 87.17356078 -6.125 89 C-11.69747283 89 -14.63138021 86.1803867 -19.07421875 83.015625 C-30.38151358 75.22581975 -46.02890722 76.03310017 -58 82 Z M-158 158 C-160.52081378 163.28170505 -161.00168382 168.76212475 -159.27734375 174.3359375 C-156.24739604 181.72066835 -152.03778263 185.7573089 -144.96484375 189.30078125 C-142.71950984 190.22351221 -142.71950984 190.22351221 -139 190 C-139.08564209 189.43716309 -139.17128418 188.87432617 -139.25952148 188.29443359 C-140.81163655 178.00918226 -142.27652285 167.8191078 -142.7890625 157.421875 C-142.73395024 155.05168793 -142.73395024 155.05168793 -144 154 C-149.76868213 153.27295535 -153.98635825 153.37823071 -158 158 Z M69 155 C68.79636212 156.4784822 68.65262253 157.96531464 68.53515625 159.453125 C68.4582959 160.37722168 68.38143555 161.30131836 68.30224609 162.25341797 C68.22312988 163.24229004 68.14401367 164.23116211 68.0625 165.25 C67.35781655 173.57281003 66.45941606 181.77137752 65 190 C71.51974686 189.72256396 76.14820891 187.37318113 81 183 C84.97831189 177.22327314 86.72006139 171.00774027 86 164 C85.07959031 160.58230227 83.66665749 157.79486086 81.375 155.0625 C78.2434393 153.66153863 71.69763287 152.30236713 69 155 Z M-155 201 C-165.87905421 222.35518049 -170.29838853 251.29957981 -163.25390625 274.4453125 C-158.43543994 288.10513912 -149.9288928 297.49774982 -137 304 C-133.05854734 305.857229 -129.12366203 307.58967693 -125 309 C-124.36143066 309.22389404 -123.72286133 309.44778809 -123.06494141 309.6784668 C-116.10332826 311.71426144 -110.36217285 310.17758209 -103.5 308.3125 C-102.40429688 308.04244141 -101.30859375 307.77238281 -100.1796875 307.49414062 C-96.02149636 306.44904081 -96.02149636 306.44904081 -92 305 C-90.47327214 300.41981641 -90.34379055 295.73172847 -89.9375 290.9375 C-89.84662109 289.93783203 -89.75574219 288.93816406 -89.66210938 287.90820312 C-89.48929038 285.90844044 -89.3352287 283.90696589 -89.20019531 281.90429688 C-89.07080063 280.02712716 -88.9009483 278.15211742 -88.68261719 276.28320312 C-88.39626906 272.64506022 -88.25742846 270.10150137 -90.3425293 267.00854492 C-92.25438715 265.05584976 -94.25011465 263.342927 -96.375 261.625 C-97.8586698 260.32935738 -99.33783669 259.02854063 -100.8125 257.72265625 C-101.534375 257.09117676 -102.25625 256.45969727 -103 255.80908203 C-115.35138106 244.63675126 -123.82348944 229.35953478 -130.52734375 214.3046875 C-131.25630859 212.66886719 -131.25630859 212.66886719 -132 211 C-132.41765625 209.89398438 -132.8353125 208.78796875 -133.265625 207.6484375 C-134.79507309 204.69491332 -134.79507309 204.69491332 -138.14453125 204.046875 C-139.35496094 203.94890625 -140.56539062 203.8509375 -141.8125 203.75 C-146.5239634 203.3258168 -150.5578872 202.65984 -155 201 Z M75.5 202.4375 C71.92277303 203.56499274 68.86517744 204.11294497 65.125 204.1875 C63.02143868 204.30437297 63.02143868 204.30437297 61 205 C59.75714203 206.54834112 59.75714203 206.54834112 58.9609375 208.5546875 C58.4656958 209.64414673 58.4656958 209.64414673 57.96044922 210.75561523 C57.64350098 211.49626221 57.32655273 212.23690918 57 213 C56.42711647 214.30079584 55.85420068 215.60157748 55.28125 216.90234375 C54.99540039 217.5562207 54.70955078 218.21009766 54.41503906 218.88378906 C46.1474183 237.4396124 33.19874105 254.44526404 16.765625 266.51171875 C13.95405008 270.47404889 14.65418759 274.29328967 15 279 C15.06203613 279.96236572 15.12407227 280.92473145 15.18798828 281.91625977 C15.40412592 284.92717029 15.66420658 287.93127234 15.9375 290.9375 C16.02451172 291.96423828 16.11152344 292.99097656 16.20117188 294.04882812 C16.6596517 299.60993479 16.6596517 299.60993479 18 305 C27.85775017 309.44129345 41.40481657 312.90795738 51.875 309.25 C54.3389545 308.28211875 56.62281993 307.18859004 59 306 C60.010625 305.54625 61.02125 305.0925 62.0625 304.625 C75.00801649 298.29608083 84.26665999 287.96689329 89.1875 274.49609375 C96.25709067 252.77749548 91.99117606 223.98124913 82.34375 203.48046875 C81.9003125 202.66191406 81.456875 201.84335938 81 201 C79.11341401 201 77.27768871 201.86414052 75.5 202.4375 Z M-75 280 C-78.26627347 295.32714142 -78.26627347 295.32714142 -75.93017578 310.22851562 C-72.91379109 313.73297864 -69.03461154 315.79159631 -64.96923828 317.89013672 C-61.73935251 319.7105013 -59.12049452 322.15666248 -56.375 324.625 C-52.1346264 328.25692146 -47.84198329 331.81855282 -43.4375 335.25 C-42.48746094 335.99765625 -41.53742188 336.7453125 -40.55859375 337.515625 C-38.20311681 339.22913047 -38.20311681 339.22913047 -36.03393555 338.74536133 C-32.58127041 337.48008865 -30.07814094 334.85646552 -27.375 332.4375 C-26.11432035 331.33344778 -24.85259764 330.23058547 -23.58984375 329.12890625 C-22.9747998 328.59023926 -22.35975586 328.05157227 -21.72607422 327.49658203 C-19.50408657 325.57002131 -17.23423018 323.71162988 -14.9375 321.875 C-13.78314453 320.90433594 -13.78314453 320.90433594 -12.60546875 319.9140625 C-10 318 -10 318 -6.42578125 316.2734375 C-2.36967442 314.15665007 1.00137707 312.26895908 3 308 C4.09569272 298.70157261 2.48487662 289.18447793 1 280 C-3.0242159 280.72217632 -5.96561044 281.90772163 -9.5625 283.875 C-23.54053483 290.94044653 -39.88983783 292.49860966 -55.04296875 288.1328125 C-59.91264735 286.26728173 -64.47829975 283.89630013 -69.06640625 281.42578125 C-71.90608009 279.78143728 -71.90608009 279.78143728 -75 280 Z M7.27197266 322.41577148 C6.74909668 322.91794189 6.2262207 323.4201123 5.6875 323.9375 C4.54394637 324.96983398 3.39940745 326.00107751 2.25390625 327.03125 C1.69848145 327.54171875 1.14305664 328.0521875 0.57080078 328.578125 C-1.5065557 330.45852975 -3.67454221 332.20358335 -5.875 333.9375 C-6.65359375 334.55496094 -7.4321875 335.17242187 -8.234375 335.80859375 C-9.60335937 336.89333984 -9.60335937 336.89333984 -11 338 C-13.71017987 340.16436029 -16.41750022 342.33228857 -19.125 344.5 C-20.44005833 345.55214062 -21.75515874 346.60422866 -23.0703125 347.65625 C-24.03710938 348.4296875 -25.00390625 349.203125 -26 350 C-25.39024731 353.10189719 -24.39858986 355.1629936 -22.55859375 357.72265625 C-22.06085449 358.42140869 -21.56311523 359.12016113 -21.05029297 359.84008789 C-20.51807129 360.57348389 -19.98584961 361.30687988 -19.4375 362.0625 C-18.89754395 362.8145874 -18.35758789 363.5666748 -17.80126953 364.34155273 C-16.71391755 365.85449577 -15.62410178 367.36567136 -14.53173828 368.875 C-13.17210489 370.7612367 -11.82969697 372.65782276 -10.49609375 374.5625 C-9.79613281 375.5525 -9.09617187 376.5425 -8.375 377.5625 C-7.76398438 378.43003906 -7.15296875 379.29757812 -6.5234375 380.19140625 C-6.02070313 380.78824219 -5.51796875 381.38507813 -5 382 C-4.34 382 -3.68 382 -3 382 C-2.13389862 380.34125858 -1.26807498 378.68237214 -0.40234375 377.0234375 C0.14897217 375.96753418 0.70028809 374.91163086 1.26831055 373.82373047 C2.47178662 371.51044934 3.6698069 369.19432224 4.86254883 366.87548828 C9.96489494 356.96375374 9.96489494 356.96375374 12.3515625 353.03125 C18.35817359 342.70499094 18.55122297 331.69237928 19 320 C13.79086297 318.64365866 11.3526035 318.76579545 7.27197266 322.41577148 Z M-93 321 C-92.56934458 334.42456905 -91.17136023 345.08353074 -84.32128906 356.69482422 C-81.54549514 361.53758959 -79.05940629 366.54062956 -76.5 371.5 C-75.44951977 373.51125478 -74.39756802 375.52174208 -73.34375 377.53125 C-72.89193359 378.39298828 -72.44011719 379.25472656 -71.97460938 380.14257812 C-71.65298828 380.75552734 -71.33136719 381.36847656 -71 382 C-67.92816366 380.67774294 -66.32202562 379.47795144 -64.484375 376.69140625 C-64.04125977 376.03172852 -63.59814453 375.37205078 -63.14160156 374.69238281 C-62.68237305 373.98952148 -62.22314453 373.28666016 -61.75 372.5625 C-60.78290598 371.10957347 -59.81414482 369.65775529 -58.84375 368.20703125 C-58.12832031 367.13509521 -58.12832031 367.13509521 -57.3984375 366.04150391 C-54.84810333 362.31840782 -52.06001972 358.77687539 -49.265625 355.234375 C-47.83446751 353.13284747 -47.83446751 353.13284747 -47.9921875 350.96484375 C-49.43335118 348.15513317 -51.38766182 346.7467049 -53.875 344.8125 C-54.87789062 344.02101563 -55.88078125 343.22953125 -56.9140625 342.4140625 C-57.93242187 341.61742187 -58.95078125 340.82078125 -60 340 C-61.75370955 338.56702789 -63.50377221 337.12958001 -65.25 335.6875 C-66.14203125 334.96046875 -67.0340625 334.2334375 -67.953125 333.484375 C-69.60386854 332.13838412 -71.25344305 330.79092906 -72.89648438 329.43554688 C-74.92546288 327.76266682 -76.96215074 326.09955654 -79 324.4375 C-79.64743164 323.90020264 -80.29486328 323.36290527 -80.96191406 322.80932617 C-85.64184015 319.01414072 -87.66859204 318.05853354 -93 321 Z M-87 385 C-86 387 -86 387 -86 387 Z M12 385 C13 387 13 387 13 387 Z " fill="#000000" transform="translate(293,30)"/>
<path d="M0 0 C12.05969513 3.64365173 25.4914905 2.46012886 37.0234375 -2.39453125 C40.18983428 -3.58652473 42.15482845 -3.19240242 45.37890625 -2.28125 C47.25390625 -1.21875 47.25390625 -1.21875 48.37890625 0.71875 C48.89218323 4.13346768 49.30326434 7.34406362 47.3125 10.3046875 C44.48993018 12.36886987 41.36445566 13.30529712 38.06640625 14.34375 C37.41478516 14.5603125 36.76316406 14.776875 36.09179688 15 C20.30047372 20.12151021 2.17796498 19.0781816 -12.94921875 12.20703125 C-15.62109375 10.71875 -15.62109375 10.71875 -17.62109375 8.71875 C-18.18942934 1.55772158 -18.18942934 1.55772158 -16.30859375 -1.21875 C-10.73097724 -4.73058262 -5.67127157 -2.02907748 0 0 Z " fill="#000000" transform="translate(240.62109375,247.28125)"/>
<path d="M0 0 C2 2 2 2 2.375 5.375 C2 9 2 9 0.4375 11.4375 C-2.93227241 13.59761052 -5.06243106 13.4835611 -9 13 C-9.763125 12.525625 -10.52625 12.05125 -11.3125 11.5625 C-15.91889473 8.88436353 -21.20361406 8.32374981 -26.390625 9.578125 C-29.9717848 10.81255393 -29.9717848 10.81255393 -33 13 C-36.49225533 13.26356644 -39.17239929 13.3395285 -42.4375 12 C-44.44676147 9.42814532 -44.68341735 7.22284331 -44.51171875 3.99609375 C-43.78696566 1.16900345 -42.12774861 -0.33013803 -39.77734375 -1.97265625 C-26.87225798 -9.43207945 -11.90421894 -8.90675374 0 0 Z " fill="#000000" transform="translate(238,163)"/>
<path d="M0 0 C2.18213631 3.5707685 1.83599435 6.10105089 1.375 10.25 C0.375 12.25 0.375 12.25 -1.625 13.25 C-7.514005 13.82924639 -10.36580659 12.98916323 -15.625 10.25 C-22.07765252 8.76906336 -26.58087811 9.57841877 -32.625 12.25 C-32.955 12.58 -33.285 12.91 -33.625 13.25 C-37.44511276 13.610388 -39.78184085 13.79048663 -43.0625 11.6875 C-45.27274651 8.23951544 -45.33001923 6.26860959 -44.625 2.25 C-33.33607429 -10.16781829 -13.07268308 -8.71512206 0 0 Z " fill="#000000" transform="translate(316.625,162.75)"/>
<path d="M0 0 C2.8100346 1.79363911 4.50940468 3.01880935 6 6 C6.36206054 10.41713859 6.51432609 12.94898583 4.5625 16.9375 C0.92253118 19.867231 -2.37396842 20.4321898 -7 20 C-12.39759036 17.20481928 -12.39759036 17.20481928 -14 14 C-14.5811138 6.91041162 -14.5811138 6.91041162 -12.125 3.0625 C-8.49059499 -0.46501074 -4.90782663 -0.7051475 0 0 Z " fill="#000000" transform="translate(299,183)"/>
<path d="M0 0 C2.8100346 1.79363911 4.50940468 3.01880935 6 6 C6.3751455 10.97067782 6.15878799 14.05151502 3 18 C-0.77368427 20.35452096 -3.57836256 20.21608994 -7.87109375 19.59375 C-10 19 -10 19 -12.5625 16.9375 C-14.41894415 13.14389674 -14.85457596 10.14720686 -14 6 C-10.32759145 0.24655994 -6.71744997 -0.96515086 0 0 Z " fill="#000000" transform="translate(221,183)"/>
</svg>
