<?xml version="1.0" encoding="UTF-8"?>
<svg version="1.1" xmlns="http://www.w3.org/2000/svg" width="512" height="512">
<path d="M0 0 C0.86109375 0.495 1.7221875 0.99 2.609375 1.5 C6.98957783 4.23374361 10.62017685 7.46169971 14.375 11 C18.74801577 15.09245967 22.98430497 17.75866994 28.296875 20.4453125 C33.16070552 23.24271791 37.04832468 27.05529413 41 31 C41.57621094 31.56460938 42.15242188 32.12921875 42.74609375 32.7109375 C55.90310462 46.72229972 58.3035931 68.16358811 57.93359375 86.4921875 C57.56109009 97.81840738 55.98444265 108.85467114 54 120 C54.61053223 120.18030762 55.22106445 120.36061523 55.85009766 120.54638672 C56.65495605 120.79662598 57.45981445 121.04686523 58.2890625 121.3046875 C59.08521973 121.54687012 59.88137695 121.78905273 60.70166016 122.03857422 C65.28878542 123.95742904 67.90498805 127.54836507 69.8972168 132.00878906 C71.84914363 137.63580296 72.51220953 142.68325801 72.4375 148.625 C72.42847656 149.49672852 72.41945313 150.36845703 72.41015625 151.26660156 C71.94940975 168.71737521 64.59559075 187.48985757 52.0625 199.921875 C49.12506174 202.61452673 46.78930291 204.70310624 43.01953125 206.12109375 C38.5804202 208.88333491 37.56328299 212.5085228 35.6875 217.25 C28.67457719 233.80990195 19.35370059 249.70053893 6 262 C7.25135742 261.92587891 8.50271484 261.85175781 9.79199219 261.77539062 C15.74542384 261.78756948 20.77452468 263.59533212 26.328125 265.59375 C27.41512695 265.97227112 28.50212891 266.35079224 29.62207031 266.74078369 C33.16971949 267.98008524 36.70988501 269.23935395 40.25 270.5 C42.70896094 271.36590045 45.16827483 272.23079921 47.62792969 273.09472656 C52.64263771 274.85848315 57.65424325 276.63063028 62.6640625 278.40820312 C68.45606739 280.46007759 74.25822745 282.48029463 80.06793213 284.48144531 C84.16963453 285.89507126 88.26725912 287.32025952 92.36413574 288.74780273 C94.2666987 289.40852106 96.17072771 290.06503498 98.07629395 290.71704102 C108.13887205 294.16714451 117.3919267 297.55609188 126 304 C127.45792969 305.06927734 127.45792969 305.06927734 128.9453125 306.16015625 C144.13371956 319.41598822 151.38482049 338.21096768 153 358 C153.14090054 361.6804486 153.15696742 365.35716052 153.16113281 369.04003906 C153.16609772 370.1062146 153.17106262 371.17239014 153.17617798 372.27087402 C153.19068821 375.76913107 153.19757968 379.26734291 153.203125 382.765625 C153.20888164 385.20701091 153.21463931 387.64839681 153.22039795 390.08978271 C153.23087337 395.19364633 153.23673995 400.29749435 153.24023438 405.40136719 C153.24573958 411.94400023 153.26982531 418.48642733 153.29820633 425.02899551 C153.3168081 430.06468315 153.3220368 435.10032064 153.32357025 440.13603973 C153.32659826 442.54899991 153.33463175 444.96195917 153.34775543 447.37488556 C153.36477865 450.74259859 153.36294563 454.10980066 153.35644531 457.47753906 C153.3656601 458.47400452 153.37487488 459.47046997 153.3843689 460.49713135 C153.33262801 469.03914895 153.33262801 469.03914895 150 473 C147.14175641 474.4291218 144.71500724 474.12950408 141.51812935 474.13422108 C140.50344118 474.13774942 140.50344118 474.13774942 139.46825427 474.14134905 C137.17910722 474.14805835 134.89001668 474.14758025 132.6008606 474.14717102 C130.95206422 474.15046843 129.30326866 474.15419374 127.65447414 474.1583125 C123.10608455 474.16835434 118.55770816 474.17205279 114.00930905 474.17470181 C109.11078404 474.17859833 104.21226954 474.18817702 99.31375122 474.19691467 C87.47612722 474.21669621 75.63850235 474.22674684 63.80086595 474.23564246 C58.23164235 474.24002207 52.66241971 474.24538967 47.09319687 474.25063133 C28.5896048 474.2676443 10.08601332 474.28214011 -8.41758537 474.28938007 C-13.22158687 474.29129008 -18.02558836 474.2932104 -22.82958984 474.29516602 C-24.62068834 474.29589163 -24.62068834 474.29589163 -26.44797064 474.2966319 C-45.80595098 474.30493832 -65.16386965 474.33028525 -84.52182303 474.36274669 C-104.37848482 474.39577409 -124.23511521 474.41382486 -144.09180462 474.41702431 C-155.24785569 474.41919328 -166.40381679 474.42799842 -177.55984116 474.45348549 C-187.05756987 474.47513345 -196.55518678 474.48327208 -206.05293737 474.47351871 C-210.90202228 474.46895698 -215.75087621 474.47096837 -220.59992981 474.49028015 C-225.03503886 474.50779147 -229.46974637 474.50701294 -233.90485896 474.49138286 C-235.51320908 474.48898837 -237.12158615 474.49342469 -238.72989486 474.50521151 C-240.90924049 474.52019978 -243.08713909 474.51075116 -245.26644707 474.49498463 C-246.4789491 474.49596144 -247.69145113 474.49693824 -248.94069564 474.49794465 C-252.60355693 473.90176265 -253.74237512 472.87978637 -256 470 C-257.16948342 467.66103316 -257.12818332 466.2905182 -257.13371277 463.68440247 C-257.13797775 462.77777359 -257.14224274 461.87114471 -257.14663696 460.93704224 C-257.14618378 459.93921722 -257.14573059 458.94139221 -257.14526367 457.91333008 C-257.14862228 456.86423965 -257.1519809 455.81514923 -257.15544128 454.73426819 C-257.16498195 451.24601065 -257.16689674 447.75780105 -257.16796875 444.26953125 C-257.17118199 441.84209676 -257.17454611 439.41466247 -257.17805481 436.98722839 C-257.18405582 431.8834895 -257.185894 426.77976756 -257.18530273 421.67602539 C-257.1852017 415.16897256 -257.19878865 408.6620303 -257.21607494 402.15500355 C-257.22726029 397.13176486 -257.22921985 392.10855221 -257.22869301 387.08530235 C-257.22986581 384.68898835 -257.23424784 382.29267351 -257.24202538 379.89637184 C-257.31996162 353.3753377 -255.52290232 328.94040301 -235.96166992 308.75805664 C-226.25069171 299.39343147 -214.42419626 294.86008734 -201.875 290.75 C-199.2962858 289.88301385 -196.71973765 289.00976745 -194.1431427 288.13650513 C-192.26223248 287.49967525 -190.38052405 286.86519886 -188.49809265 286.23287964 C-180.76595437 283.62789148 -173.07673549 280.90958831 -165.39540863 278.15943909 C-161.31744209 276.70062033 -157.23660954 275.24982847 -153.15614319 273.79801941 C-149.78221002 272.59682312 -146.41001856 271.39112875 -143.04119873 270.17565918 C-139.23215287 268.80193532 -135.41530396 267.45119603 -131.59765625 266.1015625 C-130.45854294 265.68663544 -129.31942963 265.27170837 -128.14579773 264.84420776 C-121.8045611 262.62324662 -116.72128376 261.53591452 -110 262 C-110.46148437 261.58492188 -110.92296875 261.16984375 -111.3984375 260.7421875 C-123.79981665 249.02705067 -133.42284451 233.33023991 -139.60668945 217.4855957 C-142.33027069 210.56659488 -144.67099893 206.53006849 -151.5859375 203.1875 C-163.11246213 197.51749436 -169.07341382 182.93925191 -172.9921875 171.484375 C-176.61926573 158.94424408 -179.49924336 142.02557937 -173.328125 129.87890625 C-169.26535504 124.13128169 -164.83243437 121.39437436 -158 120 C-158.14074951 119.41879395 -158.28149902 118.83758789 -158.42651367 118.23876953 C-159.95355915 111.39970557 -160.35021078 104.86981137 -160.3125 97.875 C-160.30686035 96.77478516 -160.3012207 95.67457031 -160.29541016 94.54101562 C-159.92556756 69.56748561 -151.3929504 46.85969913 -135 28 C-133.96939453 26.77023438 -133.96939453 26.77023438 -132.91796875 25.515625 C-100.80392737 -11.74823563 -43.24684378 -25.06177519 0 0 Z M-107 265 C-104.80386874 274.46671233 -101.96826908 283.6740848 -98.96484375 292.90625 C-98.48042078 294.40401049 -97.99625922 295.90185554 -97.51234436 297.39978027 C-96.50548283 300.51344468 -95.49586131 303.62619562 -94.48413086 306.73828125 C-93.18915394 310.722227 -91.90067909 314.70824024 -90.61415768 318.6949234 C-89.61881937 321.77718737 -88.62036914 324.85843615 -87.62094307 327.93937683 C-87.14441226 329.40947059 -86.66877955 330.87985579 -86.19407463 332.35054016 C-85.53215976 334.39943517 -84.86613087 336.44694728 -84.19897461 338.49414062 C-83.63296791 340.23854431 -83.63296791 340.23854431 -83.05552673 342.01818848 C-82.18503423 344.47728732 -81.23910935 346.71103761 -80 349 C-78.96264661 344.60789669 -77.94802198 340.21084734 -76.9375 335.8125 C-76.64294922 334.56662109 -76.34839844 333.32074219 -76.04492188 332.03710938 C-75.77099609 330.83505859 -75.49707031 329.63300781 -75.21484375 328.39453125 C-74.95823975 327.28956299 -74.70163574 326.18459473 -74.43725586 325.04614258 C-73.55607958 318.90742879 -76.008132 314.93180549 -79 309.75 C-83.63765565 301.34768312 -84.97144585 295.38075198 -82.5703125 285.9453125 C-82.08373622 284.2856208 -81.5469308 282.6407924 -81 281 C-81.96679688 280.5153125 -82.93359375 280.030625 -83.9296875 279.53125 C-91.30140686 275.7609958 -97.91877703 271.89477879 -104.2421875 266.46875 C-105.74612003 264.89313496 -105.74612003 264.89313496 -107 265 Z M2 265 C1.45214844 265.4846875 0.90429688 265.969375 0.33984375 266.46875 C-6.87688224 272.57069718 -14.60347627 276.79054277 -23 281 C-22.77183594 281.76183594 -22.54367187 282.52367187 -22.30859375 283.30859375 C-22.02113281 284.34113281 -21.73367188 285.37367188 -21.4375 286.4375 C-21.00244141 287.95150391 -21.00244141 287.95150391 -20.55859375 289.49609375 C-19.22770459 297.84439847 -21.3359012 303.29926757 -25.6875 310.3125 C-29.6507588 317.1774598 -29.6507588 317.1774598 -29.8125 324.9375 C-29.2416863 326.96800645 -28.6322735 328.98778357 -28 331 C-27.43852778 333.40876267 -26.92296303 335.82508531 -26.40893555 338.24438477 C-25.64309736 341.8382564 -24.81985534 345.41810774 -24 349 C-22.09676597 346.14514895 -21.24615734 344.01586077 -20.23168945 340.77612305 C-19.89406082 339.70617599 -19.55643219 338.63622894 -19.20857239 337.53385925 C-18.84712631 336.37155289 -18.48568024 335.20924652 -18.11328125 334.01171875 C-17.73318405 332.80296585 -17.35308685 331.59421295 -16.96147156 330.34883118 C-15.94641592 327.1180449 -14.93547348 323.88603051 -13.92657471 320.65332031 C-12.53211785 316.18928429 -11.12922913 311.72788911 -9.72824097 307.26589966 C-8.94580051 304.77118754 -8.16496692 302.27597086 -7.38577271 299.78024292 C-5.56259351 293.94518816 -3.7213312 288.11781517 -1.82177734 282.30712891 C-1.48848923 281.28230911 -1.15520111 280.25748932 -0.81181335 279.20161438 C-0.18986144 277.29475495 0.43806701 275.38983096 1.07292175 273.48722839 C1.47925591 272.23828545 1.47925591 272.23828545 1.89379883 270.96411133 C2.13302567 270.24185867 2.3722525 269.51960602 2.61872864 268.77546692 C3.21359906 266.90633369 3.21359906 266.90633369 2 265 Z " fill="#000000" transform="translate(308,25)"/>
<path d="M0 0 C0.36351562 0.95519531 0.72703125 1.91039063 1.1015625 2.89453125 C6.87880558 17.86169383 14.11608271 32.14152275 26.30859375 42.94921875 C28.73025602 45.3383676 28.99342185 45.96640313 29.69140625 49.53125 C29.64886719 50.8409375 29.60632813 52.150625 29.5625 53.5 C29.53953857 54.22993164 29.51657715 54.95986328 29.49291992 55.71191406 C27.97296898 90.40597316 18.49347775 126.89046943 -4 154 C-4.73089844 154.88300781 -5.46179688 155.76601563 -6.21484375 156.67578125 C-17.67491849 169.94852159 -33.26546899 180.61492992 -51 183 C-70.22821248 184.39799876 -86.99249459 177.77364285 -101.53198242 165.24584961 C-130.17023042 139.5952255 -141.5108469 100.08471299 -145 63 C-145.10924805 61.89011719 -145.10924805 61.89011719 -145.22070312 60.7578125 C-146.35455857 47.5180459 -146.35455857 47.5180459 -143.44921875 42.1171875 C-141.12855181 39.6819721 -138.79309509 37.87374998 -136 36 C-135.04480469 35.30777344 -134.08960938 34.61554688 -133.10546875 33.90234375 C-111.72779746 19.51611213 -84.78792825 17.48946111 -59.89746094 14.64550781 C-31.00190445 11.85865608 -31.00190445 11.85865608 -4.2734375 1.34765625 C-2 0 -2 0 0 0 Z " fill="#FEDCAA" transform="translate(314,113)"/>
<path d="M0 0 C-1.47799294 10.19709642 -3.97312778 20.00265518 -6.69726562 29.9296875 C-8.39198336 36.39850614 -9.47944343 41.42832862 -8 48 C-4.83432793 48.65077173 -1.66729923 49.2946984 1.5 49.9375 C2.386875 50.11990234 3.27375 50.30230469 4.1875 50.49023438 C9.44891455 51.55412335 14.6644895 52.40785806 20 53 C20 58.49727395 17.16423474 61.8361387 14.19921875 66.24804688 C11.40045929 70.63277003 10.06040589 73.66193096 11 79 C12.53048822 82.06288573 14.47419432 84.74670473 16.5 87.5 C17.70184951 89.19268945 18.90367121 90.88539865 20.10546875 92.578125 C20.74274902 93.46306641 21.3800293 94.34800781 22.03662109 95.25976562 C24.67279362 98.9389997 27.24834676 102.65879786 29.82495117 106.37988281 C31.83896163 109.28821189 33.85980769 112.19167126 35.8828125 115.09375 C36.56118164 116.06699219 37.23955078 117.04023438 37.93847656 118.04296875 C38.6187793 119.01878906 39.29908203 119.99460937 40 121 C47.85948545 132.27357742 55.71591545 143.54916237 63.5 154.875 C64.33760864 156.08881348 64.33760864 156.08881348 65.19213867 157.32714844 C65.69592041 158.06223633 66.19970215 158.79732422 66.71875 159.5546875 C67.16154297 160.19905762 67.60433594 160.84342773 68.06054688 161.50732422 C69 163 69 163 69 164 C19.17 164 -30.66 164 -82 164 C-82.061875 146.9225 -82.12375 129.845 -82.1875 112.25 C-82.21481201 106.87750977 -82.24212402 101.50501953 -82.27026367 95.96972656 C-82.28381348 89.35888672 -82.28381348 89.35888672 -82.28633118 86.2543335 C-82.29090797 84.10734181 -82.30139645 81.96035736 -82.31672668 79.81341553 C-82.47484067 56.48380816 -82.47484067 56.48380816 -79 47 C-78.75734406 46.32856964 -78.51468811 45.65713928 -78.26467896 44.96536255 C-73.26954949 32.44477005 -64.2221752 22.4718129 -51.81834412 17.04560852 C-49.51116187 16.17941192 -47.19209553 15.37308713 -44.85546875 14.58984375 C-44.00503494 14.29566055 -43.15460114 14.00147736 -42.27839661 13.69837952 C-39.58454708 12.7687064 -36.88628316 11.85273951 -34.1875 10.9375 C-32.38965189 10.32059928 -30.59212283 9.7027679 -28.79492188 9.08398438 C-26.19226548 8.18794662 -23.58925636 7.29313472 -20.98410034 6.40438843 C-15.61658355 4.57161506 -10.2851172 2.66412306 -4.98950195 0.63110352 C-3 0 -3 0 0 0 Z " fill="#474767" transform="translate(150,319)"/>
<path d="M0 0 C6.66166946 1.35665488 12.95910561 3.20202215 19.37109375 5.44921875 C20.33346451 5.78492386 21.29583527 6.12062897 22.28736877 6.46650696 C24.31118402 7.17549192 26.33395318 7.88746941 28.35571289 8.60229492 C31.42030758 9.68144595 34.49202328 10.73832075 37.56445312 11.79492188 C56.52374888 18.4205751 56.52374888 18.4205751 64 25 C64.73057617 25.61222412 65.46115234 26.22444824 66.21386719 26.85522461 C75.21921199 34.64522661 80.44671854 47.34949684 82 59 C82.54296888 67.02916941 82.3503924 75.09865817 82.29296875 83.140625 C82.28855021 85.21337644 82.28549442 87.28613125 82.28381348 89.35888672 C82.2681739 96.98930932 82.22629019 104.61965997 82.1875 112.25 C82.125625 129.3275 82.06375 146.405 82 164 C32.17 164 -17.66 164 -69 164 C-64.50270011 156.12972519 -64.50270011 156.12972519 -61.93359375 152.50390625 C-61.3715625 151.70662109 -60.80953125 150.90933594 -60.23046875 150.08789062 C-59.63878906 149.25451172 -59.04710937 148.42113281 -58.4375 147.5625 C-57.17522328 145.77252876 -55.91351063 143.98215963 -54.65234375 142.19140625 C-54.03085449 141.30984863 -53.40936523 140.42829102 -52.76904297 139.52001953 C-50.31985252 136.03112306 -47.90652135 132.51840371 -45.5 129 C-42.033746 123.93777293 -38.53577101 118.89942339 -35.00830078 113.87963867 C-33.24271749 111.36462631 -31.48421589 108.84477776 -29.7265625 106.32421875 C-27.09987595 102.55901937 -24.44234154 98.8174006 -21.7734375 95.08203125 C-20.39001224 93.11761889 -19.00718557 91.15278482 -17.625 89.1875 C-16.9640332 88.27468262 -16.30306641 87.36186523 -15.62207031 86.42138672 C-13.02524916 82.69770844 -11.17406948 79.86660399 -10.2734375 75.3828125 C-11.26126037 70.78359417 -13.36281022 67.5328078 -16 63.6875 C-16.94109382 62.27713102 -17.87877596 60.86447762 -18.8125 59.44921875 C-19.23144531 58.83393311 -19.65039062 58.21864746 -20.08203125 57.5847168 C-21 56 -21 56 -21 54 C-20.40574219 53.88930176 -19.81148438 53.77860352 -19.19921875 53.66455078 C-16.46567142 53.15387057 -13.73283846 52.63945958 -11 52.125 C-10.06542969 51.95097656 -9.13085938 51.77695312 -8.16796875 51.59765625 C-2.72355658 50.56969032 2.63979429 49.4032614 8 48 C9.10537132 41.81525717 8.73611739 37.26573265 7.12890625 31.23046875 C6.9277269 30.42764969 6.72654755 29.62483063 6.51927185 28.79768372 C5.88021218 26.2573879 5.2222404 23.72249521 4.5625 21.1875 C3.91007893 18.63384745 3.26164347 16.07924324 2.61643982 13.52375793 C2.21525319 11.93986877 1.80923211 10.35719446 1.39784241 8.77592468 C0.6264619 5.7700502 0 3.11729214 0 0 Z " fill="#474767" transform="translate(362,319)"/>
<path d="M0 0 C3.7975334 2.83523327 7.0793028 5.86754708 10.296875 9.33984375 C14.42910747 13.62910106 19.17002719 15.93896753 24.42578125 18.63671875 C36.22000581 25.072616 41.78978725 35.79695081 45.546875 48.33984375 C49.23491797 64.08009471 47.29315035 82.73036311 43.546875 98.33984375 C31.78094619 87.18566167 26.1857466 71.6744315 22.28515625 56.2578125 C21.36993077 53.88016323 20.65471672 52.79558629 18.546875 51.33984375 C14.70452544 50.73036761 13.02689433 51.03510119 9.72265625 53.1328125 C8.77777344 53.92300781 7.83289063 54.71320313 6.859375 55.52734375 C-10.19854634 68.98280829 -32.04579791 70.4562554 -52.953125 72.90234375 C-53.85367615 73.00774475 -54.75422729 73.11314575 -55.68206787 73.22174072 C-56.57830872 73.32661804 -57.47454956 73.43149536 -58.39794922 73.53955078 C-98.23966629 78.08466518 -98.23966629 78.08466518 -133.203125 96.578125 C-135.453125 98.33984375 -135.453125 98.33984375 -137.453125 98.33984375 C-141.24424309 72.27590691 -136.02525067 48.60029963 -120.453125 27.33984375 C-117.5989835 23.84985499 -114.59285114 20.57294465 -111.453125 17.33984375 C-110.90398437 16.72882812 -110.35484375 16.1178125 -109.7890625 15.48828125 C-83.11656238 -13.28648489 -33.04091357 -22.36049087 0 0 Z " fill="#7B6258" transform="translate(302.453125,40.66015625)"/>
<path d="M0 0 C11.30838173 34.80786494 22.57205103 69.62718749 33.54980469 104.54101562 C37.22644148 116.23136544 40.92375748 127.91437316 44.671875 139.58203125 C45.23819138 141.34574066 45.23819138 141.34574066 45.81594849 143.14508057 C47.61580124 148.74797806 49.41941286 154.34963191 51.22802734 159.94970703 C51.86303514 161.92347706 52.497968 163.8972712 53.1328125 165.87109375 C53.42557068 166.77326126 53.71832886 167.67542877 54.0199585 168.60493469 C54.41444183 169.83387703 54.41444183 169.83387703 54.81689453 171.08764648 C55.04684113 171.79952621 55.27678772 172.51140594 55.51370239 173.24485779 C56 175 56 175 56 177 C52.81640625 177.421875 52.81640625 177.421875 49 177 C46.88938139 174.7275144 45.50689387 172.86279389 43.9375 170.25 C42.98355885 168.76577636 42.02774263 167.28275664 41.0703125 165.80078125 C40.57176758 165.01396973 40.07322266 164.2271582 39.55957031 163.41650391 C36.92907163 159.34063103 34.11348529 155.39721449 31.3125 151.4375 C30.12414659 149.74408815 28.93666645 148.05006318 27.75 146.35546875 C27.1415625 145.48712402 26.533125 144.6187793 25.90625 143.72412109 C8.65594745 119.07262572 8.65594745 119.07262572 0.75830078 107.45678711 C-1.35066663 104.36002914 -3.49769429 101.30895071 -5.7421875 98.30859375 C-6.17539307 97.71836426 -6.60859863 97.12813477 -7.05493164 96.52001953 C-8.22819125 94.92697396 -9.42005133 93.34767404 -10.61328125 91.76953125 C-12 89 -12 89 -11.26293945 86.59960938 C-10.05520778 84.11363858 -8.73980769 81.91510704 -7.1796875 79.63671875 C-6.37724609 78.42918945 -6.37724609 78.42918945 -5.55859375 77.19726562 C-4.43917137 75.52852113 -3.30897223 73.86695402 -2.16796875 72.21289062 C1.31219126 66.92523831 3.20845415 63.36869229 2 57 C-1.6516787 54.19204708 -5.1233053 53.37186166 -9.61328125 52.61328125 C-11.4840332 52.2894043 -11.4840332 52.2894043 -13.39257812 51.95898438 C-14.68615234 51.74564453 -15.97972656 51.53230469 -17.3125 51.3125 C-18.63883395 51.08623446 -19.96500811 50.85903015 -21.29101562 50.63085938 C-24.52589234 50.07798954 -27.76208448 49.53473367 -31 49 C-30.54818363 46.489426 -30.09190245 43.97982472 -29.62939453 41.47119141 C-29.18977784 39.04664911 -28.76766325 36.61889693 -28.35888672 34.18896484 C-24.08509459 9.21329045 -24.08509459 9.21329045 -19.02587891 3.94384766 C-13.0987956 0.26464994 -6.83646606 0 0 0 Z " fill="#5E5E7A" transform="translate(189,306)"/>
<path d="M0 0 C2.33526137 0.31954638 4.66821615 0.65599473 7 1 C8.16805176 1.15968262 9.33610352 1.31936523 10.53955078 1.48388672 C14.71653607 2.45491594 17.5027078 3.48148654 21 6 C24.63206335 12.00014226 25.56149492 19.33914399 26.875 26.125 C27.28744216 28.00512713 27.70536223 29.88406142 28.12890625 31.76171875 C31 44.74062974 31 44.74062974 31 49 C30.14245117 49.13575439 29.28490234 49.27150879 28.40136719 49.41137695 C25.20921702 49.9222853 22.01894936 50.44340842 18.82958984 50.97143555 C17.45102225 51.1975284 16.07178573 51.41958223 14.69189453 51.63745117 C12.7043263 51.95199423 10.71929881 52.28246062 8.734375 52.61328125 C6.94338379 52.90392456 6.94338379 52.90392456 5.11621094 53.20043945 C1.97341644 54.00682084 0.27630692 54.7113628 -2 57 C-3.12945111 62.66629126 -1.93977704 65.58562339 1.1328125 70.41796875 C2.44589085 72.35324016 3.77722659 74.27622895 5.125 76.1875 C6.47759408 78.10685902 7.81439839 80.03747261 9.1328125 81.98046875 C10.02830811 83.24733521 10.02830811 83.24733521 10.94189453 84.53979492 C12 87 12 87 11.35864258 89.54492188 C10.05232374 91.90545058 8.69474979 94.10421264 7.12890625 96.30078125 C6.56042969 97.10451172 5.99195313 97.90824219 5.40625 98.73632812 C4.7978125 99.58646484 4.189375 100.43660156 3.5625 101.3125 C2.28197495 103.12068517 1.00203326 104.9292836 -0.27734375 106.73828125 C-0.91140137 107.63240723 -1.54545898 108.5265332 -2.19873047 109.44775391 C-4.66544084 112.94287321 -7.08659301 116.46796343 -9.5 120 C-14.10073725 126.7163305 -18.76170961 133.38922257 -23.43505859 140.05517578 C-28.17692065 146.82019778 -32.90510555 153.59463307 -37.625 160.375 C-38.30006592 161.34381104 -38.97513184 162.31262207 -39.6706543 163.31079102 C-40.62645386 164.68448853 -40.62645386 164.68448853 -41.6015625 166.0859375 C-42.19839844 166.93945801 -42.79523438 167.79297852 -43.41015625 168.67236328 C-44.74812046 170.63123165 -45.99305715 172.61593789 -47.2265625 174.640625 C-47.81179688 175.41921875 -48.39703125 176.1978125 -49 177 C-52.75 177.375 -52.75 177.375 -56 177 C-53.93173705 168.16629164 -51.35649844 159.57423114 -48.52734375 150.95703125 C-48.0872726 149.60588345 -47.64762777 148.25459674 -47.20837402 146.90318298 C-46.2743809 144.03165126 -45.33817239 141.16085631 -44.40011597 138.29064941 C-41.90223075 130.64635127 -39.42000882 122.99695881 -36.9375 115.34765625 C-36.68611204 114.57344707 -36.43472408 113.7992379 -36.17571831 113.00156784 C-31.17948271 97.6103599 -26.28916133 82.18740677 -21.4375 66.75 C-14.42765391 44.45493211 -7.28411213 22.20694217 0 0 Z " fill="#5E5E7A" transform="translate(323,306)"/>
<path d="M0 0 C5.28 0 10.56 0 16 0 C16.94226963 4.30088002 17.88433586 8.6018037 18.82592773 12.90283203 C19.14482628 14.35923674 19.46383279 15.81561781 19.78295898 17.27197266 C19.93643799 17.97241699 20.08991699 18.67286133 20.24804688 19.39453125 C20.47812943 20.44432159 20.47812943 20.44432159 20.71286011 21.51531982 C21.02223681 22.93046993 21.33043846 24.34587742 21.63748169 25.76153564 C22.37153042 29.14516283 23.11735567 32.52469228 23.89990234 35.89746094 C24.17398926 37.1043457 24.44807617 38.31123047 24.73046875 39.5546875 C24.97563232 40.60897949 25.2207959 41.66327148 25.47338867 42.74951172 C26.90027098 51.55688819 25.06281983 58.01190943 22.28125 66.375 C21.90391724 67.5400708 21.52658447 68.7051416 21.13781738 69.90551758 C19.93613474 73.60734116 18.71833578 77.30362794 17.5 81 C16.67991858 83.51657833 15.86089629 86.03350206 15.04296875 88.55078125 C13.04089556 94.70457428 11.0255822 100.85390777 9 107 C8.34 107 7.68 107 7 107 C4.56242103 99.60381279 2.14332759 92.20176369 -0.26318359 84.79541016 C-1.08350965 82.27808113 -1.90801268 79.76210918 -2.73681641 77.24755859 C-3.92939003 73.62688789 -5.10671332 70.00155598 -6.28125 66.375 C-6.65310425 65.25697998 -7.0249585 64.13895996 -7.40808105 62.98706055 C-10.66618163 52.83523718 -10.15443478 45.48707205 -7.8125 35.15625 C-7.59053955 34.14655151 -7.3685791 33.13685303 -7.13989258 32.09655762 C-6.4344242 28.89591331 -5.71740464 25.69798766 -5 22.5 C-4.51746189 20.32048223 -4.03568304 18.14079622 -3.5546875 15.9609375 C-2.37856864 10.63863792 -1.19208864 5.31874442 0 0 Z " fill="#AA1D1D" transform="translate(248,356)"/>
<path d="M0 0 C1.051875 -0.00515625 2.10375 -0.0103125 3.1875 -0.015625 C4.280625 -0.00015625 5.37375 0.0153125 6.5 0.03125 C8.1396875 0.00804687 8.1396875 0.00804687 9.8125 -0.015625 C10.864375 -0.01046875 11.91625 -0.0053125 13 0 C14.43859375 0.00676758 14.43859375 0.00676758 15.90625 0.01367188 C19.22861686 0.67664418 20.42488701 1.90307364 22.5 4.53125 C23.54299199 10.12041321 21.04387878 13.98996423 18.3125 18.65625 C17.92513672 19.35878906 17.53777344 20.06132812 17.13867188 20.78515625 C14.78723663 24.89725293 12.57679743 27.92477296 8.5 30.53125 C5.5625 30.78125 5.5625 30.78125 2.5 29.53125 C-3.03539781 24.09649578 -8.88090927 15.14522808 -9.9140625 7.4453125 C-9.08802007 1.63184409 -5.48439404 0.02580024 0 0 Z " fill="#D02D2D" transform="translate(249.5,311.46875)"/>
<path d="M0 0 C3.84716797 1.78271484 3.84716797 1.78271484 5.22265625 3.73828125 C8.0248184 11.8913058 6.10417109 20.9167607 3.75 28.9375 C3.54560303 29.63447998 3.34120605 30.33145996 3.13061523 31.04956055 C1.63561371 35.76951815 -0.42204521 39.77501853 -3 44 C-4.22694836 41.54610328 -3.92923803 40.62281533 -3.4765625 37.94921875 C-3.34290283 37.11479248 -3.20924316 36.28036621 -3.0715332 35.4206543 C-2.92417725 34.51871338 -2.77682129 33.61677246 -2.625 32.6875 C-0.94077507 21.80225836 -0.32320114 10.99998354 0 0 Z " fill="#DDAE76" transform="translate(358,161)"/>
<path d="M0 0 C0.66 0 1.32 0 2 0 C2.05534912 0.88147705 2.11069824 1.7629541 2.16772461 2.67114258 C2.37712432 5.99430079 2.58790116 9.31736609 2.79956055 12.64038086 C2.89026736 14.06873224 2.9804517 15.49711692 3.07006836 16.92553711 C3.59557847 25.29553335 4.17582894 33.6529109 5 42 C1.726256 39.02212386 0.66902303 35.76267857 -0.625 31.625 C-0.8415625 30.965 -1.058125 30.305 -1.28125 29.625 C-3.16262759 23.79505215 -4.16412734 18.62558288 -4.25 12.5 C-4.27578125 11.3965625 -4.3015625 10.293125 -4.328125 9.15625 C-3.93424719 5.36752055 -2.7122587 2.7122587 0 0 Z " fill="#DFB077" transform="translate(152,161)"/>
</svg>
