<?xml version="1.0" encoding="UTF-8"?>
<svg version="1.1" xmlns="http://www.w3.org/2000/svg" width="512" height="512">
<path d="M0 0 C5.3791106 0.13792591 10.47462207 1.4368473 15.6953125 2.6484375 C42.17098601 8.43153366 66.13594176 6.99258695 92.68017578 3.08959961 C106.69197747 1.03224073 120.46681727 0.03460703 134.6328125 0.0234375 C135.79242493 0.02242538 135.79242493 0.02242538 136.97546387 0.02139282 C163.3317627 0.05786812 189.41690034 4.16739642 208.98046875 23.5234375 C215.06206211 29.98111733 218.48665183 36.98687086 222.046875 45.05859375 C223.48871817 48.10125254 225.11586818 50.82697056 226.9453125 53.6484375 C229.44109092 57.6836068 230.43970737 60.443466 229.5703125 65.2734375 C229.02632813 65.83417969 228.48234375 66.39492187 227.921875 66.97265625 C226.18404738 69.37442302 226.18404738 69.37442302 227.15234375 72.98828125 C227.5437083 74.4011736 227.95462004 75.80876696 228.3828125 77.2109375 C230.87704246 85.79518005 230.87704246 85.79518005 230.5703125 90.2734375 C231.715 90.36625 231.715 90.36625 232.8828125 90.4609375 C235.5703125 91.2734375 235.5703125 91.2734375 237.2421875 93.171875 C239.19670389 97.73624563 238.79847996 101.81477841 238.5078125 106.7109375 C238.45544434 107.71922607 238.40307617 108.72751465 238.34912109 109.76635742 C237.46137751 123.93170509 234.86776042 137.75505915 230.5703125 151.2734375 C231.6840625 151.1703125 232.7978125 151.0671875 233.9453125 150.9609375 C240.31508839 150.99481929 245.83404142 153.68631327 250.43359375 158.03515625 C256.17039859 165.05313338 258.20972453 173.38811602 257.91796875 182.34375 C256.51037279 194.20551374 251.76825399 203.51508431 242.4609375 210.9609375 C237.93359699 214.10388463 233.75828688 216.23830947 228.1640625 216.328125 C224.10899162 216.40610713 221.30191051 216.63948334 217.5703125 218.2734375 C214.00356891 222.78323844 212.36951629 228.59653533 210.45166016 233.94628906 C204.17998635 250.5062876 189.60195876 268.83151661 174.9453125 278.7734375 C171.77365588 282.11202342 172.31785245 283.85166107 172.42431641 288.27832031 C172.69483061 293.8279327 173.11352182 299.36139375 173.5703125 304.8984375 C173.71339844 306.69087891 173.71339844 306.69087891 173.859375 308.51953125 C174.09283682 311.43780399 174.33057598 314.35567567 174.5703125 317.2734375 C175.21722046 317.36682907 175.86412842 317.46022064 176.53063965 317.55644226 C186.3069957 319.0695268 195.86474889 321.36092766 205.4765625 323.66796875 C207.29152736 324.10160923 209.10650979 324.53517617 210.92150879 324.96867371 C214.70769344 325.87423889 218.49300079 326.7833759 222.27783203 327.69458008 C227.09655595 328.85398988 231.91829709 330.00028195 236.74091339 331.14337635 C240.48492268 332.03311963 244.22670036 332.93198249 247.96794128 333.83328819 C249.74352729 334.25950224 251.51989135 334.68248985 253.29707336 335.10199928 C273.54038847 339.88865057 290.47746477 346.1821534 302.5703125 364.2734375 C310.28507075 377.84193775 312.05150462 392.49182979 313.61328125 407.73828125 C313.78774615 409.38691051 313.96283232 411.03547412 314.13850403 412.68397522 C314.50210866 416.11149523 314.8604893 419.53950389 315.21459961 422.96801758 C315.66751839 427.35213227 316.13029925 431.73513416 316.59653759 436.1178503 C316.95695226 439.510526 317.31391875 442.90355692 317.66967201 446.29672432 C317.83926058 447.91345684 318.00950778 449.53012043 318.1804409 451.14671135 C318.41804594 453.40209119 318.65142325 455.6578684 318.88354492 457.91381836 C319.01661545 459.19365097 319.14968597 460.47348358 319.28678894 461.792099 C319.99527679 470.4915032 319.99527679 470.4915032 318.0078125 474.1484375 C315.5703125 476.2734375 315.5703125 476.2734375 312.0703125 476.8359375 C308.5703125 476.2734375 308.5703125 476.2734375 306.1328125 474.4609375 C304.5703125 472.2734375 304.5703125 472.2734375 304.5703125 469.2734375 C275.5303125 469.2734375 246.4903125 469.2734375 216.5703125 469.2734375 C215.9103125 470.9234375 215.2503125 472.5734375 214.5703125 474.2734375 C212.5703125 476.2734375 212.5703125 476.2734375 209.1953125 476.6484375 C205.5703125 476.2734375 205.5703125 476.2734375 203.1328125 474.4609375 C201.5703125 472.2734375 201.5703125 472.2734375 201.5703125 469.2734375 C193.6503125 469.2734375 185.7303125 469.2734375 177.5703125 469.2734375 C177.2403125 470.9234375 176.9103125 472.5734375 176.5703125 474.2734375 C172.83775802 476.76180715 170.98590315 476.81570302 166.5703125 476.2734375 C164.1328125 473.8984375 164.1328125 473.8984375 162.5703125 471.2734375 C162.5703125 470.6134375 162.5703125 469.9534375 162.5703125 469.2734375 C157.2903125 469.2734375 152.0103125 469.2734375 146.5703125 469.2734375 C145.9103125 470.9234375 145.2503125 472.5734375 144.5703125 474.2734375 C142.5703125 476.2734375 142.5703125 476.2734375 139.1953125 476.6484375 C135.5703125 476.2734375 135.5703125 476.2734375 133.1328125 474.4609375 C131.5703125 472.2734375 131.5703125 472.2734375 131.5703125 469.2734375 C123.6503125 469.2734375 115.7303125 469.2734375 107.5703125 469.2734375 C107.2403125 470.9234375 106.9103125 472.5734375 106.5703125 474.2734375 C102.83775802 476.76180715 100.98590315 476.81570302 96.5703125 476.2734375 C94.1328125 473.8984375 94.1328125 473.8984375 92.5703125 471.2734375 C92.5703125 470.6134375 92.5703125 469.9534375 92.5703125 469.2734375 C87.2903125 469.2734375 82.0103125 469.2734375 76.5703125 469.2734375 C75.9103125 470.9234375 75.2503125 472.5734375 74.5703125 474.2734375 C72.5703125 476.2734375 72.5703125 476.2734375 69.1953125 476.6484375 C65.5703125 476.2734375 65.5703125 476.2734375 63.1328125 474.4609375 C61.5703125 472.2734375 61.5703125 472.2734375 61.5703125 469.2734375 C53.6503125 469.2734375 45.7303125 469.2734375 37.5703125 469.2734375 C37.2403125 470.9234375 36.9103125 472.5734375 36.5703125 474.2734375 C32.83775802 476.76180715 30.98590315 476.81570302 26.5703125 476.2734375 C24.1328125 473.8984375 24.1328125 473.8984375 22.5703125 471.2734375 C22.5703125 470.6134375 22.5703125 469.9534375 22.5703125 469.2734375 C-6.4696875 469.2734375 -35.5096875 469.2734375 -65.4296875 469.2734375 C-65.7596875 470.9234375 -66.0896875 472.5734375 -66.4296875 474.2734375 C-70.16224198 476.76180715 -72.01409685 476.81570302 -76.4296875 476.2734375 C-79.24397846 473.60452745 -80.3655979 472.09643142 -80.66967773 468.19165039 C-80.54794189 467.0339917 -80.42620605 465.87633301 -80.30078125 464.68359375 C-80.23926376 464.0386647 -80.17774628 463.39373566 -80.11436462 462.72926331 C-79.97751615 461.32206081 -79.83063966 459.91580599 -79.67498779 458.51055908 C-79.42221087 456.20525114 -79.20196651 453.89864284 -78.98876953 451.58935547 C-78.60380373 447.46868031 -78.18651619 443.35213924 -77.75512695 439.23608398 C-77.48932421 436.68343984 -77.23386216 434.12988064 -76.97851562 431.57617188 C-76.80792005 429.93222634 -76.63671855 428.28834354 -76.46484375 426.64453125 C-76.39080826 425.89135117 -76.31677277 425.13817108 -76.24049377 424.36216736 C-75.78213908 420.10801111 -75.15893465 416.20456767 -73.4296875 412.2734375 C-71.92341797 411.62568359 -71.92341797 411.62568359 -70.38671875 410.96484375 C-67.3293672 409.64444947 -67.3293672 409.64444947 -66.77099609 407.39404297 C-66.42398588 404.99273229 -66.23654919 402.63416925 -66.1171875 400.2109375 C-65.99871847 398.57402667 -65.87774332 396.93729472 -65.75390625 395.30078125 C-65.6933606 394.21398071 -65.6933606 394.21398071 -65.6315918 393.10522461 C-65.4296875 391.2734375 -65.4296875 391.2734375 -64.4296875 389.2734375 C-65.0484375 389.0053125 -65.6671875 388.7371875 -66.3046875 388.4609375 C-68.4296875 387.2734375 -68.4296875 387.2734375 -70.4296875 384.2734375 C-70.07361123 375.37153086 -65.35653812 365.86209526 -59.4296875 359.2734375 C-56.3671875 358.2734375 -56.3671875 358.2734375 -53.4296875 358.2734375 C-49.26103828 357.76606901 -46.83560048 356.40203584 -43.4921875 353.8984375 C-34.36410742 347.2734375 -34.36410742 347.2734375 -30.4296875 347.2734375 C-30.4090625 346.1803125 -30.3884375 345.0871875 -30.3671875 343.9609375 C-30.0578125 342.7440625 -29.7484375 341.5271875 -29.4296875 340.2734375 C-24.49408501 337.67621377 -19.37878407 336.35805541 -13.97167969 335.09692383 C-12.74842484 334.80365959 -12.74842484 334.80365959 -11.50045776 334.50447083 C-8.82725334 333.86529944 -6.15200698 333.23519186 -3.4765625 332.60546875 C-1.61034525 332.16180572 0.2557624 331.71768143 2.12176514 331.27311707 C6.0210131 330.34555025 9.92123518 329.4222381 13.82226562 328.50219727 C18.82640885 327.32182848 23.82846445 326.1328818 28.82988358 324.94102955 C32.67760214 324.02473053 36.52613941 323.11191222 40.37496185 322.20026207 C42.22038328 321.76291077 44.06560438 321.32471333 45.91062164 320.88566017 C48.48292178 320.27430562 51.05622859 319.66739268 53.62988281 319.06176758 C54.77540115 318.78831512 54.77540115 318.78831512 55.94406128 318.50933838 C58.89174696 317.81974335 61.53132714 317.2734375 64.5703125 317.2734375 C64.91017831 313.148949 65.24099708 309.02378072 65.5703125 304.8984375 C65.71339844 303.16400391 65.71339844 303.16400391 65.859375 301.39453125 C66.04083025 299.10041843 66.20635129 296.80498643 66.35546875 294.50854492 C66.49003687 292.48222435 66.65912892 290.4575772 66.87890625 288.4387207 C67.14317635 284.88287212 67.2965408 282.37274345 65.2890625 279.33398438 C63.48285047 277.4600394 61.59978638 275.83968114 59.5703125 274.2109375 C58.18242587 273.00935744 56.7969889 271.80494185 55.4140625 270.59765625 C54.41246094 269.74179932 54.41246094 269.74179932 53.390625 268.86865234 C38.43930717 255.76619651 28.77124491 236.47038833 21.5703125 218.2734375 C20.69890625 218.19867188 19.8275 218.12390625 18.9296875 218.046875 C7.83320036 216.82193811 -2.2597733 213.75648925 -9.96875 205.2578125 C-16.86803124 195.88659627 -19.35495428 185.77318182 -18.4296875 174.2734375 C-17.2308626 167.27189711 -14.64474001 161.20423139 -9.4296875 156.2734375 C-3.3333793 152.0764816 1.29403633 151.02626039 8.5703125 151.2734375 C8.39902832 150.61037598 8.22774414 149.94731445 8.05126953 149.26416016 C4.57279965 135.66735927 1.36595409 122.31599497 0.5703125 108.2734375 C0.49941406 107.02949219 0.42851562 105.78554687 0.35546875 104.50390625 C-0.03692933 89.76543446 2.14488378 75.58655599 8.5703125 62.2734375 C9.97209305 59.20377151 9.97209305 59.20377151 8.12890625 56.11328125 C7.42668082 54.8098993 6.71926946 53.50930342 6.0078125 52.2109375 C-0.08747256 40.50745492 -4.1170866 28.45454003 -6.4296875 15.4609375 C-6.56673096 14.71408691 -6.70377441 13.96723633 -6.8449707 13.19775391 C-7.51187187 8.95118414 -7.55632678 6.05801595 -5.4296875 2.2734375 C-3.4296875 0.2734375 -3.4296875 0.2734375 0 0 Z " fill="#020101" transform="translate(136.4296875,17.7265625)"/>
<path d="M0 0 C0.27263672 1.63195312 0.27263672 1.63195312 0.55078125 3.296875 C3.86307891 22.82939393 7.46891958 40.54495064 24.05859375 53.36328125 C31.49676929 59.45595242 31.49676929 59.45595242 32.43164062 64.18212891 C32.79881712 70.19770374 31.94967853 76.07213009 31 82 C30.8978418 82.72445312 30.79568359 83.44890625 30.69042969 84.1953125 C30.02828306 88.8546988 29.10386832 93.42812649 28 98 C27.84047852 98.67063477 27.68095703 99.34126953 27.51660156 100.03222656 C21.98818815 122.51727074 10.94260868 141.32473467 -5 158 C-5.598125 158.66128906 -6.19625 159.32257813 -6.8125 160.00390625 C-17.24735913 171.13592191 -30.20613727 178.78809117 -44 185 C-44.75925781 185.391875 -45.51851563 185.78375 -46.30078125 186.1875 C-56.46707908 189.24768806 -70.7705429 188.48684812 -80.16015625 183.6640625 C-81.56587891 182.84035156 -81.56587891 182.84035156 -83 182 C-84.18546159 181.36061208 -85.37170894 180.72267963 -86.55859375 180.0859375 C-96.03192451 174.84443527 -104.07405733 168.33131115 -112 161 C-112.90621094 160.17628906 -113.81242187 159.35257813 -114.74609375 158.50390625 C-138.40457384 136.02650473 -149.44602438 104.03396322 -151.82739258 72.08789062 C-151.9680507 70.00512547 -151.9680507 70.00512547 -152.3503418 67.99023438 C-152.76058596 64.5382317 -152.53403628 62.71772229 -150.42211914 59.87939453 C-148.17475808 57.56531616 -145.83932877 55.40313868 -143.4375 53.25 C-131.06675557 41.55563987 -124.4639222 30.16870612 -122.375 13.125 C-122.13581323 11.25221848 -121.89376906 9.37979898 -121.6484375 7.5078125 C-121.54708496 6.68941895 -121.44573242 5.87102539 -121.34130859 5.02783203 C-121 3 -121 3 -120 1 C-114.62535057 1.95098171 -109.4367592 3.55165394 -104.20898438 5.09570312 C-91.78960708 8.64561955 -79.82884846 9.37286498 -67 9.3125 C-66.17819244 9.31034485 -65.35638489 9.3081897 -64.50967407 9.30596924 C-46.15267416 9.22869729 -29.61958578 6.68449928 -11.86401367 1.98193359 C-10.89826416 1.72621582 -9.93251465 1.47049805 -8.9375 1.20703125 C-8.08027344 0.9747583 -7.22304688 0.74248535 -6.33984375 0.50317383 C-4 0 -4 0 0 0 Z " fill="#FACEA1" transform="translate(316,119)"/>
<path d="M0 0 C6.11584885 5.79343178 10.20897073 11.84555861 12.93359375 19.80859375 C14.87913743 25.40768749 18.34802807 31.72302807 22.55859375 35.93359375 C24.22921875 35.99546875 24.22921875 35.99546875 25.93359375 36.05859375 C29.55859375 36.93359375 29.55859375 36.93359375 31.37109375 39.87109375 C33.37110917 45.85879423 35.11797596 52.59751451 34.55859375 58.93359375 C32.12109375 60.62109375 32.12109375 60.62109375 29.55859375 61.93359375 C28.32559354 64.39959417 28.30408702 66.28021314 28.12890625 69.03515625 C28.05744385 70.07518799 27.98598145 71.11521973 27.91235352 72.18676758 C27.83686279 73.29947021 27.76137207 74.41217285 27.68359375 75.55859375 C26.63164204 89.76549965 24.23791086 103.15572544 20.55859375 116.93359375 C12.4819306 113.65070064 5.92455879 104.20919883 2.5078125 96.4765625 C-0.00746846 89.73809375 -1.33793922 83.11524162 -2.1484375 75.97265625 C-2.2707373 74.90031738 -2.39303711 73.82797852 -2.51904297 72.72314453 C-2.75632091 70.55416014 -2.97581919 68.38314657 -3.17626953 66.21044922 C-3.28310059 65.20127441 -3.38993164 64.19209961 -3.5 63.15234375 C-3.58564209 62.24419922 -3.67128418 61.33605469 -3.75952148 60.40039062 C-4.63008106 57.25104082 -5.87858024 55.92325915 -8.44140625 53.93359375 C-14.54166976 53.93359375 -20.00082186 55.99079882 -25.7734375 57.82421875 C-32.58546706 59.8845131 -39.48294042 61.45564876 -46.44140625 62.93359375 C-47.1281543 63.08747559 -47.81490234 63.24135742 -48.52246094 63.39990234 C-80.60101462 70.40808897 -116.92048805 67.59614467 -145.31640625 50.55859375 C-166.55105638 36.29604014 -179.98237788 14.47790154 -186.44140625 -10.06640625 C-186.44140625 -11.38640625 -186.44140625 -12.70640625 -186.44140625 -14.06640625 C-182.69090505 -13.59111026 -178.94110378 -13.11049823 -175.19140625 -12.62890625 C-174.12792969 -12.49419922 -173.06445312 -12.35949219 -171.96875 -12.22070312 C-170.94394531 -12.08857422 -169.91914063 -11.95644531 -168.86328125 -11.8203125 C-167.9206543 -11.69986572 -166.97802734 -11.57941895 -166.00683594 -11.45532227 C-163.44140625 -11.06640625 -163.44140625 -11.06640625 -161.515625 -10.52978516 C-156.08709404 -9.31705543 -150.23624317 -9.87169601 -144.69140625 -9.87890625 C-143.63862488 -9.87881561 -143.63862488 -9.87881561 -142.5645752 -9.87872314 C-131.50357071 -9.8923521 -120.88683893 -10.47999001 -109.99536133 -12.52587891 C-75.33817206 -18.9732968 -29.23905342 -24.74793482 0 0 Z " fill="#6D5963" transform="translate(332.44140625,49.06640625)"/>
<path d="M0 0 C-1.76573746 8.82868731 -4.41241486 17.38669576 -7 26 C-7.54190535 27.81373079 -8.08356504 29.62753499 -8.625 31.44140625 C-9.67020977 34.93800045 -10.71596359 38.43442682 -11.765625 41.9296875 C-12.08708496 43.00065674 -12.08708496 43.00065674 -12.41503906 44.09326172 C-12.9191508 45.73646401 -13.45647057 47.36941171 -14 49 C-14.78885135 56.84754172 -12.17102385 63.53240913 -9.66015625 70.87890625 C-9.21293295 72.21793317 -8.76694472 73.55737315 -8.3221283 74.89720154 C-7.15385577 78.40777168 -5.97243554 81.91375593 -4.78704834 85.4185791 C-2.8908618 91.0293489 -1.01091795 96.64551859 0.86148262 102.26426506 C1.51444929 104.21537666 2.1754565 106.16362392 2.83738708 108.11170959 C3.23772659 109.30662521 3.6380661 110.50154083 4.05053711 111.73266602 C4.40361435 112.77665054 4.75669159 113.82063507 5.12046814 114.89625549 C6 118 6 118 7 125 C-22.04 125 -51.08 125 -81 125 C-81.33 126.65 -81.66 128.3 -82 130 C-85.73255448 132.48836965 -87.58440935 132.54226552 -92 132 C-94.81429096 129.33108995 -95.9359104 127.82299392 -96.23999023 123.91821289 C-96.11825439 122.7605542 -95.99651855 121.60289551 -95.87109375 120.41015625 C-95.80957626 119.7652272 -95.74805878 119.12029816 -95.68467712 118.45582581 C-95.54782865 117.04862331 -95.40095216 115.64236849 -95.24530029 114.23712158 C-94.99252337 111.93181364 -94.77227901 109.62520534 -94.55908203 107.31591797 C-94.17411623 103.19524281 -93.75682869 99.07870174 -93.32543945 94.96264648 C-93.05963671 92.41000234 -92.80417466 89.85644314 -92.54882812 87.30273438 C-92.37823255 85.65878884 -92.20703105 84.01490604 -92.03515625 82.37109375 C-91.96112076 81.61791367 -91.88708527 80.86473358 -91.81080627 80.08872986 C-91.35245158 75.83457361 -90.72924715 71.93113017 -89 68 C-87.99582031 67.56816406 -86.99164063 67.13632812 -85.95703125 66.69140625 C-82.8996797 65.37101197 -82.8996797 65.37101197 -82.34130859 63.12060547 C-81.99429838 60.71929479 -81.80686169 58.36073175 -81.6875 55.9375 C-81.56903097 54.30058917 -81.44805582 52.66385722 -81.32421875 51.02734375 C-81.2636731 49.94054321 -81.2636731 49.94054321 -81.2019043 48.83178711 C-81 47 -81 47 -80 45 C-80.61875 44.731875 -81.2375 44.46375 -81.875 44.1875 C-84 43 -84 43 -86 40 C-85.64392373 31.09809336 -80.92685062 21.58865776 -75 15 C-71.9375 14 -71.9375 14 -69 14 C-64.83135078 13.49263151 -62.40591298 12.12859834 -59.0625 9.625 C-49.92081622 3 -49.92081622 3 -45 3 C-44.54882812 3.65742188 -44.09765625 4.31484375 -43.6328125 4.9921875 C-42.18444272 7.224014 -42.18444272 7.224014 -39.7421875 7.3828125 C-30.46433386 6.54856408 -21.60011475 4.37767877 -12.58349609 2.08447266 C-11.53371582 1.81812012 -10.48393555 1.55176758 -9.40234375 1.27734375 C-8.45866943 1.03234131 -7.51499512 0.78733887 -6.54272461 0.53491211 C-4 0 -4 0 0 0 Z " fill="#6D5963" transform="translate(152,362)"/>
<path d="M0 0 C7.13689649 0.70273789 14.08670279 2.18261289 21.07910156 3.73657227 C22.43092229 4.0345213 23.78411766 4.32630788 25.13867188 4.61157227 C41.28777467 8.01273087 55.62648472 12.79527567 65.90625 26.55078125 C71.64539088 35.59555475 73.4902204 44.70905255 74.5625 55.25 C74.68689453 56.39533203 74.81128906 57.54066406 74.93945312 58.72070312 C75.77113199 66.47298439 76.5228318 74.23313376 77.22631836 81.99804688 C77.99624861 90.36232555 78.99395902 98.69866724 80.03515625 107.03320312 C80.16019531 108.06896484 80.28523438 109.10472656 80.4140625 110.171875 C80.5270166 111.0803418 80.6399707 111.98880859 80.75634766 112.92480469 C81.07432801 116.93811179 81 120.97411558 81 125 C51.96 125 22.92 125 -7 125 C-4.75110842 113.75554209 -4.75110842 113.75554209 -3.02880859 108.66748047 C-2.64856537 107.5328537 -2.26832214 106.39822693 -1.8765564 105.22921753 C-1.47127716 104.03724762 -1.06599792 102.84527771 -0.6484375 101.6171875 C-0.22444564 100.35056002 0.19866369 99.08363683 0.62094116 97.81643677 C2.39897568 92.48493139 4.19017939 87.15792171 5.9921875 81.83447266 C6.884832 79.19583922 7.77099401 76.55518738 8.65048218 73.91213989 C9.47505406 71.435676 10.30927945 68.96239945 11.15444946 66.4928894 C13.78301464 58.56146246 15.33912192 52.17666674 12.71484375 43.99609375 C12.43455322 43.10116211 12.1542627 42.20623047 11.86547852 41.28417969 C11.55924561 40.34477539 11.2530127 39.40537109 10.9375 38.4375 C10.29929845 36.41021313 9.66128342 34.38286754 9.0234375 32.35546875 C8.69182617 31.31567871 8.36021484 30.27588867 8.01855469 29.20458984 C6.33160482 23.8970865 4.69532394 18.57435228 3.0625 13.25 C2.60315063 11.77744751 2.60315063 11.77744751 2.13452148 10.27514648 C1.85423096 9.36450439 1.57394043 8.4538623 1.28515625 7.515625 C1.03644775 6.71415039 0.78773926 5.91267578 0.53149414 5.08691406 C0 3 0 3 0 0 Z " fill="#6D5963" transform="translate(360,362)"/>
<path d="M0 0 C2.77982758 0.51088723 5.5443801 1.05660675 8.3125 1.625 C9.09818359 1.76550781 9.88386719 1.90601563 10.69335938 2.05078125 C16.45349321 3.27634164 16.45349321 3.27634164 18.84375 6.44140625 C20.44306589 11.36362509 21.85961827 16.31055482 23.1875 21.3125 C25.06175985 28.24952208 27.0019401 35.13692589 29.26953125 41.95703125 C29.64118408 43.07489014 30.01283691 44.19274902 30.39575195 45.34448242 C31.11736153 47.48825158 31.85108238 49.62799218 32.59838867 51.76293945 C32.92685791 52.74093506 33.25532715 53.71893066 33.59375 54.7265625 C33.88958984 55.57814941 34.18542969 56.42973633 34.49023438 57.30712891 C35.57417726 63.03312989 33.65881121 68.52850781 31.86694336 73.94506836 C31.65221878 74.59957977 31.4374942 75.25409119 31.21626282 75.92843628 C30.51300444 78.06744716 29.80151025 80.20361722 29.08984375 82.33984375 C28.59751435 83.8318264 28.10570605 85.32398109 27.61439514 86.81629944 C26.32577615 90.72569898 25.03013153 94.63273424 23.73297119 98.53930664 C22.40819462 102.53325439 21.0901293 106.52941518 19.77148438 110.52539062 C17.18752317 118.35243491 14.59551196 126.17677844 12 134 C4.08 134 -3.84 134 -12 134 C-11.32735915 120.91347257 -10.41226161 107.86951525 -9.3125 94.8125 C-9.18819107 93.32500748 -9.18819107 93.32500748 -9.06137085 91.8074646 C-7.49932449 73.1746272 -5.77970023 54.55692136 -4.01430893 35.94244003 C-3.81286077 33.81630765 -3.61224929 31.69009758 -3.41177368 29.56387329 C-3.03473667 25.5695661 -2.65258813 21.5757657 -2.26953125 17.58203125 C-2.15613403 16.3820752 -2.04273682 15.18211914 -1.92590332 13.94580078 C-1.81862915 12.83809326 -1.71135498 11.73038574 -1.60083008 10.58911133 C-1.50852615 9.62580399 -1.41622223 8.66249664 -1.32112122 7.66999817 C-1.00898685 5.07472219 -0.54930285 2.55461077 0 0 Z " fill="#624F58" transform="translate(326,353)"/>
<path d="M0 0 C1.17714615 8.74093632 2.17346785 17.47838692 2.94873047 26.26391602 C3.12356046 28.2157596 3.29851053 30.16759243 3.47357178 32.11941528 C3.56125572 33.10121387 3.64893967 34.08301247 3.7392807 35.09456253 C4.13926198 39.55192568 4.55012508 44.00826904 4.96142578 48.46459961 C5.12310057 50.21971747 5.28473131 51.97483938 5.44631958 53.72996521 C5.56844 55.05625852 5.56844 55.05625852 5.6930275 56.40934563 C6.22818613 62.22792025 6.76079972 68.04672848 7.2934742 73.86553097 C7.75796483 78.93809525 8.22367091 84.0105425 8.69189453 89.08276367 C9.15084188 94.05508784 9.60669677 99.02768679 10.06042099 104.00049019 C10.23234551 105.87879129 10.40537537 107.75699158 10.57956314 109.63508415 C10.82178053 112.24856843 11.06002793 114.86238684 11.29736328 117.47631836 C11.40485901 118.62102097 11.40485901 118.62102097 11.51452637 119.78884888 C11.57894928 120.50712357 11.64337219 121.22539825 11.70974731 121.96543884 C11.76614443 122.57935454 11.82254154 123.19327024 11.88064766 123.82578945 C12.04828091 126.87952079 12 129.94167104 12 133 C4.08 133 -3.84 133 -12 133 C-15.7616069 121.76333643 -19.51371528 110.52367808 -23.24571228 99.27714539 C-24.91061718 94.2633827 -26.58648229 89.25371023 -28.2830658 84.25057983 C-28.94480527 82.29347324 -29.60001291 80.33433262 -30.25219727 78.37402344 C-31.02244817 76.05962175 -31.80359672 73.74880834 -32.59741211 71.44238281 C-35.8277461 61.62734464 -33.83278753 54.91327524 -30.8125 45.3125 C-30.17793395 43.26446274 -29.54382823 41.21628281 -28.91015625 39.16796875 C-28.59062988 38.13978027 -28.27110352 37.1115918 -27.94189453 36.05224609 C-26.26733817 30.62578065 -24.65511458 25.18065932 -23.04223633 19.7355957 C-22.59483911 18.2350475 -22.14175411 16.73618073 -21.68237305 15.23925781 C-21.20285714 13.66569076 -20.74243545 12.08623997 -20.29614258 10.50292969 C-20.05532959 9.69500977 -19.8145166 8.88708984 -19.56640625 8.0546875 C-19.35701416 7.32491699 -19.14762207 6.59514648 -18.93188477 5.84326172 C-17.74180186 3.48928583 -16.59824313 2.97224009 -14.1875 2 C-12.80321904 1.62154521 -11.40638706 1.28554728 -10 1 C-8.39125 0.6596875 -8.39125 0.6596875 -6.75 0.3125 C-4 0 -4 0 0 0 Z " fill="#634F59" transform="translate(186,354)"/>
<path d="M0 0 C1.05058594 0.54269531 2.10117188 1.08539063 3.18359375 1.64453125 C4.60139503 2.36751601 6.01937337 3.09015361 7.4375 3.8125 C8.12521484 4.16892578 8.81292969 4.52535156 9.52148438 4.89257812 C18.91236165 9.65353451 26.7268235 11.53875638 37.3125 11.4375 C38.42536377 11.42920166 39.53822754 11.42090332 40.68481445 11.41235352 C48.4478453 11.25208523 54.97939349 10.49519435 62 7 C63.27199176 6.39162664 64.54413817 5.78357656 65.81640625 5.17578125 C69.24487592 3.51207079 72.62826984 1.77564488 76 0 C76.64379029 5.54694312 77.23361253 11.09447495 77.75976562 16.65380859 C77.95623034 18.57253415 78.21191509 20.48511465 78.484375 22.39453125 C78.89931072 26.65982633 78.83106271 28.94996434 76.1171875 32.37890625 C73.5249771 34.78015444 70.83729139 36.89554493 68 39 C66.45549346 40.24648934 64.91379071 41.49646131 63.375 42.75 C62.56417969 43.38679688 61.75335938 44.02359375 60.91796875 44.6796875 C58.58443139 46.53527143 56.28171337 48.41598777 53.98828125 50.3203125 C53.27945801 50.90586914 52.57063477 51.49142578 51.84033203 52.09472656 C50.42978833 53.26116847 49.02305445 54.43223641 47.62060547 55.60839844 C40.42241795 61.53631757 40.42241795 61.53631757 37 62 C34.53683149 60.55921944 32.69153386 59.21854158 30.5625 57.375 C29.95631836 56.87444092 29.35013672 56.37388184 28.72558594 55.8581543 C26.79964165 54.25824983 24.89822432 52.63265707 23 51 C21.77488447 49.95686107 20.54962662 48.91388925 19.32421875 47.87109375 C16.96989478 45.86062751 14.62549439 43.8392155 12.28515625 41.8125 C8.53598329 38.58041649 4.68083723 35.48914255 0.79296875 32.42578125 C-1 31 -1 31 -2 30 C-2.65539478 19.86424355 -1.45506579 10.00357732 0 0 Z " fill="#FAB681" transform="translate(218,308)"/>
<path d="M0 0 C5.52511386 0.64969224 8.1446692 3.28242805 12.203125 6.90234375 C13.70954359 8.19541949 15.21605398 9.48838828 16.72265625 10.78125 C17.44791504 11.41434082 18.17317383 12.04743164 18.92041016 12.69970703 C21.53427352 14.9694923 24.20281625 17.15815591 26.890625 19.33984375 C27.73109375 20.02691406 28.5715625 20.71398437 29.4375 21.421875 C33.58980929 24.79401437 37.7682326 28.13326997 41.953125 31.46484375 C40.65210376 35.02578127 39.1046854 37.92811344 36.90625 41.01171875 C36.308125 41.85734375 35.71 42.70296875 35.09375 43.57421875 C34.46984375 44.445625 33.8459375 45.31703125 33.203125 46.21484375 C31.97816598 47.93809119 30.75420033 49.66204521 29.53125 51.38671875 C28.93376953 52.22525391 28.33628906 53.06378906 27.72070312 53.92773438 C25.45595011 57.17846826 23.31860219 60.50515694 21.20605469 63.85644531 C20.79258789 64.3872168 20.37912109 64.91798828 19.953125 65.46484375 C19.293125 65.46484375 18.633125 65.46484375 17.953125 65.46484375 C17.70256348 64.95848389 17.45200195 64.45212402 17.19384766 63.93041992 C16.4319264 62.39292848 15.6686041 60.85613096 14.90429688 59.31982422 C14.00928971 57.51959442 13.11743419 55.71779478 12.22851562 53.91455078 C9.97814316 49.38145478 7.6768192 44.91507403 5.1328125 40.5390625 C-2.35193072 27.52673163 -4.47077683 16.49409043 -4.046875 1.46484375 C-3.046875 0.46484375 -3.046875 0.46484375 0 0 Z " fill="#D8D6D9" transform="translate(204.046875,348.53515625)"/>
<path d="M0 0 C0.495 0.495 0.495 0.495 1 1 C0.96110122 3.84858769 0.852669 6.65818824 0.6875 9.5 C0.65205078 10.27859375 0.61660156 11.0571875 0.58007812 11.859375 C0.51530273 13.02726562 0.51530273 13.02726562 0.44921875 14.21875 C0.41143311 14.91935547 0.37364746 15.61996094 0.3347168 16.34179688 C-0.62455935 23.96003078 -2.75510608 30.20285856 -6.3515625 36.97265625 C-6.77045746 37.78117538 -7.18935242 38.58969452 -7.62094116 39.42271423 C-8.94587315 41.97453294 -10.28511646 44.51850586 -11.625 47.0625 C-12.53221138 48.80353584 -13.43847071 50.54506813 -14.34375 52.28710938 C-16.5515411 56.53055513 -18.77218934 60.76703269 -21 65 C-21.66 65 -22.32 65 -23 65 C-24.73381096 62.70048352 -26.34721528 60.39659908 -27.9375 58 C-28.92167042 56.54152859 -29.90605194 55.08319963 -30.890625 53.625 C-31.39916016 52.86703125 -31.90769531 52.1090625 -32.43164062 51.328125 C-34.9885501 47.53256323 -37.58960427 43.76756848 -40.1875 40 C-41.11870123 38.64597886 -42.04971048 37.29182567 -42.98046875 35.9375 C-43.64691406 34.968125 -44.31335938 33.99875 -45 33 C-43.55774684 29.53100162 -41.84722592 27.8244143 -38.875 25.5625 C-37.98554688 24.87285156 -37.09609375 24.18320312 -36.1796875 23.47265625 C-35.42896973 22.89281982 -35.42896973 22.89281982 -34.66308594 22.30126953 C-32.10832944 20.30231883 -29.59760172 18.25030326 -27.08422852 16.19970703 C-25.6940597 15.06601191 -24.3013091 13.93547535 -22.90600586 12.80810547 C-19.89527834 10.37481199 -16.91720987 7.92797582 -13.99609375 5.38671875 C-6.32094511 -1.21039374 -6.32094511 -1.21039374 0 0 Z " fill="#D8D6D9" transform="translate(311,349)"/>
<path d="M0 0 C4.24947731 3.58844751 8.36784357 7.27057779 12.4375 11.0625 C15.72180444 14.11091517 18.70232129 16.52751513 22.6875 18.5625 C24.46362305 19.59765625 24.46362305 19.59765625 26 21 C28.12126296 31.82478374 24.60510201 49.6688703 19 59 C14.81364127 64.75722505 10.21704351 70.14875921 5 75 C4.34 75 3.68 75 3 75 C1.59049602 69.68395198 0.26319339 64.35270987 -1 59 C-1.15968262 58.33226562 -1.31936523 57.66453125 -1.48388672 56.9765625 C-5.59039597 39.21290035 -7.14072115 17.07563754 0 0 Z " fill="#624E58" transform="translate(156,91)"/>
<path d="M0 0 C0.33 0 0.66 0 1 0 C1.21040483 8.62583274 0.5538774 17.05893758 -0.3125 25.63671875 C-0.44748638 27.01100687 -0.58199929 28.38534156 -0.71606445 29.75971985 C-1.06646954 33.33900791 -1.42320916 36.91763582 -1.78137207 40.49615479 C-2.14721566 44.16306775 -2.50692631 47.83058201 -2.8671875 51.49804688 C-3.57219904 58.66596182 -4.28448593 65.8331244 -5 73 C-10.94 73 -16.88 73 -23 73 C-23.859566 66.7018502 -24.7139101 60.40302208 -25.56347656 54.10351562 C-25.85306589 51.96172073 -26.14406753 49.82011629 -26.43652344 47.67871094 C-26.8572566 44.59619652 -27.27286376 41.5130272 -27.6875 38.4296875 C-27.81874268 37.47633514 -27.94998535 36.52298279 -28.08520508 35.54074097 C-29.79852271 22.69732242 -29.79852271 22.69732242 -27 17.625 C-26.62875 16.93664062 -26.2575 16.24828125 -25.875 15.5390625 C-25.58625 15.03117187 -25.2975 14.52328125 -25 14 C-22 15 -22 15 -19.6875 17.625 C-17.2345196 20.30638829 -17.2345196 20.30638829 -14.09375 20.0703125 C-9.88464025 18.61413059 -8.70183815 16.03634095 -6.8125 12.25 C-6.15258836 11.00507864 -5.49243616 9.76028476 -4.83203125 8.515625 C-4.22746094 7.35546875 -3.62289063 6.1953125 -3 5 C-2.04074045 3.3095566 -1.05576156 1.63191462 0 0 Z " fill="#E8E6E8" transform="translate(305,414)"/>
<path d="M0 0 C2.31822564 2.12877122 3.75044381 4.13277228 5.15625 6.94140625 C5.53910156 7.68970703 5.92195312 8.43800781 6.31640625 9.20898438 C7.10703707 10.78111331 7.89609414 12.35403465 8.68359375 13.92773438 C9.06644531 14.67474609 9.44929687 15.42175781 9.84375 16.19140625 C10.18599609 16.87404541 10.52824219 17.55668457 10.88085938 18.26000977 C12.03817857 20.31414626 12.03817857 20.31414626 15 22 C19.18596685 21.90900072 20.71099897 21.25758788 23.875 18.4375 C24.57625 17.633125 25.2775 16.82875 26 16 C28.80686334 19.2147812 30.9272078 22.25818667 31.109375 26.6171875 C31.01140625 27.58914063 30.9134375 28.56109375 30.8125 29.5625 C30.69914307 30.70678467 30.58578613 31.85106934 30.46899414 33.0300293 C29.53125713 40.96784375 28.50777824 48.89154724 27.4375 56.8125 C27.20084295 58.58394046 26.96451256 60.3554246 26.72851562 62.12695312 C26.15670084 66.41857359 25.57822065 70.70921875 25 75 C19.06 75 13.12 75 7 75 C6.823479 73.01226562 6.64695801 71.02453125 6.46508789 68.9765625 C5.87966448 62.38670916 5.2926651 55.79699688 4.7049036 49.20735168 C4.34882269 45.21463551 3.99326189 41.22187447 3.63891602 37.22900391 C3.29651568 33.37096142 2.95271479 29.51304601 2.60796928 25.6552124 C2.47711414 24.18817526 2.3467517 22.72109408 2.21690559 21.25396729 C1.58824992 14.1542028 0.95861087 7.06428595 0 0 Z " fill="#E9E7E9" transform="translate(205,412)"/>
<path d="M0 0 C4.4586825 1.03505129 4.4586825 1.03505129 6.5 3.8125 C7.96078844 13.19947321 5.75542394 23.43761797 4.5625 32.8125 C4.28610223 35.02659417 4.01183939 37.2409279 3.73983765 39.45556641 C3.5631174 40.89048235 3.38365679 42.32506371 3.20132446 43.75927734 C2.55325771 48.96637667 2.19633846 54.15086664 2.03686523 59.39453125 C1.32684406 62.59237106 0.04998038 63.81112667 -2.5 65.8125 C-6 66.375 -6 66.375 -9.5 65.8125 C-12.30572472 63.13720257 -13.43596694 61.63476784 -13.73999023 57.73071289 C-13.55738647 55.99422485 -13.55738647 55.99422485 -13.37109375 54.22265625 C-13.27881752 53.25526268 -13.27881752 53.25526268 -13.18467712 52.26832581 C-13.04782865 50.86112331 -12.90095216 49.45486849 -12.74530029 48.04962158 C-12.49252337 45.74431364 -12.27227901 43.43770534 -12.05908203 41.12841797 C-11.67411623 37.00774281 -11.25682869 32.89120174 -10.82543945 28.77514648 C-10.55963671 26.22250234 -10.30417466 23.66894314 -10.04882812 21.11523438 C-9.87823255 19.47128884 -9.70703105 17.82740604 -9.53515625 16.18359375 C-9.46112076 15.43041367 -9.38708527 14.67723358 -9.31080627 13.90122986 C-8.85193045 9.64223687 -8.20254029 5.75769936 -6.5 1.8125 C-3.5 -0.1875 -3.5 -0.1875 0 0 Z " fill="#000000" transform="translate(69.5,428.1875)"/>
<path d="M0 0 C1.48073112 0.6631846 2.95964838 1.33042322 4.4375 2 C16.38366854 6.59468021 31.95761928 5.63605747 43.68359375 0.83984375 C47.28646797 -0.46642599 49.3922203 -0.22818032 53 1 C55 2.6875 55 2.6875 56 5 C56.0625 8 56.0625 8 55 11 C42.56387584 20.55502795 25.92443167 20.08073471 11 19 C3.94081505 18.07115988 -3.82052903 16.235617 -9 11 C-10.25 7.4375 -10.25 7.4375 -10 4 C-7.27869178 -0.24524082 -4.83955301 -0.70393498 0 0 Z " fill="#050403" transform="translate(233,245)"/>
<path d="M0 0 C4.62 0 9.24 0 14 0 C14.71922304 4.97947183 15.43103286 9.95992874 16.13623047 14.94140625 C16.37674764 16.63309746 16.6192276 18.3245109 16.86376953 20.015625 C17.21653333 22.45761439 17.56203942 24.90054209 17.90625 27.34375 C18.0156189 28.08991577 18.12498779 28.83608154 18.2376709 29.6048584 C18.33777466 30.32500122 18.43787842 31.04514404 18.54101562 31.78710938 C18.67425232 32.71976624 18.67425232 32.71976624 18.81018066 33.67126465 C19.08993804 37.10337491 19 40.55650686 19 44 C11.08 44 3.16 44 -5 44 C-4.4069489 29.17372246 -2.21374003 14.66216655 0 0 Z " fill="#E2636C" transform="translate(249,443)"/>
<path d="M0 0 C0.66 0 1.32 0 2 0 C3.17333984 1.35766602 3.17333984 1.35766602 4.4609375 3.25390625 C4.93273437 3.94419922 5.40453125 4.63449219 5.890625 5.34570312 C6.38046875 6.07724609 6.8703125 6.80878906 7.375 7.5625 C7.85710937 8.26697266 8.33921875 8.97144531 8.8359375 9.69726562 C9.79123937 11.1055571 10.73218624 12.52369781 11.65820312 13.95141602 C12.52092535 15.26857435 13.41867493 16.56378043 14.35742188 17.82788086 C15.5546875 19.5625 15.5546875 19.5625 17 23 C16.07363043 26.04242608 15.33438331 27.80713148 13.75 30.4375 C11.89375 33.6859375 11.89375 33.6859375 10 37 C4.06 37 -1.88 37 -8 37 C-14.83018862 27.00218767 -14.83018862 27.00218767 -15 22 C-12.65077764 15.49184918 -7.95144804 10.07703025 -3.53149414 4.84667969 C-1.8381901 2.87014136 -1.8381901 2.87014136 0 0 Z " fill="#D94553" transform="translate(255,392)"/>
<path d="M0 0 C1.12208862 0.01027222 1.12208862 0.01027222 2.2668457 0.02075195 C8.10272081 0.1902113 12.69161929 1.17699353 17.625 4.4375 C18.25277344 4.81132812 18.88054687 5.18515625 19.52734375 5.5703125 C21.25 6.75 21.25 6.75 23.625 9.4375 C23.76031358 13.3615937 23.53555041 15.42939062 20.875 18.375 C18.13587551 19.66847545 16.62549262 19.87659648 13.625 19.4375 C11.92985863 18.48656703 10.26131892 17.48642238 8.625 16.4375 C3.49852897 14.84019955 -2.57499269 14.2642575 -7.59375 16.3671875 C-8.91811118 17.10577354 -10.23987162 17.84904833 -11.55859375 18.59765625 C-13.375 19.4375 -13.375 19.4375 -16.6875 19.4375 C-19.85066871 18.26050699 -20.87105807 17.44538387 -22.375 14.4375 C-23 12.0625 -23 12.0625 -22.375 9.4375 C-16.37783697 2.43196443 -8.95559286 -0.12587981 0 0 Z " fill="#060504" transform="translate(216.375,156.5625)"/>
<path d="M0 0 C1.703125 1.1796875 1.703125 1.1796875 3.953125 3.8671875 C4.08843858 7.7912812 3.86367541 9.85907812 1.203125 12.8046875 C-1.60912627 14.13269505 -2.958776 14.36990129 -6.046875 13.8671875 C-7.0575 13.2071875 -8.068125 12.5471875 -9.109375 11.8671875 C-14.05369414 8.83784536 -19.44260579 9.06439314 -25.046875 9.8671875 C-27.12241632 10.74311103 -27.12241632 10.74311103 -28.859375 11.9296875 C-32.046875 13.8671875 -32.046875 13.8671875 -35.796875 13.8671875 C-39.046875 12.8671875 -39.046875 12.8671875 -40.984375 11.1171875 C-42.34813662 8.22922171 -42.79680117 7.01687741 -42.046875 3.8671875 C-31.43078345 -8.87212237 -13.35734353 -7.39242294 0 0 Z " fill="#060504" transform="translate(314.046875,162.1328125)"/>
<path d="M0 0 C4.43680469 0.0637243 6.9420553 1.34329872 10.3125 4.3125 C13.20024395 10.06807242 13.14358501 16.02833092 12.3125 22.3125 C9.93068202 28.47237409 6.4504959 33.5443842 0.3125 36.3125 C-2.69037887 36.87954609 -5.64051267 37.14276771 -8.6875 37.3125 C-7.99946252 29.25234329 -7.14197777 21.22023371 -6.1875 13.1875 C-5.99220703 11.4859375 -5.99220703 11.4859375 -5.79296875 9.75 C-5.66535156 8.67492187 -5.53773438 7.59984375 -5.40625 6.4921875 C-5.23512695 5.03401611 -5.23512695 5.03401611 -5.06054688 3.54638672 C-4.43920156 -0.17436568 -4.01637666 0.3403709 0 0 Z " fill="#F8B580" transform="translate(366.6875,182.6875)"/>
<path d="M0 0 C0.66 0.33 1.32 0.66 2 1 C2.48657227 3.23388672 2.48657227 3.23388672 2.81640625 6.1796875 C2.94080078 7.25476563 3.06519531 8.32984375 3.19335938 9.4375 C3.31517578 10.571875 3.43699219 11.70625 3.5625 12.875 C3.68818359 13.97070312 3.81386719 15.06640625 3.94335938 16.1953125 C4.72709252 23.12170802 5.39935002 30.05547501 6 37 C-0.60354576 36.73441421 -5.27619601 35.87618477 -10 31 C-14.86104004 25.09291337 -15.68058665 19.49527731 -15.35546875 11.96484375 C-14.76789877 7.06412272 -13.53265335 4.27721112 -9.75 1.125 C-6.32298013 -0.27696267 -3.67072569 -0.2770359 0 0 Z " fill="#F9B580" transform="translate(148,183)"/>
<path d="M0 0 C2.32110046 2.6205973 2.98117079 4.19034399 3.0625 7.6875 C1.76517807 11.73209191 -0.25036678 14.94911855 -2.51171875 18.52734375 C-3.79843644 20.66511882 -4.78327405 22.68382765 -5.6875 25 C-7 28 -7 28 -10 30 C-12.9375 30.4375 -12.9375 30.4375 -16 30 C-18.4375 27.9375 -18.4375 27.9375 -20 25 C-20 16.08519482 -14.61462722 6.70760799 -9 0 C-5.40997619 -1.1966746 -3.61734062 -1.05505768 0 0 Z " fill="#010101" transform="translate(86,377)"/>
<path d="M0 0 C3.94875513 2.45865885 5.66872408 3.98776803 7.125 8.4375 C6.97177911 12.80429526 5.76736304 14.67916436 3 18 C-0.23415916 19.61707958 -3.50375265 19.56822376 -7 19 C-10.14249107 16.97047452 -11.63745366 15.53044369 -12.51171875 11.83984375 C-12.75802839 8.56118881 -12.73398271 6.08469117 -10.85546875 3.30859375 C-7.42328249 0.12997271 -4.53121574 -0.94400328 0 0 Z " fill="#060504" transform="translate(298,183)"/>
<path d="M0 0 C4.27876075 2.45632562 4.27876075 2.45632562 6 5 C6.80921878 8.17374456 6.75359702 10.81878511 6 14 C4.00772296 17.05067422 2.66317126 18.59426669 -0.9375 19.47265625 C-4.88438331 19.7641874 -6.63943293 19.25316411 -9.9375 16.9375 C-12.44488346 13.3663781 -13.15331912 11.36959504 -13 7 C-9.83292036 1.4482957 -6.34307041 -0.73189274 0 0 Z " fill="#060504" transform="translate(220,183)"/>
</svg>
