<svg class="svg-icon" style="width: 1em; height: 1em;vertical-align: middle;fill: currentColor;overflow: hidden;" viewBox="0 0 1024 1024" version="1.1" xmlns="http://www.w3.org/2000/svg"><path d="M1020.598007 1000.186047l-34.019934-132.677741c-6.803987-30.61794-27.215947-54.431894-54.431894-68.039867l-108.863787-57.833888c-6.803987-3.401993-13.607973-3.401993-20.41196 3.401994-6.803987 6.803987-6.803987 13.607973-3.401993 20.41196l23.813953 37.421927c6.803987 13.607973 10.20598 27.215947 6.803987 44.225914-3.401993 13.607973-17.009967 27.215947-30.61794 30.61794l-78.245848 30.61794s-3.401993 0-3.401993 3.401993L612.358804 986.578073c-6.803987 3.401993-6.803987 13.607973-6.803987 20.41196s10.20598 10.20598 17.009967 10.20598h377.621263c6.803987 0 10.20598-3.401993 13.607973-6.803986 6.803987 0 6.803987-6.803987 6.803987-10.20598zM302.777409 915.136213l-3.401994-3.401994-95.255814-30.61794c-13.607973-3.401993-27.215947-17.009967-30.61794-30.61794-6.803987-13.607973-3.401993-30.61794 3.401993-44.225914l23.813954-37.421927c3.401993-6.803987 3.401993-17.009967 0-20.41196-6.803987-6.803987-13.607973-6.803987-20.41196-3.401993l-91.853821 47.627907c-27.215947 13.607973-47.627907 37.421927-54.431893 68.039867l-34.019934 139.481728c0 3.401993 0 10.20598 3.401993 13.607973s6.803987 6.803987 13.607974 6.803987h377.621262c6.803987 0 13.607973-3.401993 17.009967-10.20598 3.401993-6.803987 0-13.607973-6.803987-20.411961l-102.0598-74.843853z" fill="" /><path d="M789.262458 850.498339l10.205981-10.20598c3.401993-3.401993 0-10.20598-3.401994-13.607974l-85.049834-136.079734c-3.401993-3.401993-10.20598-6.803987-13.607973-6.803987-6.803987 0-10.20598 3.401993-13.607974 6.803987L510.299003 972.9701l-190.511628-282.365449c-3.401993-6.803987-6.803987-10.20598-13.607973-10.20598s-10.20598 3.401993-13.607973 6.803987l-85.049834 136.079734c-3.401993 6.803987-3.401993 10.20598-3.401994 17.009967 3.401993 3.401993 6.803987 10.20598 10.20598 10.20598l98.657808 34.019933 183.707641 136.079735s3.401993 0 3.401993 3.401993h6.803987c6.803987 0 10.20598-3.401993 13.607973-6.803987l180.305648-132.677741 88.451827-34.019933zM425.249169 374.219269h-34.019933c-10.20598 0-17.009967 6.803987-17.009967 17.009967s6.803987 17.009967 17.009967 17.009967h34.019933c10.20598 0 17.009967-6.803987 17.009967-17.009967s-6.803987-17.009967-17.009967-17.009967zM629.368771 374.219269h-34.019934c-10.20598 0-17.009967 6.803987-17.009967 17.009967s6.803987 17.009967 17.009967 17.009967h34.019934c10.20598 0 17.009967-6.803987 17.009967-17.009967s-6.803987-17.009967-17.009967-17.009967z" fill="" /><path d="M353.807309 649.780731s3.401993 0 0 0h3.401993c44.225914 40.82392 95.255814 64.637874 146.285715 64.637874 54.431894 0 108.863787-23.813953 156.491694-64.637874 30.61794-6.803987 173.501661-34.019934 217.727575-74.843854 6.803987-6.803987 6.803987-17.009967 0-23.813953-23.813953-23.813953-47.627907-102.059801-57.833887-193.913622-3.401993-27.215947-3.401993-51.0299-3.401994-68.039867C816.478405 132.677741 673.594684 0 506.89701 0 340.199336 0 204.119601 129.275748 204.119601 289.169435v37.421927c0 6.803987 0 17.009967-3.401993 23.813954-10.20598 95.255814-34.019934 173.501661-57.833887 197.315614-6.803987 6.803987-6.803987 17.009967 0 23.813954 44.225914 47.627907 193.913621 74.843854 210.923588 78.245847z m10.20598-44.225914c-27.215947-34.019934-51.0299-78.245847-61.23588-129.275747 0-6.803987-3.401993-10.20598-10.20598-10.20598-3.401993-3.401993-10.20598 0-17.009967 0H272.159468c-10.20598 0-27.215947-27.215947-27.215946-68.039867 0-10.20598-3.401993-20.41196-6.803987-27.215947v-6.803987c3.401993 0 6.803987-3.401993 10.20598-6.803987 51.0299-23.813953 132.677741-74.843854 153.089701-159.893687 64.637874 64.637874 234.737542 156.491694 367.415282 173.501661h10.20598c0 6.803987 3.401993 17.009967 3.401994 23.813953 0 44.225914-13.607973 68.039867-20.41196 68.039867h-3.401994c-3.401993-3.401993-10.20598-3.401993-17.009967 0-3.401993 3.401993-10.20598 6.803987-10.20598 10.20598-13.607973 57.833887-44.225914 108.863787-88.451827 149.687708-40.82392 37.421927-91.853821 61.23588-136.079734 61.23588-54.431894-3.401993-105.461794-30.61794-142.883721-78.245847z" fill="" /></svg>